<?xml version="1.0" standalone="no"?>
<!DOCTYPE svg PUBLIC "-//W3C//DTD SVG 1.1//EN" "http://www.w3.org/Graphics/SVG/1.1/DTD/svg11.dtd" >
<svg xmlns="http://www.w3.org/2000/svg">
<metadata></metadata>
<defs>
<font id="chefrylregular" horiz-adv-x="1116" >
<font-face units-per-em="2048" ascent="1638" descent="-410" />
<missing-glyph horiz-adv-x="817" />
<glyph horiz-adv-x="0" />
<glyph horiz-adv-x="682" />
<glyph unicode=" "  horiz-adv-x="817" />
<glyph unicode="&#x09;" horiz-adv-x="817" />
<glyph unicode="&#xa0;" horiz-adv-x="817" />
<glyph unicode="!" horiz-adv-x="595" d="M102 1407q-1 31 23 55.5t55 24.5q34 2 86 -12q22 -8 36.5 -30.5t10.5 -45.5q-10 -75 -8 -131q0 -82 12 -121q5 -13 5 -51q2 -37 4 -110t4 -109q2 -20 7 -64t7 -68q0 -7 3 -14.5t9.5 -18t8.5 -14.5q23 -43 9 -92t-57 -74q-31 -19 -72.5 -5t-51.5 48q-29 86 -33 127 q-3 24 -19 263q-2 31 -5 66t-7 77t-6 66l-6 59q2 2 6 2q-2 11 -5 34t-5 34q-10 89 -11 104zM242 160q-6 26 22 43q43 25 45 26q29 20 74.5 11.5t67.5 -39.5l30 -41q17 -23 8 -51q-25 -87 -32 -109q-11 -41 -60 -41h-22q-4 2 -21 2q-42 1 -73.5 36.5t-28.5 74.5q3 42 -10 88z " />
<glyph unicode="&#x22;" horiz-adv-x="724" d="M104 1341q-4 22 2 33q33 65 82 96q45 21 66 0q26 -19 31 -40q2 -14 7 -39t7 -39q4 -29 0 -43q-10 -37 -2 -95q7 -147 -4 -235q-3 -18 6 -70q4 -21 -10.5 -39.5t-38.5 -21.5q-28 -3 -49 12q-14 9 -17 19q-46 123 -43 239q1 24 -1 47.5t-7 62.5t-6 46q-1 13 -11 35.5 t-12 31.5zM430 1405q-14 37 3.5 82t58.5 72q28 21 79 6q28 -9 37 -35q15 -48 15 -139v-183q2 -48 -5 -123q-1 -10 -3.5 -29.5t-4 -31t-1 -28.5t4.5 -31q6 -21 -11 -44.5t-40 -29.5q-6 -3 -16 2q-55 34 -66 88q-20 90 -20 139q1 14 -2 64.5t2 66.5q-3 16 -7.5 48t-9.5 57.5 t-14 48.5z" />
<glyph unicode="#" horiz-adv-x="1910" d="M104 637q-6 33 6.5 58.5t41.5 35.5q6 2 25 10t33 12.5t28 6.5q13 3 38 12t39 12q89 21 177 39q28 5 38 37q14 44 5 72q-3 9 -7 29.5t-9.5 35.5t-16.5 27q-17 17 -13 47q0 21 7 49q7 35 41.5 54.5t66.5 7.5q26 -9 66 -33q39 -23 39 -70q-1 -8 -1 -24.5t-1 -24.5 q-3 -39 8 -74q3 -8 4 -17t1 -21t1 -19q1 -12 12 -21.5t23 -9.5q7 1 39 3t51.5 5t38.5 9q42 13 114 24q-6 42 -18 86q-15 36 -12 66q0 13 4 29q15 34 46 48.5t62 8.5t49 -27q12 -15 25 -28q21 -24 14 -58q-8 -54 -6 -82q0 -5 1 -14t1 -14q4 0 6 2q21 2 45.5 3t55.5 1.5 t47 1.5q2 0 14 -6q22 -11 31.5 -42t-2.5 -53q-17 -38 -53 -47q-103 -25 -146 -34q-4 -140 -4 -209q28 4 45 4q21 0 27 4q23 12 65 16h15q34 4 110 8q11 0 33 1t33 1q15 3 31 3q49 0 157 -17q4 0 11.5 -1t11.5 -1q49 -9 86 -49v-2q3 -2 10 -12q22 -39 10 -74q-14 -31 -55 -45 q-12 -4 -37 -4q-23 0 -41 6q-59 22 -147 22q-36 0 -54 -2h-45h-6h-6q-48 0 -96 -10q-12 -4 -23 -4h-8q-28 0 -94 -12l-25 -6h-4q4 -22 8 -33q0 -9 1.5 -21t1.5 -16q13 -97 40 -223q17 -31 9 -103q-3 -30 -34.5 -46.5t-64.5 5.5q-14 11 -22 21q-20 29 -39 65 q-11 24 -28 101.5t-17 103.5q0 4 1 12t1 11q0 20 -4 30q-8 38 -10 62l-31 -6q-47 -8 -103 -25l-67 -18l-2 -2q-3 0 -64 -21q5 -50 23 -129q3 -11 7.5 -23t11.5 -26t10 -23q17 -32 0 -65q-12 -24 -23 -35q-9 -12 -25 -16t-28 2q-7 4 -42 18t-52 27q-37 29 -39 63 q-1 15 -6.5 46.5t-6.5 48.5q-2 11 -2.5 32.5t-1.5 28.5l-59 -18q-40 -16 -62 -27q-8 -2 -28 -10q-34 -15 -60 -31q-22 -15 -67 -35h-4q-4 -2 -39 -8h-4q-25 0 -43 18q-56 53 -41 127q3 16 18 31q28 23 45 29l7 3l10 5q75 26 92 29q28 3 96 24q1 0 9.5 3.5t13.5 4.5 q17 5 47.5 16.5t38.5 14.5q4 0 12 4l-6 37q-1 0 -1 37l1 37q-4 32 -4 49q0 18 -1.5 29.5t-5 19.5t-6 11.5t-11.5 5t-14 1t-20 -1.5t-24 -2q-16 0 -31 -6q-14 -5 -41.5 -13t-49.5 -16.5t-40 -19.5q-41 -24 -113 -12q-47 11 -71 63q-1 4 -2.5 12.5t-2.5 12.5zM716.5 555 q0.5 -7 0.5 -41q1 -11 2 -34.5t2 -35.5h2q4 1 11 3.5t11 3.5q7 0 19 4q20 3 41 12q43 14 61 16q23 3 58 13q6 1 18.5 4t18.5 4l38 8q4 25 4.5 73.5t0.5 55.5q0 16 1 45t1 43q-60 -6 -62 -6q-36 -4 -100.5 -20t-77.5 -19q-34 -6 -41 -47q-1 -7 -5 -41t-3.5 -41z" />
<glyph unicode="$" horiz-adv-x="1114" d="M106 115q-14 57 29 94q20 13 43 16q55 0 94 -16q40 -8 64 -8q53 0 65 11.5t15 61.5q1 20 5 57.5t6 68t1 57.5q0 31 -25 37q-60 20 -100 49q-63 44 -106 92q-8 9 -18 30t-13 25q-23 45 -16 117q11 59 59 100q27 24 57 29q12 3 57.5 16.5t71.5 16.5q13 0 25 6q22 11 24 29 q0 102 -10 149q-8 38 -18 53q-19 33 -19 107l11 22q38 47 104 47q22 -5 25 -8q9 -5 22.5 -13.5t18 -11.5t12 -8.5t9 -10t5 -10.5t3.5 -15v-18.5t-1 -26.5q-1 -8 -2 -25.5t-2 -22.5q3 -133 19 -206q3 -18 20 -21q27 -5 51.5 -20.5t38.5 -30.5t35 -41q17 -20 6 -45 q-2 -3 -8 -21q-13 -38 -43 -43q-15 -6 -40.5 -13.5t-35.5 -10.5q-20 -8 -20 -23q-15 -51 -15 -78q-3 -54 47 -75l7 -3.5t8 -2.5q28 -6 77 -27.5t74 -28.5q92 -24 164 -116q22 -24 25 -66q3 -23 -6 -47q-17 -50 -62 -92q-14 -14 -18 -15q-24 -9 -69 -37.5t-71 -37.5 q-3 -1 -15.5 -8t-20.5 -7q-25 -2 -67.5 -19.5t-59.5 -21.5q-17 -7 -23 -22q-13 -26 4 -43l70 -56q16 -13 8 -36q-14 -41 -47 -82q-14 -17 -47 -29q-24 -12 -53 -12q-46 -3 -60 32q-47 84 -49 134q0 15 -8 39q-6 29 -15 37.5t-43 9.5q-10 0 -75 -3.5t-76 1.5q-82 6 -103 90z M355.5 748q-4.5 -20 9.5 -37q20 -20 41 -23q10 -4 21.5 3t14.5 18q0 4 1 12t1 12q0 15 -2 23q-2 9 -10.5 16.5t-17.5 7.5q-3 -1 -10 -1.5t-12 -1.5t-9 -3q-23 -6 -27.5 -26zM588 270q0 -19 14.5 -29t34.5 -5q15 5 47 15.5t49 16.5q21 9 64 35q6 2 10 10q5 5 5 16t-5 15 q-5 3 -15.5 12.5t-15.5 12.5q-47 18 -125 51q-4 0 -6 2q-15 5 -28 -2.5t-13 -22.5q-5 -22 -16 -98v-29z" />
<glyph unicode="'" horiz-adv-x="395" d="M109 1393q-13 33 6 84q13 31 42 44.5t58 2.5q12 -5 49 -23q19 -10 23 -31q11 -44 0 -63q-15 -40 -19 -113q-4 -105 -10 -155q-3 -16 2 -70q2 -43 -25.5 -67t-70.5 -17q-24 3 -38.5 19t-14.5 38v123q0 10 -1 88t5 88q3 27 -6 52z" />
<glyph unicode="(" horiz-adv-x="1308" d="M102 281v43v18v2q0 159 52 287q3 11 9.5 29t11.5 33t9 30q16 64 66 131l19.5 26t23 32.5t16.5 29.5q53 91 127 154l33 30q95 83 143 111q107 61 164 70q36 4 94 36q3 1 9.5 4.5t9.5 4.5q21 12 41 12q25 0 49 -12q14 -7 16 -11q36 -46 54 -75q5 -5 2 -19q-3 -8 -12 -24.5 t-11 -20.5q-30 -53 -88 -53q-19 0 -27 4q-24 4 -34 4q-14 0 -29 -6q-155 -56 -285 -168q-25 -19 -47 -47q-3 -5 -10 -14.5t-10 -14.5q-91 -122 -131 -200q-31 -64 -39 -91q-1 -5 -4.5 -14t-4.5 -14q-47 -163 -55 -215q-6 -41 2 -72q2 -10 7.5 -28t7.5 -25q5 -26 16 -70 q44 -140 131 -201l2 -2h2q64 -79 211 -131l14 -6q2 -1 7.5 -3t7.5 -3q22 -4 24 -37q0 -8 -10.5 -20t-23.5 -13q-32 -8 -56 -8q-18 0 -26 2q-156 38 -261 111q-63 46 -98 106q-22 40 -31 54q-25 41 -36 63q-49 97 -52 191z" />
<glyph unicode=")" horiz-adv-x="1019" d="M210.5 1240q-11.5 42 2.5 81q17 52 76 65q38 7 59 -12q9 -9 26 -25t30.5 -29t23.5 -26q12 -16 80 -94q2 -2 31 -43q3 -4 10.5 -16.5t13.5 -18.5q100 -108 193 -270q93 -160 112 -248q3 -12 9 -24q19 -36 28.5 -78t9.5 -80v-82q0 -4 -1 -13t-1 -14q1 -53 -10 -114.5 t-22 -99.5t-33 -109q-8 -30 -21 -49q-10 -14 -28 -40t-34 -47.5t-32 -37.5q-29 -29 -45 -43q-14 -12 -43.5 -36t-44.5 -36q-33 -30 -80 -53q-39 -20 -86 -17q-26 3 -45 25q-27 34 2 63q3 2 10 8t11 9q65 42 98 98q6 13 29 31q34 27 84 90q110 136 116 287q0 31 4 45 q14 50 -6 155q-32 162 -102 287q-104 187 -225 313q-68 71 -154 132q-34 24 -45.5 66z" />
<glyph unicode="+" horiz-adv-x="1353" d="M102 518v8q2 33 30 67.5t58 37.5q45 7 152 33q34 8 49 14q30 10 33 39q8 109 -12 162q-3 8 -19 73q-10 31 19 64q19 24 28 31q35 30 78 20q78 -20 96 -98q7 -34 0 -86q-9 -58 2 -111q6 -37 41 -37h9q6 2 18 2q6 1 33.5 5t39 5t32.5 0t38 -6l170 19q86 12 129 14 q50 6 95 -33q33 -27 30.5 -48.5t-43.5 -41.5q-104 -49 -151 -59q-104 -20 -187 -31q-39 -5 -109 -16t-95 -15l-17 -6q-32 -14 -35 -45q-2 -10 -2 -33q0 -17 2 -48t2 -46q2 -61 25 -162q2 -10 29 -71q17 -32 2 -66l-23 -37q-11 -11 -27 -14.5t-28 2.5q-6 3 -41 17t-51 28 q-36 25 -41 64q-1 16 -6 46.5t-6 45.5q-3 35 -3 69q-1 3 -1.5 15.5t-2.5 17.5q-12 22 -16 92q0 5 -1 11t-2.5 13t-2.5 11q-3 11 -15 18t-26 7q-28 -3 -57 -19q-31 -21 -89 -32q-17 -6 -43 -2q-28 0 -51 26q-27 34 -37 86z" />
<glyph unicode="," horiz-adv-x="389" d="M-101.5 -329q-5.5 18 3.5 38q18 41 47 55q45 23 80 95q49 110 57 137q10 34 23 123q4 25 32 57q22 23 50.5 24.5t50.5 -18.5q9 -8 32 -35l7 -12q4 -8 4 -16v-4q-1 -14 -2 -44t-2 -44q-2 -42 -29 -105q-7 -18 -24 -51t-19 -37q-20 -43 -82 -117q-9 -11 -31 -26 q-7 -3 -44 -23.5t-58 -29.5q-19 -13 -41 -3q-7 1 -31 11q-18 7 -23.5 25z" />
<glyph unicode="-" horiz-adv-x="1177" d="M106 575q0 11 15 21q53 44 112 41h70q22 -1 76.5 5.5t129 17.5t97.5 14q10 1 57 8t109 15.5t117 13.5q40 6 80 0q59 -6 94 -56q21 -30 6 -67l-14 -21q-20 -30 -49 -35q-16 -2 -44.5 -6.5t-51.5 -7.5t-44 -4l-166 -12l-73 -13q-61 -6 -121 -18q-97 -16 -148 -20 q-33 -2 -43 -4t-25.5 -10t-41.5 -17q-36 -10 -71 2t-60 43q-4 4 -8 16q-11 55 -3 94z" />
<glyph unicode="." horiz-adv-x="763" d="M102 201q-5 24 21 43q35 18 47 26q29 20 74 11.5t67 -39.5l31 -41q17 -23 8 -51q-17 -61 -33 -109q-11 -41 -59 -41h-22q-4 2 -21 2q-42 1 -73.5 36.5t-28.5 74.5t-11 88z" />
<glyph unicode="/" horiz-adv-x="1148" d="M106 -260q3 7 12.5 28.5t14.5 34.5q3 7 26 62t34 84q25 68 122 252q30 63 37 90q34 117 84 192q12 17 13 23q2 23 18 63.5t18 61.5q2 9 11 33q31 68 84 239q46 145 100 244q26 46 47 94q20 42 51 57q17 7 13 29v8q28 73 88 140q17 20 59 20q15 0 25 -2q32 -3 51 -29 q17 -22 23 -32.5t9.5 -27t-5 -33t-27.5 -38.5q-22 -26 -54 -78.5t-42 -66.5q-10 -17 -29 -49.5t-29 -48.5q-21 -33 -61 -138q-82 -216 -103 -297q-25 -49 -59.5 -144t-46.5 -124q-92 -215 -109 -258q-32 -85 -69 -152q-55 -107 -93 -208l-30 -72q-2 -4 -6.5 -12.5 t-6.5 -12.5q-54 -75 -139 -26q-20 12 -30 41.5t-1 52.5z" />
<glyph unicode="0" horiz-adv-x="966" d="M104 412q-3 26 0 49q1 4 2.5 13t2.5 13q6 9 6 21q0 29 8 45q8 15 20.5 47t20.5 47q14 28 22 101q1 16 10 27.5t23.5 23t20.5 20.5q5 10 16 21l23 10q12 8 18 10q3 1 9 2t9 2q5 1 11 7.5t8 7.5q12 8 20 10q28 14 43 16q4 1 13.5 1t13.5 1q20 4 27 4q32 4 51 4q28 0 49 -8 q6 -2 18.5 -8.5t20.5 -7.5q29 -4 41 -10q11 -7 16 -15q1 -2 8.5 -4t8.5 -2q9 -4 36 -31q6 -6 18.5 -12.5t16.5 -9.5q8 -6 18.5 -20t14.5 -19q4 -4 9 -10t11 -13.5t9 -11.5q18 -23 18 -37q1 -5 4 -11t8 -13t7 -10q18 -53 24 -103q7 -41 4 -98q0 -37 -10 -49q-5 -7 -8 -21 q0 -8 -8 -24q-3 -8 -13.5 -21.5t-13.5 -19.5l-10 -19q-1 -1 -17 -12q-8 -6 -21 -21t-16 -18q-27 -26 -34 -37q-21 -32 -31 -39q-9 -6 -18 -6q-5 0 -13 -8q-7 -7 -14 -13t-19 -11.5t-16.5 -7.5t-20.5 -8t-18 -7q-25 -13 -51 -19l-51 -6q-37 -8 -109 -4q-36 0 -96 27 q-31 18 -41 26q-4 4 -15.5 12.5t-15.5 14.5q-37 53 -51 90q-8 22 -12 51q-10 40 -10 47q-2 10 -3 29.5t-2 24.5zM268 397l6 -24q1 -5 4.5 -21.5t6.5 -25.5q4 -15 12 -23q11 -17 16 -18l19 -13q12 -4 20 -4q18 -4 54 -4q5 0 20 -1.5t23 -0.5q17 0 40 19q17 9 23 10q3 1 10 2 t10 2q6 2 13 7t15.5 12.5t10.5 9.5l37 32q5 6 18 18t19 19q2 2 5.5 9t6.5 10q1 1 7 5t8 7q4 6 8 18q9 18 10 21q5 20 6 22q6 18 6 19v49q0 10 -10 45l-18 49q-11 25 -23 37q-32 41 -65 53q-26 11 -45 11q-8 1 -22.5 -2t-20.5 -3q-31 -4 -45 -10q-8 -3 -9 -6q0 -2 -1 -5 t-1 -5q-5 -14 -8 -19q-7 -24 -24 -36l-19 -13q-8 -4 -10 -4q-4 0 -4 -6q2 -11 -17 -39q-20 -25 -26 -31l-19 -12q-1 -1 -6 -3.5t-6 -4.5q-4 -22 -8 -31q-15 -29 -19 -49q-8 -28 -6 -45q1 -4 -0.5 -13.5t-1.5 -13.5z" />
<glyph unicode="1" horiz-adv-x="782" d="M109 709q-14 36 2 65q4 6 8.5 10t7.5 5.5t10 4t10 3.5q41 15 46 16q19 0 24 4q2 2 9 5t10 5q8 5 21 17t15 14q13 13 41 33q25 17 35 29l17 18q3 2 7 7.5t5 6.5q5 5 16 14t15 15q4 5 17 17t19 20q8 8 35 26q4 3 5.5 5.5t2.5 6.5t2 7q1 2 4.5 8t4.5 10q8 25 20 33 q29 19 41 21h23q3 -1 22 4q32 0 43 -9q6 -4 11 -16t10 -16l2 -2q18 -18 8 -41l-6 -31q0 -4 -4 -12q-2 -6 -2 -17q0 -12 -4 -32v-37q0 -6 -5 -31q0 -19 -2 -27q0 -1 -3.5 -11.5t-2.5 -16.5q0 -6 -1 -17.5t-1 -17.5q-1 -8 -0.5 -31t-1.5 -33q-2 -8 3 -29t-1 -28 q-1 -2 -3.5 -6.5t-2.5 -7.5l-4 -17q-2 -10 -2 -30q0 -9 -2 -28.5t-2 -29.5v-53q0 -9 -2 -27.5t-2 -27.5q-1 -8 0 -23.5t0 -23.5v-31q0 -7 4 -23q1 -7 -4 -47q0 -19 -4 -55v-25q0 -12 6 -18q5 -4 8 -10t3.5 -9.5t1.5 -12.5t1 -11q0 -4 1 -12t1 -11v-24q0 -28 -6 -49l-6 -21 q-2 -3 -7.5 -8t-7.5 -8t-8.5 -12t-12 -14t-11.5 -9q-24 -12 -39 -12q-34 0 -80 53q-18 22 -18 43q1 8 1 23.5t1 23.5v29q0 8 4 24t4 49q0 41 4 52q3 6 3.5 13.5t-0.5 17.5t-1 14q-2 39 2 110q2 18 2 109q0 9 3 26.5t3 26.5q0 17 2 25q0 4 2 12t2 12q0 19 2 27q4 16 4 24 q0 4 -1 11.5t-1 11.5q-1 5 4 25q1 5 2.5 15t2.5 15q4 16 2 23q-1 9 4 45q-7 -6 -30.5 -21.5t-33.5 -25.5q-5 -4 -13 -13.5t-13 -13.5q-2 -3 -8 -7t-7 -5l-12 -12q-6 -6 -12 -9q-4 -2 -8 -7.5t-5 -6.5q-14 -17 -26 -27q-15 -10 -31 -26q-25 -15 -29 -19q-2 -2 -9.5 -7 t-11 -7.5t-10 -6.5t-11.5 -5.5t-11.5 -2.5t-13.5 -1q-21 0 -39 6q-10 5 -21 20q-2 3 -6.5 13.5t-9.5 15.5q-15 16 -20 29z" />
<glyph unicode="2" horiz-adv-x="1036" d="M102.5 719.5q-0.5 6.5 0 11.5t2 13.5t1.5 11.5q0 28 15 41q9 9 43 22q13 5 39 23q6 5 20.5 11t20.5 11q13 16 35 25q13 6 39.5 24.5t41.5 24.5q20 10 52 18q5 1 20.5 1.5t22.5 5.5q23 9 26 10q4 1 12 2t11 2q16 6 45 6q18 -2 51 6q12 3 25 0q16 -4 22 -4q5 -1 24 -1.5 t29 -2.5l45 -12q59 -15 80 -49q10 -14 21 -41l6 -23q0 -1 10 -16q4 -16 2 -25q0 -10 4 -18q11 -26 2 -45q-3 -5 -3 -12.5t1.5 -16.5t1.5 -14q0 -17 -20 -33q-2 -3 -2 -27q-6 -18 -8 -22q-2 -7 -11 -21l-8 -8q-4 -3 -4 -10q-2 -17 -18 -49q-4 -6 -10.5 -19.5t-10.5 -19.5 q-6 -8 -14.5 -24.5t-9.5 -18.5q-9 -9 -13 -15q-2 -3 -4 -9t-4 -9l-33 -37l-28 -41q-3 -3 -15 -17t-20 -20q-19 -16 -35 -35q-32 -32 -35 -36l-28 -37q1 0 11 2t15 4q3 0 10 3.5l9 4.5q16 8 49 12l55 13q30 10 55 10q6 -1 13.5 1.5t18 8t13.5 6.5q4 2 27 2l19 6q19 7 49 -8 q20 -10 22 -12l15 -14q23 -17 10 -43q-14 -19 -19 -27q-10 -16 -14 -18q-7 -8 -26.5 -17.5t-22.5 -11.5q-5 -3 -15.5 -6t-13.5 -4q-20 -10 -24 -11q-10 -2 -64 -18q-22 -4 -31 -8q-3 -1 -26 -6q-9 0 -19.5 -2.5t-25 -8t-19.5 -6.5q-58 -17 -61 -18l-27 -6q-2 0 -20 -6 q-10 -4 -47 -9q-8 -1 -24.5 -5t-24.5 -5l-52 -6q-7 -1 -31.5 -7.5t-31 -6t-33.5 3.5q-52 13 -65 55q-11 45 -13 49q-10 20 0 39q16 29 74 53q9 3 22.5 13.5t18.5 13.5q26 11 37 20q7 6 17.5 19t15.5 18q6 5 36 35l33 37q14 21 29 31q3 2 8.5 9t7.5 9l17 17q27 22 32 30 q5 5 15.5 18t17.5 19q2 2 15 13t18 18q12 18 14 20q3 3 15 21l14 14q2 3 3.5 10.5t2.5 8.5q2 9 11.5 23.5t11.5 19.5q10 22 20 38q3 5 6 14.5t4 12.5l6 25q13 39 13 43t1 15t0.5 19t-3.5 15q-5 12 -29 28q-29 13 -102 0q-40 -5 -52 -8q-19 -5 -49 -16q-50 -17 -98 -45 q-15 -11 -41 -33l-37 -29q-17 -17 -29 -41q-11 -14 -30 -20q-51 -16 -82 0q-8 5 -18.5 19t-12.5 16q-21 21 -27 33q-3 6 -3.5 12.5z" />
<glyph unicode="3" horiz-adv-x="964" d="M102 86q-1 9 0.5 18t6 18.5t7.5 15.5t10 16.5l9 13.5q11 22 27 27q8 2 22 2h19q24 17 47 8q25 -7 41 2q10 3 20 10q4 1 10.5 5t8.5 5q8 5 24 10t21 7l51 24q7 4 22.5 10.5t22.5 10.5q10 7 23 14q3 2 10 5t10 5q21 18 41 29l43 27q14 12 31 32q5 6 18.5 14t18.5 15 q25 29 30 39q-3 1 -9.5 1t-11.5 1t-9 4q-6 2 -35 2q-14 0 -38.5 3.5l-31.5 4.5q-54 4 -78 4q-7 1 -20 2.5t-19 2.5l-30 6q-10 2 -29.5 2t-28.5 2q-19 5 -49 16q-6 1 -28 10q-3 1 -11.5 2.5t-11.5 2.5q-7 3 -16 14t-13 14q-3 3 -5.5 6.5t-5 8t-3.5 6.5q-5 20 -6 22 q-5 7 -10 43q-2 32 53 66q1 1 22 6q9 5 23 8q30 9 41 16q15 9 43.5 31t44.5 31q19 13 47 24q21 12 35 29q38 31 39 33q6 6 15.5 18.5t12.5 16.5h-6q-76 -13 -104 -21q-22 -6 -101 -35q-6 -2 -21.5 -9t-23 -9.5t-23 -5.5t-22.5 2q-54 18 -63 65q-8 30 -10 52q-3 18 18 32 q25 21 39 25q7 2 23.5 5t23.5 5l24 4t27 6l49 13q36 10 50 12l47 6q27 6 55 6q13 3 25 0q4 0 12 -1t12 -1h31l24 -6q30 -4 43 -10q47 -26 60 -62q14 -47 -14 -94q-1 -3 -6.5 -10t-6.5 -12q-2 -3 -5 -10.5t-5 -10.5t-14.5 -15.5t-16.5 -19.5q-5 -8 -35 -38q-25 -30 -30 -35 q-2 -2 -9 -7t-10 -10q-4 -6 -14 -16q-14 -11 -41 -27q-24 -15 -45 -30q-35 -18 -37 -19q21 -5 113 -14q53 -3 119 -23q34 -8 53 -18q18 -9 22 -10q13 -6 23 -9q4 -2 7 -5t6 -7t5 -6q14 -9 17 -14q18 -21 23.5 -55t-7.5 -58q-1 -3 -4 -7t-4 -7q-1 -2 -2 -6.5t-2 -6.5 q-2 -4 -9 -10.5t-10 -9.5q-4 -6 -10.5 -22t-13.5 -23q-3 -4 -11.5 -9.5t-11.5 -9.5q-8 -6 -24 -22q-30 -30 -41 -37q-4 -3 -15.5 -9.5t-17.5 -12.5q-8 -9 -39 -27l-43 -25q-7 -4 -20.5 -14t-20.5 -14q-8 -3 -20 -11.5t-17 -11.5q-9 -6 -27 -12.5t-24 -9.5q-7 -3 -22.5 -11.5 t-22.5 -11.5q-18 -7 -27 -14q-15 -10 -18 -11q-2 -1 -47 -12q-13 -6 -49 -20q-19 -5 -21 -6q-3 -1 -8.5 -6t-7.5 -7q-41 -24 -88 2q-16 9 -33 35q-19 23 -21 37z" />
<glyph unicode="4" horiz-adv-x="1042" d="M106 481q2 5 4.5 20.5t8.5 22.5q7 8 31 23l38 18q8 5 31 33q6 8 20.5 18t18.5 15q6 5 25 33q3 4 14 14t16 18q4 7 15.5 16.5t15.5 14.5l16 18l17 17q4 4 14 16.5t17 18.5q6 4 18 16l12 18q4 5 9 10.5t12 11.5t10 9l41 37q2 1 15.5 11t19.5 16t17.5 19.5t17.5 19.5 q13 16 36 32q13 13 19 17t18 8q5 4 13.5 14.5t13.5 14.5q17 12 49 8q14 -5 19 -8q1 -1 6 -5.5t10 -5.5q55 -16 63 -57q6 -21 -5 -43t-31 -35q-3 -3 -13 -8q-1 -1 -3 -1q-4 -1 -3 -5q0 -7 4 -23l10 -53q14 -84 15 -110l6 -58q6 -27 6 -53v-29q4 -16 4 -22v-4.5v-4.5v-4.5 v-4.5t1 -4t2.5 -3.5t3.5 -2.5t5 -1q1 0 15.5 -2t21.5 -4q5 -2 16.5 -10.5t18.5 -10.5q22 -8 32 -26t3 -37t-30 -31t-44 -14h-26v-25q0 -41 2 -49q1 -4 2 -13t2 -13l6 -19v-49q1 -8 6 -24t6 -25q0 -31 -2 -47q-8 -43 -63 -62q-26 -10 -50 -2q-12 4 -43 21q-10 6 -16 16 l-12 18q-9 13 -4 46q1 9 2 27t2 26q0 7 -3.5 23.5t-2.5 25.5q0 9 -11 100q0 2 -1 6l-1 3l-3 2q-2 2 -5 0l-24 -7q-9 -2 -26 -2.5t-22 -1.5q-4 0 -12.5 -2t-13.5 -2q-8 -2 -27 -2q-48 -6 -49 -6t-106 -6h-56q-22 3 -47 -4q-14 -6 -45 -10q-20 0 -37 10q-7 5 -14.5 17 t-11.5 16q-2 4 -8 8.5t-7 5.5l-10 18q-1 4 -4 12.5t-4 12.5q-8 12 -14 16q-11 15 -3 43zM367 502q11 1 31.5 0.5t37 0.5t31.5 5q9 2 26.5 2.5t22.5 1.5q16 2 47 2q4 0 20.5 3t24.5 1h6t7 -0.5t7 0t6.5 1t4.5 2.5t2 5q5 7 1.5 49.5t-3.5 49.5t-4 77q0 25 -8 35q-11 18 -11 31 q-7 -3 -11.5 -7.5t-9 -11.5t-7.5 -10q-6 -7 -17.5 -16.5t-15.5 -13.5q-41 -45 -63 -80q-5 -8 -19 -17.5t-18 -13.5t-14 -16.5t-17 -18.5q-5 -4 -15.5 -15.5t-17.5 -15.5q-11 -4 -14 -10q-2 -8 -10 -20z" />
<glyph unicode="5" horiz-adv-x="860" d="M102 717q0 4 1 13t1 13v23q0 8 3.5 25.5t3.5 25.5q0 17 12 45q1 4 1 13.5t1 13.5l6 24q3 10 10 25q1 2 4.5 8t4.5 10q16 38 20 43q25 32 27 33q18 15 45 15q12 1 41 -13q7 -3 23 -4.5t24 -5.5q6 -4 16 -14q1 -2 4 -2t6 1l4 1l54 12q5 1 45 12q9 1 28.5 2t28.5 2t26.5 1 t26.5 1q50 0 103 -16q4 -2 12 -4t12 -4q8 -3 19 -10q5 -4 12 -11.5t11 -13.5l5 -6q1 -2 6.5 -10t6.5 -13q5 -19 -15 -43q-2 -2 -6 -7.5t-6 -8.5t-6.5 -6.5t-9.5 -5.5q-6 -3 -14 -4t-19 -1.5t-16 -1.5q-18 -2 -52 -2h-57q-4 -1 -12.5 -2t-12.5 -2q-4 0 -11 -2t-11 -2 q-38 2 -96 -20l-47 -19l-10 -5t-11 -7l-12 -14q-16 -14 -43 -25q-4 -2 -6 -7.5t-2.5 -9.5t0 -12t0.5 -10q0 -29 10 -47q8 -14 31 -8q5 1 22 4t25 6q2 1 47 12q52 9 102 3q8 -1 17 -3t19 -5.5t15 -4.5q39 -15 45 -18q33 -22 37 -27q25 -25 29 -33q18 -35 18 -96 q0 -9 -2 -18.5t-6.5 -20t-7.5 -17t-9.5 -18.5t-8.5 -16q-7 -14 -16.5 -27t-22.5 -29t-19 -24q-4 -7 -16.5 -17.5t-16.5 -15.5q-4 -4 -12.5 -16t-13.5 -16q-10 -7 -25 -15q-6 -4 -14 -16q-7 -6 -22 -14t-19 -11q-97 -77 -176 -43q-17 5 -37 25q-2 3 -13 16t-14 21 q-16 32 -14 49q0 36 4 45q13 50 59 53q3 0 12 0.5t14 0.5t12 -1.5t12 -5.5l9.5 -9.5t12 -10.5t10.5 -5q12 -2 29 21q11 16 29 25q29 8 45 24q25 30 28 33q10 11 23 47q1 3 4 9t4 9q0 6 -10 11q-7 2 -16 2.5t-15.5 0.5t-18 -3t-16 -4.5t-17 -5.5t-15.5 -5q-24 -6 -27 -6 q-4 -1 -12.5 -2t-12.5 -2q-40 -11 -45 -12h-55q-36 5 -43 10q-13 8 -39 29q-6 5 -26 35q-3 4 -9.5 12t-10.5 14.5t-7 13.5q-1 3 -4.5 20.5t-7.5 25.5q-11 22 -11 53z" />
<glyph unicode="6" horiz-adv-x="827" d="M102 322q-1 5 0.5 12t1.5 10q0 41 2 49q6 34 41 90q14 16 17 47q1 5 5.5 22t4.5 26q-2 21 8 49q3 7 8.5 22.5t8.5 22.5q1 2 7 21.5t11 27.5q1 3 23 41q2 3 11 17t11 22q9 20 29 37q13 13 33 41q4 5 10 11t14 13.5t12 11.5q13 13 41 33q2 1 6 4.5t7 5.5t6 3q15 5 18 8 q1 1 6.5 8.5t10.5 9.5l18 10q22 8 49 15q24 5 29 4l24 -6q23 -10 41 -25q17 -14 31 -39q13 -19 6 -43q-6 -21 -23 -37t-38 -20q-5 -2 -22 -2t-25 -4q-3 -1 -41 -23q-14 -10 -35 -35q-4 -5 -16.5 -16t-16.5 -18q-23 -32 -28 -41q-2 -5 -10.5 -16.5t-10.5 -18.5q-1 -3 -20 -47 q-9 -21 -15 -45q58 11 127 -9q10 -2 29.5 -9t26.5 -9q20 -5 49 -23q4 -2 14.5 -7t18 -10t12.5 -11q6 -5 11 -12.5t10.5 -16.5t8.5 -14q17 -17 21 -27q3 -4 5 -8t4 -8.5t3 -7.5q8 -11 10 -21q2 -11 9 -18q4 -2 4 -4q14 -16 10 -48q-9 -53 -14 -65q-5 -19 -27 -41 q-1 -1 -25 -37q-8 -13 -19.5 -21.5t-27.5 -17t-24 -14.5q-6 -4 -45 -19q-21 -6 -47 -6q-22 0 -58 4q-16 0 -24 2q-4 1 -12.5 4.5t-12.5 4.5q-15 0 -30 7t-31.5 17.5t-26.5 14.5q-20 9 -41 30q-6 6 -8 6t-10 -4q-12 -4 -21 -4q-61 -4 -76 33q-13 36 -20 49q-4 5 -8 23 q-1 2 -1 8.5t-1 9.5q-13 19 -13 21zM342 393q4 -25 12 -35q8 -16 8 -30t23 -25q5 -2 28 -18.5t38 -18.5q31 -5 69 25q17 14 23 28q10 25 10 35q1 19 -11.5 33t-31.5 21q-7 2 -20.5 7t-20.5 7q-12 2 -41 2q-6 -2 -22 -2h-17q-3 0 -8 -2t-8 -2q-3 -1 -9 -2t-8 -2 q-10 -3 -13.5 -7t-0.5 -14z" />
<glyph unicode="7" horiz-adv-x="976" d="M104 946q-8 59 21 88q31 31 90 19l27 -6q14 -7 20 -7q19 0 47 4q8 1 23.5 6.5t23.5 6.5q4 1 11.5 1t11.5 1l20 6q8 4 27 4q4 1 11.5 4t11.5 4q3 1 21.5 6.5t27.5 6.5q6 1 22 4t25 4q8 1 21.5 8t17.5 8q21 5 22 6q6 6 17 10q6 2 14.5 2t19 -1t15.5 -1q37 -5 49 -12 q14 -7 37 -26q16 -16 22 -39q0 -15 -2 -21q0 -6 8 -14q5 -7 5 -15t-2.5 -17.5t-2.5 -14.5l-6 -45l-6 -54q-8 -37 -10 -51q-1 -10 -2 -29t-2 -28q-1 -4 -2 -12.5t-2 -12.5q-4 -8 -4 -10t1 -5.5t1 -4.5q0 -3 -2.5 -12.5t-1.5 -15t8 -7.5q3 0 10 3t10 3q8 6 23 2q49 -15 61 -28 q22 -35 18 -54q-5 -25 -40 -43q-15 -6 -29 -6q-23 0 -27 -2q-12 -2 -34 -9.5t-25 -8.5q-10 -4 -16 -19l-7 -33q-11 -63 -12 -67q-4 -22 -8 -31q-2 -4 -2 -10t1 -13t1 -10q1 -5 -4 -34v-31l6 -27v-22q0 -3 2.5 -11t3.5 -10v-24q-1 -5 -1.5 -17t-1.5 -20t-5 -15t-13.5 -20 t-11.5 -16q-27 -34 -71.5 -35t-75.5 28q-8 7 -23 41q-10 23 -10 43q0 9 4.5 24.5t5.5 20.5q1 12 11 50q6 24 6 53q1 4 1 11t1 11q0 4 2 11.5t2 11.5q1 4 1 13.5t1 13.5q4 16 4 24q4 34 8 51l-37 -12q-13 -7 -34 -10q-7 -2 -17 -11l-10 -10q-11 -11 -31 -14q-5 -2 -11.5 -2 t-14 1t-11.5 1q-19 -3 -39 4q-28 11 -45 53q-2 6 -3 19.5t-3 19.5q-4 20 -2 31q3 26 29 45q19 16 51 20q30 0 39 3q17 3 35 10q10 3 28 10.5t23 9.5q6 2 22.5 5.5t24.5 5.5q6 1 15 4l12 4q1 1 4.5 1.5t6 1.5t3.5 3q4 16 8 22t4 19q3 23 13 51q4 16 4 51v25t4 30q6 16 -2 48 q0 6 -12 6h-15q-8 2 -24 -2q-5 -1 -21.5 -4.5t-25.5 -6.5q-6 -3 -14 -5t-18.5 -4t-15.5 -3q-34 -13 -47 -16q-17 -4 -51 -8l-20 -5t-25 -4q-6 0 -43 -16q-7 -3 -41 -20q-14 -2 -15.5 -3t-13.5 4.5t-14 6.5q-27 8 -37 20q-18 18 -24 39q-5 11 -2 25q1 3 -0.5 6.5t-3.5 7.5z " />
<glyph unicode="8" horiz-adv-x="894" d="M106 752q3 11 17 49q10 20 12 22q4 6 4 21q6 21 21 39q2 2 14.5 13.5t18.5 18.5q6 5 14 18.5t14 18.5q19 23 37 33q7 3 22.5 8t22.5 8q33 15 51 13q16 -2 49 -2q18 -2 54 -2q13 0 49 -9q10 -3 28.5 -5.5t24.5 -4.5q28 -8 43 -18q8 -5 22 -16.5t19 -14.5q23 -15 37 -27 q24 -29 27 -36q4 -6 5 -13t1.5 -16.5t1.5 -13.5q0 -5 5.5 -12t6.5 -9q6 -12 6 -22q2 -8 2 -27q0 -3 -2 -10t-2 -11q-1 -23 -15.5 -45t-33.5 -34q-5 -9 -33 -37q-11 -11 -39 -31q-8 -5 -24.5 -17.5t-30 -21.5t-27.5 -14q3 0 11 1t12 1q6 0 18 -4l41 -6q21 0 39 -9l17 -6 q3 -1 9 -2t9 -2q23 -6 61 -39q42 -32 37 -59q-1 -8 5 -24t6 -23q3 -21 -11 -45q-2 -4 -10 -18t-14 -21q-6 -8 -18 -20.5t-15 -16.5q-26 -30 -35 -43q-19 -23 -33 -31q-8 -6 -20 -17.5t-16 -15.5q-12 -9 -21 -18q-12 -8 -20 -10q-64 -33 -97 -45q-43 -16 -51 -17h-51 q-1 0 -49 6q-27 3 -47 17q-60 29 -80 59q-11 16 -23 43q-1 2 -8.5 17.5t-9.5 23.5q-6 16 -6 51q-2 21 4 47q3 8 4 26t4 26l6 22q1 3 2 11t2 12q7 18 29.5 44.5t26.5 33.5q5 5 10 15t0 13q-6 4 -20.5 9.5t-20.5 9.5q-8 6 -20.5 18t-16.5 16q-2 3 -7 7.5t-7 7.5q-9 9 -15 18 q-17 23 -22 45q-2 8 -4 24t-4 23q-10 30 -3 52zM283 707q1 -2 12 -19q4 -8 8 -12q3 -2 14 -4.5t15 -5.5l10 -7h10q15 5 19 5q20 3 41 12q51 21 75 37q4 2 31 24q19 11 27 25l10 22q1 2 4 5.5t4 5.5t1 8.5t1 9.5v12q-2 4 -16 11q-9 9 -12 10l-39 12l-25 6q-4 0 -5 -0.5t-3 -3 t-4 -4.5q-3 -4 -17 -8q-4 -1 -10 -10q-3 -5 -7.5 -8.5t-11.5 -6t-11 -3.5t-13.5 -3t-11.5 -2q20 -20 20 -39q0 -12 -18 -35q-5 -5 -14.5 -10.5t-12.5 -7.5t-8.5 -9t-11.5 -9q-25 -11 -51 2zM332 279q0 -15 2 -17q3 -3 6 -9.5t4 -8.5q2 -7 14 -15q10 -12 35 -12q33 2 84 35 q7 5 32 28.5t42 30.5q8 5 18.5 18t12.5 15q22 27 24 31q1 5 -2 9.5t-7 6.5t-11 4.5t-8 3.5q-19 5 -43 2q-18 -2 -54 -3t-53 -3h-22l-21 -6q-20 -3 -27 -18q-10 -14 -16 -25q-1 -3 -2 -9t-2 -9z" />
<glyph unicode="9" horiz-adv-x="888" d="M102 776q7 29 15 47q3 19 16 39l19 17q9 3 14 10q7 12 35 20q4 2 11 8.5t11 8.5q7 4 21 8q8 3 25 6t22 4q49 13 108 10q27 0 50 -10q2 -1 7.5 -6t8.5 -6q2 -1 9.5 -1t10.5 -1q9 -2 23.5 -10.5t21.5 -10.5q7 -3 22.5 -5t22.5 -5q13 -3 46 -22q16 -9 36 -29q9 -9 20.5 -16 t30 -15t25.5 -12q18 -10 33.5 -30.5t15.5 -39.5q0 -10 2 -14q2 -8 2 -27l-6 -26v-23q0 -6 -4 -18q-2 -4 -7.5 -9t-6.5 -8q-8 -15 -12 -51q-10 -98 -9 -119v-30q0 -5 -2 -14.5t-2 -14.5q0 -10 3.5 -29.5t4.5 -25.5q1 -7 -0.5 -24.5t0.5 -25.5q4 -14 0 -47q-3 -52 5 -98 q4 -25 -5 -45q-7 -17 -28 -31q-12 -10 -45 -14q-15 -3 -41 6q-6 4 -12.5 9t-13.5 12t-11 10q-23 28 -25 33q-8 16 -8 47q-3 28 2 49q4 7 0 22q0 17 2 25q-6 14 -6 47q0 9 -1 29t-1 30v54q-29 -17 -49 -19q-22 -6 -51 -2q-20 4 -29 4l-20 -2q-8 -1 -15 1t-15.5 5.5t-12.5 4.5 t-23.5 5.5t-26.5 6.5t-20 7.5t-23 12.5q-5 4 -18 16.5t-21 18.5q-7 5 -18 16t-16 15q-24 28 -29 41t-23 39q-4 7 -7.5 15.5t-7 19.5t-5.5 16l-12 49q0 5 -4 13.5t-5 11.5q-2 8 -2 22q-4 31 -2 45zM285 730.5q4 -21.5 4 -25.5q0 -17 2 -25q0 -3 6 -21q18 -56 53 -73 q52 -27 94 -27q12 0 31.5 3.5t24.5 4.5q4 0 8 1.5t8 4.5t6.5 5.5t6.5 7t6 6.5q7 8 20 39q16 32 16 39q0 12 2 20q0 2 1.5 9t0.5 12q-3 22 -26 37q-4 2 -11.5 7t-11.5 7q-3 2 -10 5t-10 5q-15 12 -45 16q-7 1 -24 4.5t-27 4.5q-23 3 -50 -4q-16 -4 -26 -9q-11 0 -17 -6 q-3 -4 -15 -10t-15 -14q-6 -2 -2 -23.5z" />
<glyph unicode=":" horiz-adv-x="555" d="M198 815.5q7 19.5 23 32.5q40 17 43 18q23 10 47 13q40 10 61.5 3.5t51.5 -48.5q3 -5 49 -50l6 -14q-1 -2 -1.5 -5.5t-1 -5.5t-1.5 -3q-1 -4 -7 -13.5t-7 -15.5q-3 -6 -9 -24.5t-12 -26.5q-12 -13 -59 -51q-20 -20 -51 -13q-50 20 -60 25q-32 11 -45 51q-19 75 -26 88 q-8 20 -1 39.5zM201 201q-6 25 20 43q35 18 47 26q29 20 74.5 11.5t67.5 -39.5l30 -41q18 -24 9 -51q-17 -61 -33 -109q-11 -41 -60 -41h-22q-4 2 -21 2q-42 1 -73.5 36.5t-28.5 74.5q3 42 -10 88z" />
<glyph unicode=";" horiz-adv-x="620" d="M-101.5 -329q-5.5 18 3.5 38q18 41 47 55q45 23 80 95q49 110 57 137q10 34 23 123q4 25 32 57q22 23 50.5 24.5t50.5 -18.5q9 -8 32 -35l7 -12q4 -8 4 -16v-4q-1 -14 -2 -44t-2 -44q-2 -42 -29 -105q-7 -18 -24 -51t-19 -37q-20 -43 -82 -117q-9 -11 -31 -26 q-7 -3 -44 -23.5t-58 -29.5q-19 -13 -41 -3q-7 1 -31 11q-18 7 -23.5 25zM66 717q-6 25 20 43q35 18 47 26q29 20 74 11.5t67 -39.5l31 -41q17 -23 8 -51q-25 -87 -32 -109q-11 -41 -60 -41h-22q-4 2 -21 2q-42 1 -73.5 36.5t-28.5 74.5q3 42 -10 88z" />
<glyph unicode="=" horiz-adv-x="1921" d="M113 674q13 24 39 57q26 39 75 33q99 -10 185 10q41 8 96 8q42 0 88 9q77 11 86 12q88 16 139 20q12 2 42 2.5t46 3.5q105 17 228 17q20 0 59 2t63.5 2.5t59 -0.5t63.5 -4q38 -3 84 -25q48 -25 60 -47q5 -9 5.5 -19.5t-1 -22.5t-0.5 -19q2 -8 2 -25q0 -21 -16 -31 q-52 -42 -105 -34q-5 1 -20.5 4t-22.5 6q-88 38 -207 24q-6 -2 -18 -2q-58 0 -166.5 -10t-138.5 -12q-59 -14 -238 -27q-18 -2 -52 -5t-52 -5q-15 -3 -49.5 -10.5t-53.5 -10.5q-35 -6 -63 -28q-14 -17 -27 -25q-12 -6 -22 -6q-107 -3 -166 84q-24 35 -2 74zM326 289 q0 11 14 20q53 44 113 41h69q22 -1 76.5 5.5t129 17.5t97.5 14q10 1 57 8t109 15.5t117 13.5q40 6 80 0q60 -6 94 -55q21 -30 6 -68l-14 -20q-20 -30 -49 -35q-9 -1 -60.5 -9.5t-79.5 -9.5l-165 -12l-74 -12q-50 -5 -121 -19q-98 -16 -147 -20q-26 -1 -38.5 -3.5t-17 -5 t-19 -9t-36.5 -13.5q-36 -10 -71 2t-60 43q-4 4 -8 17q-10 52 -2 94z" />
<glyph unicode="A" d="M111 92q6 16 6 29v6q0 48 28 149l7 23q7 25 59 162q31 73 61 166q5 16 16.5 44t14.5 36q16 38 96 251l19 58l24 69q5 12 9 52v14q0 38 38 59q25 17 58 17q25 0 41 -8q10 -4 47 -27q30 -24 33 -55q2 -34 28 -95l2 -8q9 -20 25.5 -59.5t31 -72.5t29.5 -62q15 -27 15 -54 q3 -30 12 -45q23 -37 33 -67q7 -26 14 -39t12 -41q0 -31 17 -55q4 -4 4 -9q6 -30 18 -57l13 -35l14 -47q0 -6 4 -14q7 -21 10 -39q36 -125 41 -170q0 -12 10 -27q13 -26 13 -51q-7 -27 -8 -29q-21 -37 -58 -47q-8 -4 -22 -4q-23 0 -43 17q-33 33 -39 63q-3 12 -7 25t-9.5 29 t-8.5 24q-21 66 -26 92q-2 12 -10 36t-9 26q-4 8 -8 24q-2 2 -4 2h-2q-81 -31 -234 -43q-12 0 -20 -2h-2q-117 -6 -121 -6q-43 0 -70 -47q-7 -15 -19 -68t-13 -78l2 -6q2 -7 6 -37v-2q0 -6 1 -18t1 -18q-3 -27 -25 -46q-24 -18 -55 -18q-15 0 -21 2l-8 2q-55 20 -69 43 q-10 16 -10 39q0 21 8 47zM399 479q0 -2 2 -4q20 -4 31 -4t43 4h14q4 0 12.5 -1t12.5 -1q36 0 74 6q50 4 76 4h2q10 0 30 4q10 5 15 5q6 3 6 14t-6 26l-13 29q-23 45 -34 84q-29 97 -56 150q-2 4 -14 34q-1 2 -2 7.5t-2 7.5q-5 10 -8 22l-19 49l-2 3q-6 -8 -26 -58l-7 -20 q-19 -63 -49 -142q-5 -15 -35 -82l-28 -69q-17 -49 -17 -68z" />
<glyph unicode="B" horiz-adv-x="1069" d="M106 444q-5 11 -5 22q0 26 28 48q9 9 29 21q20 8 20 20q-4 27 -7.5 77.5t-4.5 55.5l-6 88q-4 58 -4 84q0 30 -4 92q-2 4 -2 15q-5 35 -5 43q-2 16 -1.5 34t1.5 39q1 31 22 50.5t52 19.5q13 0 19 -2q52 -10 92 -39q23 -20 55 -20q16 0 64 12q45 10 59 10q10 2 33 2 q55 0 114 -16l27 -6q28 -8 84 -27q35 -12 59 -39q9 -9 11 -14l12 -13q30 -30 30 -76q0 -16 -4 -34q-15 -63 -47 -111q-60 -85 -110 -127l-10 -10q63 -19 71 -20q41 -6 66 -31l71 -60q46 -38 46 -88v-6q0 -2 1 -6.5t1 -7.5q0 -2 1 -5t1 -5q1 -9 1 -18q0 -45 -26 -77 q-14 -20 -18 -38q-14 -50 -54 -93q-8 -8 -20 -24q-20 -25 -33 -35q-31 -30 -98 -84q-12 -10 -33 -14q-82 -29 -131 -29q-17 0 -25 2l-45 -4q-70 0 -118 57q-14 17 -23 43q-3 12 -16 15q-3 0 -9.5 1t-9.5 1h-8q-60 6 -78 63q-20 55 -20 96q-1 6 -2 20t-2 21q-3 10 -11 15 q-8 4 -12 8l-31 18q-34 25 -34 59v5q0 13 -3 22zM332 834q0 -14 4 -46q0 -16 2 -26v-4q-1 -4 -1 -11q0 -21 7 -71q8 -45 10 -74h8q21 0 39 12l7 7q37 26 65 51q32 32 68 47q9 4 18 9.5t15 10.5t15.5 13t14.5 12q13 13 25 22q8 18 43 62q12 16 18 26q13 16 -4 33 q-21 21 -39 27q-63 14 -82 14q-15 0 -35 -4q-16 -4 -24 -4q-3 0 -9.5 -1t-9.5 -1q-26 -6 -88 -25q-31 -9 -57 -45q-10 -12 -10 -34zM373 375q1 -6 2 -17t2 -16q0 -28 16 -49q5 -5 13 -17q22 -28 16 -59q-2 -7 4 -10l16 -10l19 -11q20 -8 26 -12q27 -12 35 -12q12 0 45 10 q8 4 13 4h4q68 15 118 68q23 20 50 59l12 14q27 35 27 91q0 18 -17 32q-36 26 -69 29q-75 6 -78 6q-26 0 -72 -8q-36 -8 -57 -8q-20 -2 -45 -11.5t-48 -21t-26 -12.5l-4 -8l-2 -17v-14z" />
<glyph unicode="C" horiz-adv-x="1263" d="M103 354.5q0 10.5 0.5 23t0.5 15.5q0 19 1 36.5t1 19.5v15q0 75 44 171q20 48 67 125q3 8 21 26q28 22 75 86q16 25 29 33q37 29 55.5 42.5t52.5 32t66 26.5q17 6 41 16q52 22 107 22q32 0 65 -8q32 -6 52 -6q11 0 18 2q5 1 11 1q31 0 79 -27q32 -20 32 -56 q0 -33 -28 -55q-3 -3 -11.5 -7t-11.5 -7q-10 -6 -28 -18t-23 -15q-19 -10 -35 0q-5 3 -19 14.5t-22 16.5q-32 19 -67 19q-9 0 -17 -1q-83 -11 -131 -49q-11 -9 -31.5 -23t-36.5 -26.5t-30 -24.5q-51 -44 -76 -96q-50 -102 -65 -143q-21 -57 -21 -114q0 -59 23 -118 q8 -19 33 -53q43 -55 139 -88q4 -2 16 -2h31q112 0 176 26q197 78 293 205q13 17 39 47q21 21 51 31q33 11 49 -12q5 -6 15 -21t16 -22q12 -16 12 -34q0 -16 -10 -32q-65 -104 -139 -153q-23 -15 -43 -31q-75 -57 -185 -105q-137 -59 -299 -59q-30 0 -61 2q-28 4 -51 12 q-92 39 -168 95q-31 22 -49 59q-23 43 -47 133q-3 13 -4.5 28t-1.5 25.5z" />
<glyph unicode="D" horiz-adv-x="1165" d="M102 1124q0 38 17 84q9 26 37 33q3 1 49 6q96 -8 139 -53q33 -33 92 -47l146 -37q25 -4 41 -14q19 -12 56 -27.5t46 -19.5q109 -46 164 -101q11 -11 26 -20q18 -11 35 -26.5t38.5 -39t29.5 -31.5q9 -11 16 -30q19 -55 27 -84q2 -9 2.5 -15t-2.5 -10q-4 -9 -6.5 -19.5 t-3 -18t-1.5 -21t-1 -19.5q-10 -70 -39 -114q-24 -40 -35 -62q-81 -151 -242 -288q-24 -20 -51 -39t-68 -45t-55 -35q-7 -5 -63 -27q-12 -4 -26 -4q-17 0 -36 6q-31 6 -47 35q-3 5 -15 31.5t-20 38.5q-8 9 -29.5 21.5t-27.5 17.5q-27 20 -33 51q-2 16 -12.5 56.5t-9.5 64.5 q-11 32 -16.5 92.5t-12.5 87.5q-4 13 -4 61q-4 56 -10 88q-7 21 -7 60q-2 79 -18 235q-7 68 -41 107q-12 18 -14 20q-15 24 -15 51zM348 885q0 -13 0.5 -41.5t1 -43t3.5 -35.5t9 -38q5 -80 27 -207q1 -5 1 -11.5t-0.5 -13.5t-0.5 -10q7 -69 14 -114q9 -39 21 -56 q36 -46 55 -90q4 -9 19 -15q10 -4 18 -5q4 0 8 2l25 10q83 52 121 86q69 63 133 154q49 73 76 155q9 26 9 50q0 36 -20 67q-29 52 -61 72q-67 49 -135 96q-30 23 -62 33q-84 28 -143 43q-14 4 -29.5 6t-35 3.5t-29.5 2.5q-8 0 -16.5 -7.5t-8.5 -14.5v-78z" />
<glyph unicode="E" d="M109 971q-6 13 -6 29q0 18 8 40q15 33 44 48q18 9 39 9q12 0 25 -3l49 -19q52 -24 51 -73v-11v-16q2 -12 11.5 -19t21.5 -4l35 11q87 25 109 32q37 11 59 11q23 0 27 2q32 12 67 15q19 2 42 2q19 1 41 -1q34 -2 54 -2h13h4q36 0 61 -37q20 -26 0 -49q-28 -42 -78 -51 q-4 -1 -36.5 -7.5t-49.5 -5.5q-18 0 -38.5 -2t-34 -4t-39 -8.5t-32.5 -8t-37.5 -10.5t-33.5 -10q-83 -20 -153 -81q-26 -29 -31 -62q-1 -17 0 -48.5t0 -47.5q-1 -4 -1 -9q0 -29 28 -63q6 -6 16 -6q15 -4 27 2q27 11 92 27q13 2 41 14q69 39 223 98q11 4 41 15.5t51 18 t41 11.5q28 7 70 11h4q27 0 59 -25q17 -12 20 -40v-6q0 -23 -20 -38q-32 -24 -53 -31q-18 -5 -51.5 -20.5t-36.5 -16.5q-48 -21 -57 -24q-71 -22 -252 -102q-19 -8 -56 -26t-55 -26q-39 -19 -57 -53q-10 -17 -10 -37q0 -38 32 -94q6 -6 25 -6q2 0 14 6q55 32 117 61 q17 6 47 25.5t45 26.5q151 64 223 118q9 6 39 21q14 7 27 7q26 0 43 -28q9 -9 12 -22q7 -22 -4 -33q-37 -38 -78 -72q-6 -6 -21.5 -15t-21.5 -15q-60 -58 -198 -127q-50 -27 -136 -82q-53 -31 -73 -72q-10 -21 -39 -35l-39 -18q-27 -11 -52 -11q-21 0 -39 8q-40 18 -55 58 q-23 55 -26 103q-2 57 -17 147q-1 3 -2 9t-2 9q-31 117 -41 205q-1 12 -4 33t-5 38.5t-3 33.5q-14 154 -14 262v80q0 64 -10 86z" />
<glyph unicode="F" horiz-adv-x="962" d="M104 936q5 34 29 74q6 11 19 18q68 45 133 45q12 0 24 -2q46 -8 97 -8q37 0 77 4q30 4 52 12q39 19 102 19q28 0 61 -4q18 -1 52 -9t43 -10q28 -7 45 -24q23 -18 23 -46q0 -23 -17 -40l-19 -19q-22 -14 -41 -12q-40 7 -96 7q-70 0 -166 -11q-20 -3 -40.5 -8.5t-53 -17 t-39.5 -13.5q-27 -9 -31 -41q-2 -10 -2 -35q4 -32 4 -47q-3 -15 -3 -36q0 -43 12 -109q3 -17 14 -39q6 -12 19.5 -17.5t25.5 -1.5q11 3 36 13t40 14q103 30 151 37q9 2 19 5t22 7t19 6q37 7 57 -10q8 -6 24 -15.5t27 -18t19 -19.5q6 -6 6 -16t-6 -15q-26 -23 -54 -31 q-141 -46 -149 -49q-152 -57 -197 -76l-16 -6q-37 -19 -37 -55q0 -72 25 -129q8 -13 22 -27q7 -7 23.5 -19.5t23.5 -19.5q12 -9 13.5 -24.5t-7.5 -30.5q-15 -25 -18 -29q-21 -25 -29 -33.5t-26 -17.5q-14 -7 -30 -7h-7q-20 2 -53 11q-27 8 -47 35q-57 88 -70 207v43 q0 37 -21 67q-23 26 -23 60q0 19 7 39q9 25 13 56t4 51t-2.5 57.5t-2.5 52.5q0 12 -2 36t-2 36q0 43 -28 79q-16 24 -29 35q-20 20 -20 53q0 9 1 19z" />
<glyph unicode="G" horiz-adv-x="1353" d="M106 467q-4 37 -4 74q0 93 27 186q4 8 4 16q11 65 43 119.5t88 124.5q48 56 119 88q17 7 52 22.5t52 22.5q53 22 121 25q16 0 56 -4q15 4 34 4t31.5 -1.5t36.5 -5.5t33 -5q72 -12 125 -62q15 -15 16 -35.5t-14 -34.5q-41 -44 -95 -44q-19 0 -40 6q-2 0 -28 8.5t-40 9.5 q-24 4 -55 4q-16 0 -34 -1q-52 -3 -85 -13q-116 -43 -166 -109q-4 -4 -11.5 -13t-11.5 -13q-16 -19 -26 -45q-8 -30 -41 -136q-9 -26 -12 -37t-3.5 -33t7.5 -40q3 -7 0 -17q-1 -8 -1 -16q0 -51 31 -129q59 -147 209 -147h6q23 2 78 10q43 7 68 14q37 11 43 14q79 44 135 80 q10 6 27 23q18 18 18 37q1 14 1 26q0 43 -11 70l-25 65q-6 14 -20 22t-29 7q-16 -2 -43 -10l-131 -49q-66 -21 -141 -70q-55 -31 -88 -39q-17 -6 -34 1t-28 22q-19 25 -39 88q-3 17 11 31q28 32 75 45q45 12 80 32q27 13 49 19q35 5 109 35q99 40 172 63q22 8 63 18t56 15 q11 3 21 3q30 0 61 -24q22 -15 16 -36q-3 -13 -3 -26q0 -30 15 -58q13 -24 21 -76q33 -167 73 -262q11 -27 21 -66q6 -28 19.5 -82t19.5 -82q7 -44 22 -73q12 -25 35 -119q4 -17 4 -33q0 -32 -18 -59q-13 -20 -31 -29q-16 -8 -31 -8q-22 0 -43 16q-29 21 -47 74 q-30 89 -61 209q-17 59 -49 141q-5 12 -18.5 16.5t-24.5 -2.5l-31 -18q-16 -13 -38 -26.5t-33.5 -19t-44.5 -21t-38 -17.5q-15 -6 -45 -16.5t-45 -16.5q-14 -6 -32.5 -11t-30 -6.5t-35 -4.5t-31.5 -4q-26 -3 -59 8q-63 19 -103 26q-90 17 -149 99q-93 122 -107 266z" />
<glyph unicode="H" horiz-adv-x="1060" d="M109 776q-6 22 -6 48q0 31 8 67q6 32 41 39q15 4 53 8q52 -3 94 -39q26 -22 20 -55q0 -5 -4 -17q-14 -32 -20.5 -93t-12.5 -79v-34l19 -140q3 -14 16 -25.5t27 -11.5q25 3 53 9q11 3 23.5 7t27 9t23.5 8q8 2 34 10.5t38.5 12t33.5 7t39 3.5q8 0 33 10q33 14 33 52v6 q-8 45 -20 139q-9 47 -9 90q0 20 2 39q0 21 -4 53q0 35 -2 53q0 56 53 95q10 8 22 8q5 0 11 -2q59 -22 101 -56q15 -9 12 -30q0 -17 -6 -35q-9 -38 -9 -98q0 -45 5 -103q3 -22 8 -46t12 -53t10 -46q4 -12 10.5 -22.5t19 -24t15.5 -17.5q19 -30 9 -49q-12 -25 -13.5 -54 t2.5 -49t13 -53q6 -22 16 -64.5t16 -62.5q1 -6 1 -11q0 -19 -13 -38q-13 -23 -45 -41q-21 -14 -43 -14q-16 0 -32 7q-40 16 -50 57q-8 31 -22 90t-19 79q-5 26 -8 33t-12 13t-17 6q-18 0 -26 -2l-112 -32t-140 -42q-19 -6 -56 -27q-29 -19 -26 -53q8 -53 14 -76 q2 -11 8.5 -31t8.5 -28q3 -9 3 -19q0 -26 -20 -55q-18 -22 -46 -26q-5 -1 -11 0q-21 0 -37 12q-88 69 -102 168q-12 106 -29 164q-1 22 -10 102q-6 51 -6 88q0 20 2 37q6 32 5.5 58.5t-5.5 45.5q-2 9 2 27q3 18 3 37q0 28 -7 57z" />
<glyph unicode="I" horiz-adv-x="481" d="M113 780q5 -27 7 -72.5t3 -56.5q12 -106 18 -209q16 -238 19 -262q4 -41 33 -127q9 -34 51 -48q18 -6 34 -6q21 0 39 11q43 23 57 73q5 19 5 37q0 29 -14 56q-2 4 -8.5 14.5t-9.5 18t-3 14.5q-2 20 -7 63.5t-7 67.5q-2 36 -4 108.5t-4 108.5q0 41 -5 54q-12 39 -12 120 q-1 12 -1 25q0 48 9 107q4 23 -10 44t-37 29q-46 15 -78 15h-8q-32 1 -56 -25q-23 -24 -22 -51q0 -39 11 -109z" />
<glyph unicode="J" horiz-adv-x="1370" d="M106 281q-4 12 -4 24q0 40 45 72q13 11 33 8t29 -16q26 -39 31 -54q19 -48 77 -92q70 -48 144 -65q14 -3 110 -29q28 -4 43 -4q79 0 113 70q19 38 29 63q3 9 8 29t8 30q7 30 7 65q0 23 -3 48q0 52 -12 145t-14 125q-1 23 -9.5 66t-9.5 47q0 6 -9.5 13.5t-16.5 7.5 q-59 -5 -70 -7q-51 -7 -174 -28q-36 -5 -80 -33q-27 -19 -58 -19q-8 0 -16 1q-10 2 -30.5 2t-30.5 2q-15 2 -39 18q-11 7 -14 21q-6 23 -6 45q0 25 8 49q7 31 32 37q46 16 68 16q24 2 70.5 8t68.5 8q12 2 42 5.5t46 5.5q26 4 132 20.5t163 26.5q21 4 35 2q11 -2 25 -2 q47 0 120 22q65 18 111 25q17 3 36 3q12 0 25 -1q40 -1 70.5 -33t28.5 -70q0 -27 -19 -38q-24 -16 -59 -37q-23 -13 -60 -13l-69 -2q-9 0 -23 0.5t-25.5 0.5t-21.5 -1q-32 -2 -46.5 -15t-14.5 -42q0 -34 4 -96q3 -46 12 -97q2 -12 6.5 -44.5t8.5 -49.5q3 -17 2.5 -47.5 t1.5 -48.5q-3 -13 -9.5 -80t-21.5 -100q-4 -12 -4 -17q-2 -29 -14.5 -59t-25 -47.5t-36.5 -48.5q-1 -1 -7.5 -8.5t-8.5 -12.5q-15 -24 -41 -45t-44 -31.5t-53 -29.5q-24 -10 -48 -10q-19 0 -38 6q-66 25 -145 35q-20 0 -33 10q-32 17 -93 41.5t-83 34.5q-89 43 -135 155 q-3 7 -19 60z" />
<glyph unicode="K" horiz-adv-x="1294" d="M102 950q-1 3 -1 7q0 13 10 26q6 7 18.5 21.5t15 18.5t12 12t11.5 9t11.5 3.5t14 0.5t18 -4.5t23 -6.5t29.5 -11q1 -1 10.5 -4.5t14.5 -7.5q22 -18 22 -37q0 -50 -2 -59q-4 -26 -4 -61q0 -58 12 -140q1 -3 4.5 -8.5t4.5 -8.5q3 -4 11 -7t11 -1q14 4 17 8q12 9 26 23 q20 26 68.5 73t68.5 74q34 40 129 105q82 50 99 59q15 10 39 17q10 1 18 1q49 0 72 -42q12 -24 12 -46q0 -33 -27 -59q-28 -31 -57 -39q-42 -14 -88 -57l-31 -31q-31 -19 -59 -44.5t-63.5 -64.5t-49.5 -53q-4 -4 -7.5 -8.5t-7.5 -10t-7 -9.5q-25 -34 -20.5 -50.5t42.5 -35.5 q13 -6 39.5 -17.5t40.5 -17.5q39 -15 76 -21q40 -5 113.5 -8.5t105.5 -7.5q30 -2 87.5 -2t86.5 -2q58 0 105 -41q10 -7 14 -21l2 -10q0 -8 -4 -16q0 -1 -1 -3.5t-1 -4.5q-34 -78 -114 -78q-13 0 -28 2q-60 6 -61 6q-54 4 -78 4h-18q-35 4 -118 10.5t-126 12.5 q-121 22 -231 55q-2 1 -8 2t-9 2q-6 1 -15 -6.5t-9 -13.5v-14.5v-15.5t0.5 -14.5t1 -15t1.5 -14.5t2.5 -15t3.5 -13.5t5 -15t7 -13.5t9 -13q4 -4 13 -22q11 -31 -1 -60.5t-44 -42.5q-7 -3 -24.5 -7t-25.5 -7q-10 -3 -19 -3q-17 0 -32 8q-23 12 -35 40q-11 19 -28 82 q-24 97 -37 172q0 2 -12 86q-19 167 -19 264q0 8 -5.5 34.5t-0.5 39.5q4 26 -4 63q-17 71 -25 121z" />
<glyph unicode="L" horiz-adv-x="985" d="M108 612.5q0 14.5 0.5 32t0.5 27.5v17q0 53 10 140q4 37 4 70q0 63 -14 113q-6 24 -6 49q0 32 10 63q9 31 36 49q21 14 45 14q7 0 13 -1q37 -4 92 -31q25 -12 37 -43t0 -55q-7 -13 -12.5 -28.5t-8.5 -26.5t-6 -30t-4 -27t-3 -30t-3 -28q-8 -106 -8 -158q-1 -15 -1 -31 q0 -46 7 -92q3 -26 6 -75t3 -64q2 -66 38 -180q3 -12 17 -19t26 -4q30 11 47 21q134 89 359 110q7 1 13 1q39 0 64 -31q13 -13 13 -32v-7q-17 -67 -72 -82q-59 -15 -141 -43q-18 -6 -66 -24.5t-74 -26.5q-39 -12 -84 -48q-2 -2 -61 -49q-42 -33 -98 -33q-24 0 -45 3 q-54 6 -62 61q-2 7 -5 21.5t-5 21.5q-27 80 -27 121v6v18q-9 25 -12.5 52t-4 67t-1.5 55q-4 64 -12 86q-4 11 -4 52q-1 14 -1 28.5z" />
<glyph unicode="M" horiz-adv-x="1521" d="M109 272q4 17 11.5 58.5t15.5 72t20 56.5q6 9 6 20q0 25 10 69q11 47 12 64q2 30 10 86t9 64q12 127 12 131q1 8 0 18t-3 22t-3 19q-2 13 -2 24q0 39 18 71q16 29 49 32q12 2 24 1q36 0 71 -13q39 -14 47 -47q6 -41 41 -66q19 -30 62 -80.5t61 -76.5q109 -168 145 -252 q5 -13 16 -31q14 -20 32 -21t32 19l102 141q36 50 54 70q82 84 190 219q30 38 73 38q13 0 27 -3l60 -19q48 -19 51 -65q1 -24 5.5 -60.5t7.5 -62.5t2 -60t-9 -63q-3 -16 0 -35q2 -21 2 -64.5t-2 -109.5q-1 -28 -1 -83.5t-1 -82.5v-14q0 -63 33 -102q10 -14 16 -31 q4 -22 4 -32q0 -63 -67 -99q-26 -14 -51 -14l-17 2q-13 0 -33 12q-54 37 -57 112q-4 56 -4 117q0 77 6 164q-4 78 -4 115q0 20 1 61t1 62l-6 61q0 6 -11.5 9.5t-17.5 0.5q-2 -2 -20 -14q-101 -88 -168 -213q-14 -31 -56 -100q-36 -49 -45 -105q-14 -78 -92 -133 q-24 -15 -49 -6q-20 8 -49 22q-30 19 -33 48q-1 14 -11.5 52t-8.5 60q0 19 -17 49q-52 106 -71 142q-6 11 -24 42.5t-26 49.5q-20 45 -63 94q-10 11 -24.5 7t-18.5 -19l-12 -68q-9 -55 -15 -104q-8 -58 -8 -88q-4 -74 -22 -119q-9 -18 -9 -51v-11q0 -55 -47 -108 q-26 -29 -69 -35q-23 -3 -44 8.5t-30 30.5q-24 49 -24 97q0 24 6 48z" />
<glyph unicode="N" horiz-adv-x="1271" d="M101 878q0 6 4 19q5 18 6 22t7 22t7 22q4 8 10 14q19 18 47.5 24.5t50.5 -2.5q7 -4 26 -13t28 -15q12 -6 17.5 -20t0.5 -25q-7 -18 -16 -78q-3 -36 22 -53q24 -18 46 -38t53.5 -51.5t42.5 -41.5q30 -30 100 -84q34 -25 90 -79.5t80 -74.5l80 -68q12 -9 33 -28.5t32 -28.5 q18 -11 31 -16q4 -3 12.5 0t10.5 8q5 30 4 35q-15 87 -15 198v37q4 56 11 94q6 42 10.5 133.5t11.5 137.5q0 1 2 18t4 25q7 15 17 22q32 21 60 21q15 0 28 -6q60 -27 80 -37q26 -16 19 -45q-9 -46 -17 -60q-14 -18 -23 -43t-11 -42t-5 -48q-8 -60 -8 -107q0 -21 2 -40 q3 -38 4.5 -107t3.5 -96q6 -70 18 -139q2 -13 15 -39q2 -3 13.5 -22.5t16.5 -30.5q7 -11 7 -21q0 -12 -9 -22q-40 -63 -74 -86q-27 -20 -55 -20q-21 0 -43 11q-43 21 -82 52q-13 9 -39.5 27.5t-38.5 27.5t-52.5 36t-59.5 46q-18 18 -54.5 47.5t-46.5 38.5q-9 8 -26.5 24 t-28.5 26t-27 23t-30 23q-18 11 -60 53q-34 36 -116 90q-1 1 -4.5 2t-4.5 2q-6 3 -16.5 -2t-11.5 -12q-11 -40 -11 -89q0 -11 2 -23v-54v-69q0 -95 29 -162q6 -15 6 -30q0 -19 -10 -38q-25 -37 -49 -47q-11 -5 -28 -5q-21 0 -50 7q-29 6 -35 35q0 19 -4 27q-13 24 -21 49 t-11 57t-3.5 49t0 59t0.5 52q0 7 3 24.5t2 26.5q-5 40 -5 108v24v40q0 57 -2 92q-1 22 -1 59v41v41q0 37 -1 60z" />
<glyph unicode="O" horiz-adv-x="1198" d="M119 582q16 84 65 180l36 64t40 75q47 92 178 191q52 41 131 47q5 1 11 1q21 0 38 -10t41 -20q40 -15 43 -59q3 -23 35 -37q150 -74 181 -90q10 -5 32 -27q4 -4 7.5 -8.5t8 -11t7.5 -9.5q43 -56 53.5 -75.5t30.5 -83.5q1 -2 4.5 -11t3.5 -14q-1 -12 0.5 -24t5.5 -26.5 t6 -21.5t9 -25t8 -22q3 -15 3 -26q0 -5 -1 -9q-13 -55 -19.5 -79.5t-22.5 -67t-36 -74.5l-43 -55q-6 -7 -22 -25t-23 -28q-63 -88 -201 -154q-80 -41 -160 -41h-4q-17 0 -61 -6h-11q-49 0 -106 16q-65 22 -133 68q-47 29 -82 98q-5 9 -13.5 29t-13.5 29q-28 51 -28 108 q0 13 -2 17q-1 6 -7 34q-6 24 -6 39q0 50 17 144zM287 492q-2 -19 -2 -37q0 -84 41 -168q51 -111 170 -123q24 -3 46 -3q98 0 171 50q18 11 34 23.5t43.5 36.5t32.5 28q44 38 60 84q10 29 37 59q14 19 14 31q-2 21 4 59q4 25 3 40q0 8 -1 14q-4 67 -8 78q-3 10 -29 63 q-6 6 -10 14q-48 86 -168 148q-47 24 -106 24q-23 0 -48 -4q-82 -12 -116 -84q-18 -44 -66 -65q-22 -11 -31 -29q-42 -66 -59 -137q-4 -15 -6 -32t-3.5 -38t-2.5 -32z" />
<glyph unicode="P" horiz-adv-x="1015" d="M104 539q0 27 2.5 83t2.5 85q0 92 10 139q5 25 5 46q0 28 -9 48q-2 6 -2.5 18.5t-1.5 16.5q-2 11 -2 21q0 38 26 69q20 25 25 35q6 8 12.5 14t16.5 9.5t14.5 5t20 3.5t18.5 3q16 -4 30 -11q26 -13 70 -13q11 0 23 1q45 5 91 5q105 0 214 -27q104 -25 196 -111 q22 -19 43 -76q4 -5 4 -13q0 -5 -2 -11q-18 -102 -57 -166q-43 -73 -127 -131q-87 -61 -156 -78q-28 -11 -49 -21q-58 -26 -100 -26q-14 0 -30 -3.5t-25 -7t-29 -12t-25 -10.5q-19 -8 -26 -33q-4 -30 -2 -43q5 -36 22 -112q1 -2 6 -17.5t6 -23.5q9 -52 41 -86q13 -13 0 -33 q-1 -1 -13 -16.5t-19 -22.5q-16 -16 -37 -25q-28 -11 -51 -11q-15 1 -26 5q-30 12 -46 49q-14 27 -25 76q-7 39 -32 215q-8 51 -8 131q0 29 1 62zM283 672q0 -25 4 -35q4 -15 16 -19q32 -12 51 -12q5 1 24 2.5t26 2.5t23.5 3.5t25.5 5t22.5 6.5t24.5 10t22 13q10 7 23 10 q98 32 157 144q8 14 8 30q0 9 -2 18q-6 26 -28 36q-48 25 -70 35q-22 12 -62 22q-29 8 -54 7q-10 0 -19 -1q-80 0 -115 -12q-58 -20 -63 -76q-2 -32 -7 -95.5t-7 -94.5z" />
<glyph unicode="Q" horiz-adv-x="1294" d="M102 360v10v8q1 7 2.5 20t1.5 18q-1 10 -1 21q0 66 30 171q35 124 107 230q62 89 82 112q30 32 100 86q65 51 152 51q19 0 38 -2q75 -8 107 -34q32 -24 47 -39q54 -58 67 -82.5t37 -106.5q15 -61 29 -100q11 -46 11 -78q0 -10 -1 -18q-2 -16 -1.5 -43t-0.5 -43 q0 -86 -32 -135q-25 -44 -33 -91q-5 -27 3 -42.5t34 -28.5q36 -19 120 -70t132 -74q22 -8 38 -34q20 -29 20 -41.5t-22 -44.5q-14 -21 -38 -21q-7 0 -15 2q-21 4 -84 23q-34 5 -65 24q-27 16 -31 17q-17 5 -37 14t-30 14.5t-36 20.5t-30 18q-20 10 -23 12q-24 9 -45 9 q-31 0 -55 -19q-16 -10 -29 -20q-96 -69 -239 -69q-13 0 -27 1q-6 0 -18 4q-98 42 -140 72q-52 41 -61 84q-12 19 -22 43t-14.5 40.5t-12.5 47.5t-11 43q-3 9 -4 20zM279 430q-1 -4 -1 -10q0 -31 21 -98q12 -40 38.5 -70.5t68.5 -65.5q1 -1 3 -1.5t3 -1t2 -1.5q19 -5 38 -5 q37 0 72 18q5 3 6.5 11t-2.5 13q-13 13 -22 25q-33 35 -39 88q-3 29 15.5 53t47.5 27q11 1 21 1q44 0 74 -14q26 -9 34 -10q11 -3 25 4t18 17q1 2 6.5 10.5t6.5 13.5q23 88 24 92q13 36 13 73t-13 73q-14 39 -16 67q-3 26 -29 84q-26 60 -50 69q-7 4 -20 4q-24 0 -67 -13 q-93 -24 -145 -117q-11 -18 -34 -48t-32 -44q-21 -25 -24 -35q-43 -108 -43 -209z" />
<glyph unicode="R" horiz-adv-x="1230" d="M102 915q3 20 13 33q26 33 53 45q23 12 41 4l84 -30q14 -5 28 -5q19 0 39 9q3 1 17 8.5t22 11.5l64 27q19 5 52 17t48 16q35 8 105 20q6 1 12 1l12 -1q28 -10 91 -27t94 -30q48 -22 75 -72q14 -24 15 -51q0 -9 -2 -17q-9 -38 -21 -75q0 -6 -2 -8q-14 -20 -36.5 -58.5 t-44 -68t-48.5 -50.5q-32 -25 -89.5 -74.5t-78.5 -66.5q-6 -6 -7 -16t5 -15q42 -22 66 -41q3 -3 59 -36l84 -50q68 -38 111 -84q42 -39 79 -53q24 -10 66 -43q20 -13 20 -42t-20 -42q-43 -31 -63 -39.5t-46.5 -2.5t-72.5 34q-70 44 -185 131q-128 99 -247 129 q-13 2 -36 10.5t-32 10.5q-27 8 -43 10q-24 3 -37.5 -9t-13.5 -36q0 -89 45 -187q2 -6 12 -22q14 -20 14 -41q0 -27 -24 -55q-13 -16 -25 -25q-26 -20 -57 -21h-3q-29 0 -54 17q-14 11 -19 20q-60 116 -65 215q-1 4 -1 13.5t-1 13.5q-7 26 -10 53.5t-4.5 67.5t-2.5 53 q-2 35 -10 131.5t-8 149.5v53v27q0 70 -13 129q-4 24 -4 34zM315 612q0 -42 13.5 -56t58.5 -19q5 -1 10 -1q20 0 49 13q116 55 197 117q93 67 121 165q2 5 2 10q0 11 -10 21q-28 31 -60 31h-16q-159 0 -297 -117q-69 -59 -69 -135q0 -9 1 -18v-11z" />
<glyph unicode="S" horiz-adv-x="1042" d="M104 901q10 62 60 82q65 29 92 31q21 2 69.5 7.5t66.5 6.5h23.5h35.5l22 -2t17.5 -1.5t11.5 -0.5q32 -1 38 1t38 -4t38 -7t37.5 -8.5t36.5 -8.5l94 -18q64 -15 123 -45q10 -5 21 -16q5 -5 10 -15q2 -14 2 -27q0 -39 -22 -63q-29 -34 -74 -49q-23 -11 -47 -11q-10 0 -21 2 q-35 7 -59 36q-28 35 -72 47q-22 7 -59 14q-60 7 -97 14q-25 6 -51 6q-51 0 -102 -24q-2 0 -6 -4q-7 -4 -10.5 -14.5t-0.5 -16.5q12 -20 21 -29q59 -67 88 -98q7 -7 27 -22q51 -26 88 -58q34 -13 89.5 -48t78.5 -46q78 -39 170 -123q14 -11 28 -33q16 -19 23 -47 q3 -13 3 -27.5t-1.5 -25t-6 -26.5t-7.5 -23.5l-10 -25t-9 -23.5q-7 -17 -29 -35q-31 -27 -102 -82q-41 -36 -98 -55q-53 -21 -58 -25q-20 -14 -62.5 -23t-59.5 -18q-20 0 -58 -1t-57 -1q-44 0 -111 27q-28 8 -47 37q-29 53 -29 92q-1 14 -1 27q0 54 14 85q4 8 4 17 q8 67 59 143q1 2 4 6t4.5 6.5t4 6t5 5.5t6 4t7.5 3q13 3 24 3q30 0 50 -20q12 -9 22 -26q11 -18 2 -33q-3 -4 -14 -19.5t-15.5 -26.5t-5.5 -24q-9 -19 -10 -41q0 -34 23 -75q11 -19 26 -21q20 -4 48 -4q45 0 110 12q32 13 33 13q56 6 125 75q28 26 28 56q0 26 -22 55 q-19 29 -51 45q-25 13 -80.5 47t-87.5 49q-20 9 -66 41l-67 45q-8 5 -28.5 17t-31.5 20q-114 78 -155 172q-5 9 -14.5 25t-12.5 20q-25 38 -25 88q0 15 2 31z" />
<glyph unicode="T" horiz-adv-x="1126" d="M102 1020q0 29 17 49q1 1 10.5 14t15.5 19q14 17 41 14q11 -1 40 -9.5t46 -6.5q6 1 36.5 8.5t47.5 9.5q16 3 33.5 5t38.5 4t33 3q76 6 157 21q91 17 172 17q70 0 132 -13q39 -9 71 -31q30 -25 30 -53q0 -19 -13 -39q-12 -16 -27 -22q-49 -14 -82 -14q-11 0 -20 1 q-25 5 -59 5q-26 0 -56 -3q-45 -4 -131 -8q-24 -2 -36 -19t1 -34q20 -26 28.5 -48.5t9.5 -35t-1 -40t-2 -42.5q3 -65 8 -104q26 -164 41 -226q7 -27 16 -112q6 -57 31 -119q3 -6 7 -20t7 -21q9 -23 9 -46q0 -49 -41 -99q-17 -20 -45 -23q-12 -2 -23 -2q-36 0 -62 20 q-34 26 -38 76q-3 32 -14.5 98t-14.5 101q-5 46 -22.5 132.5t-22.5 125.5q-10 62 -10 113q-1 8 -1.5 22t-1.5 25.5t-3 21.5q-10 66 -39 107q-32 41 -39 78q-3 12 -15 20t-24 6q-34 -4 -53 -8q-2 0 -25 -6.5t-35 -7.5q-29 -6 -59 6q-39 13 -51.5 30.5t-12.5 59.5z" />
<glyph unicode="U" horiz-adv-x="1052" d="M102 721v8q0 39 27 69q30 33 82 33q7 2 25 -4l30 -18q8 -5 23 -14t20 -12.5t13 -11.5t8.5 -14.5t0.5 -18t-5.5 -26t-14.5 -34.5q-5 -14 -6 -24t0.5 -23.5t1.5 -22.5q1 -12 6 -83.5t11 -108.5q4 -27 12 -56.5t19 -66.5t16 -55q9 -38 45.5 -68t75.5 -33q30 -3 51 10 q25 12 82 50q62 47 80 122q30 142 30 262v15q0 1 -3 59.5t-11 92.5q-4 14 -8 69q-1 6 -1 13q0 28 17 63q27 61 92 88q21 10 40 10q29 0 57 -22q32 -28 32 -63q0 -15 -6 -32l-18 -30q-12 -14 -15 -41q0 -11 2 -17q3 -41 3 -86.5t-1.5 -100.5t-1.5 -85q0 -82 -14 -123 q-8 -32 -8 -51q0 -82 -64 -170q-39 -53 -94 -102q-124 -106 -282 -109h-6q-93 0 -171 84q-70 70 -100 182q-30 109 -35 199q-4 35 -13 104.5t-13 104.5q-10 72 -11 88z" />
<glyph unicode="V" horiz-adv-x="1439" d="M102 807q0 12 2 18q16 49 56 76q27 21 57 6l16 -6q14 -7 36.5 -19t26.5 -13.5t18 -12t15.5 -12t13 -17t16 -23.5t20.5 -34q54 -86 139 -213q18 -26 23 -39q16 -36 38 -73t52 -81.5t45 -68.5q3 -7 14 -7.5t17 5.5q3 5 10 14.5t10 14.5q37 58 92 149l25 45q6 11 35 64.5 t45 81.5q23 44 77 106q38 38 48 63q13 32 45 64q41 38 71 88q12 20 45 53q15 13 33 13q12 0 25 -5q27 -8 51 -32q18 -18 18 -45q0 -10 -2 -21q-13 -50 -55 -98l-125 -148q-28 -32 -37 -49q-19 -36 -72.5 -125t-78.5 -139q-15 -31 -27 -47q-16 -20 -29.5 -44t-28.5 -53.5 t-24 -45.5q-9 -15 -15.5 -44t-11.5 -40q-11 -27 -11 -62q0 -8 1 -16v-25q-3 -20 -19.5 -39.5t-35.5 -23.5q-13 -2 -37 -4t-37 -4q-8 2 -25 6t-27.5 7t-24.5 10.5t-25 17.5l-31 30q-19 16 -22 45v19q2 10 2 20q0 47 -35 105q-24 43 -49 92q-9 18 -13 22q-28 40 -125 211 q-20 35 -96 148q-17 29 -55 41q-30 8 -43 31.5t-21 62.5z" />
<glyph unicode="W" horiz-adv-x="1603" d="M109 958q12 37 34 54q30 24 76 24q15 0 21 -2q14 0 32 -6q48 -22 54 -70q8 -43 8 -53q0 -14 2 -18q10 -20 22 -66q1 -9 11 -43q11 -29 16 -47l6 -24q4 -8 4 -15q8 -20 11 -26q17 -28 49 -123l18 -54l37 -104q1 -4 8.5 -25.5t11.5 -33.5q1 -1 3 -5.5t4 -6.5t6 -3q2 0 8 6 q4 4 4 11q32 93 45 172l6 32q12 49 12 83v10q0 2 3.5 12.5t7.5 25t6 25.5q8 53 22 78q5 15 5 18q10 80 51 181q2 10 10 30q16 50 43 68q24 18 76 18q12 2 39 2q1 0 6 1t10 1q25 0 43 -18q61 -58 84 -111l4 -10q33 -73 37 -96q9 -35 41 -102q19 -35 43 -105l12 -37 q8 -23 27 -61q3 -6 8 -6q4 0 6 1t2 2v1q4 12 4 22q4 22 9 31t20 59q0 7 4 19q4 13 8 35q7 37 17 61q11 24 22 68l6 24q24 80 52 162q1 4 4 15t4 18q4 13 19 23t30 10h6q35 0 64 -13q12 -7 21 -24q7 -14 7 -24q0 -5 -1 -10q-1 -3 -1 -5q-13 -34 -20 -78q-2 -13 -11 -45 q-16 -73 -41 -152q-8 -23 -28 -121l-6 -26q-5 -25 -17 -57q-35 -87 -41 -181q0 -3 -6 -90q-3 -28 -26 -45q-42 -28 -91 -43q-12 -4 -16 -4q-22 0 -41 16q-33 26 -61 68q-9 15 -15 39q-3 36 -18 70q-20 39 -55 151q-2 10 -7 24.5t-6 16.5q-3 21 -12 35q-20 34 -23 65 q-4 14 -6 19q-20 29 -34 72l-15 38l-2 5q-2 4 -5.5 11.5t-6 11.5t-5.5 10t-5.5 9t-5.5 6.5t-6.5 5t-6.5 1.5q-7 0 -18.5 -13t-12.5 -26q-4 -26 -36 -170l-13 -43q-3 -12 -14.5 -65t-17.5 -83q-15 -76 -17 -94q-8 -43 -24 -90q-15 -47 -21 -72l-18 -75q-2 -4 -2 -13 q-10 -38 -45.5 -67.5t-75.5 -34.5h-8q-13 0 -19 2l-16 6q-8 4 -13 4q-57 21 -75 78q-2 11 -11 33q-11 25 -18 59q-3 16 -12 35q0 6 -4 14l-21 52q-6 19 -20.5 59t-20.5 59q-16 50 -18 74q-21 131 -86 254l-8 14q-26 80 -82 158q-10 14 -10 30q0 13 6 27z" />
<glyph unicode="X" horiz-adv-x="1368" d="M102 776q0 13 2 19q15 44 54 67q27 17 56 17q18 0 36 -7q55 -17 90 -49q20 -18 139 -106q12 -9 39 -21q6 -3 16 0t15 9q12 12 16 18q24 27 37 51q20 32 64.5 83t56.5 67q20 27 51 32q8 2 16 2t17 -2q20 -5 51 -16q30 -15 33 -49q4 -32 -8 -49q-9 -21 -25 -37 q-25 -25 -39 -37q-47 -42 -67 -72t-43 -92q-6 -16 4 -33l11 -13q12 -12 19 -17q17 -11 56.5 -38t69.5 -45.5t61 -31.5q4 -3 15.5 -8t15.5 -8q59 -48 188 -93q7 -3 21.5 -8.5t23.5 -9t20.5 -10t20.5 -13.5q32 -25 32 -56q0 -14 -7 -30q-4 -9 -13.5 -27.5t-13.5 -27.5 q-17 -33 -57 -33q-34 0 -66 21q-39 26 -113 70q-70 44 -116 57q-29 9 -56 29q-29 20 -88.5 51.5t-85.5 48.5q-9 6 -21 2t-16 -14q-46 -79 -67 -134q-22 -55 -94 -165q-6 -10 -15 -19t-23.5 -20.5t-19.5 -16.5q-12 -12 -41 -12q-15 0 -29.5 10t-17.5 23q-2 4 -12 51 q-5 18 6 41q52 92 123 262q21 55 31 90q9 23 -13 41q-8 6 -33 25.5t-37 28t-33 23.5t-39.5 26t-37.5 20q-17 8 -49 18.5t-41 14.5q-28 9 -49 40t-21 62z" />
<glyph unicode="Y" horiz-adv-x="1286" d="M102 986v10q0 29 17 57q17 26 53 37q17 6 33 6t31 -6q46 -18 79 -54q125 -131 127 -133q35 -38 78 -72q27 -18 72 -63l39 -35q19 -14 43 -11.5t37 19.5q44 57 75 107q58 95 162 196q13 13 28.5 24t39.5 25.5t33 20.5q4 3 12 4h3q6 0 9 -2q30 -18 92 -26q6 -2 13 -11 t6 -16q0 -27 -8 -43q-20 -52 -62 -72q-29 -14 -57.5 -40t-42 -42t-43.5 -55q-41 -54 -76 -139q-19 -43 -19 -81q0 -29 11 -54q7 -14 7 -29q0 -22 -15 -45q-33 -57 -33 -122q0 -15 2 -30q2 -24 2 -58.5t-2 -80.5q0 -58 20 -94q9 -14 17 -41q6 -13 6 -27q0 -20 -14 -39 q-27 -51 -97 -71q-6 -2 -12 -2q-14 0 -29 10q-31 24 -47 51l-24 57q-12 24 -2 47q0 4 1 11t1 10q-5 33 -7 69.5t-2.5 80t-1.5 69.5q0 30 -12 96q-10 64 -51 97q-27 24 -88 89t-100 95q-11 7 -25 25q-35 46 -109 102q-22 15 -32 27q-27 32 -74 63q-24 16 -35 27 q-25 28 -29 62z" />
<glyph unicode="Z" horiz-adv-x="1234" d="M111 496q-8 12 -7.5 24t7.5 25l20 39q11 25 41 28q49 10 94 10q41 0 80 -8q16 -4 47 -4q21 0 49 2q55 6 82 43q16 19 94 138q2 1 -0.5 6t-5.5 6q-7 7 -16 4q-72 -4 -121 -16t-252 -41q-6 -1 -11 -1q-49 0 -91 56q-12 16 -12 39q0 9 2 20q13 42 41 68q10 10 22 10h96 q94 3 185 21q155 32 180 34q18 2 50 13t42 14q8 3 34.5 13.5t41.5 13.5q22 5 42 5q47 0 81 -28q4 -3 11.5 -9t13.5 -11t10 -9q14 -14 8 -30q-12 -31 -23 -47q-16 -26 -55 -70q-34 -38 -111 -145q-6 -7 -10 -25q-2 -3 -0.5 -9t4.5 -7q6 -5 19.5 -12.5t17.5 -10.5 q24 -14 35 -49q4 -13 -4 -25q-35 -47 -90 -65q-25 -9 -113 -47q-66 -33 -119 -127l-4 -8q-13 -34 0.5 -54t50.5 -22q8 -1 32.5 -1.5t37.5 -2.5q12 -2 24 -2q27 0 52 10q26 10 59 14q84 6 154 35q38 12 85 13q9 0 19 -1q35 -3 66 -32t37 -64v-7q0 -28 -23 -48 q-21 -21 -61 -49q-15 -9 -33 -9q-18 -1 -53.5 -2t-53.5 -2q-42 -4 -129.5 -14t-132.5 -14q-40 -4 -61 -4q-6 0 -39.5 -2t-46 -3t-38 -3.5t-45.5 -6t-40 -8.5q-16 -4 -30 -4q-56 0 -89 68q-8 14 -12 32q-4 16 2 25q12 23 37.5 87.5t46.5 96.5l6 17q6 15 6 27q0 33 -49 38 q-5 1 -35 -4q-27 -5 -33 -4q-13 2 -31 3.5t-24 2.5t-15 4t-14.5 11t-12.5 19t-19 32z" />
<glyph unicode="\" horiz-adv-x="1150" d="M104.5 1404.5q3.5 16.5 9.5 27t23 32.5q19 26 51 29q10 2 25 2q42 0 59 -20q60 -67 88 -140v-8q-4 -22 13 -29q31 -15 51 -57q21 -48 47 -94q54 -99 100 -244q53 -171 84 -239q9 -24 11 -33q2 -21 18 -61.5t18 -63.5q1 -6 13 -23q50 -75 84 -192q7 -27 37 -90 q97 -184 122 -252q11 -29 34 -84t26 -62q5 -13 14.5 -35.5t11.5 -27.5q9 -23 -0.5 -52.5t-29.5 -41.5q-86 -50 -140 26l-12 25q-5 13 -15.5 36.5t-15.5 35.5q-40 108 -92 208q-37 67 -69 152q-16 43 -109 258q-12 29 -46.5 124t-59.5 144q-21 81 -103 297q-40 105 -61 138 q-10 16 -29 48.5t-29 49.5q-10 14 -42 66.5t-54 78.5q-19 22 -27.5 38.5t-5 33z" />
<glyph unicode="_" horiz-adv-x="1740" d="M208.5 -186.5q-10.5 35.5 3 74t50.5 57.5q10 6 35 10q31 5 78 -6q58 -15 139 -12q90 2 270 22q18 3 54.5 6t65.5 7.5t54 11.5q28 0 79.5 3t94 3t80.5 -6q10 -2 33 -2q20 4 27 4q31 3 122.5 -8t118.5 -23q18 -5 80 -37q13 -7 27 -22q28 -36 12.5 -74.5t-49.5 -46.5 q-79 -16 -121 0q-172 20 -262 22h-41q-33 4 -45 4.5t-47 -2.5t-49 -4q-56 -2 -111.5 -7t-144 -16t-111.5 -14q-117 -13 -209 -16q-42 -3 -94 -16q-35 -12 -67 10q-5 4 -35 24q-27 18 -37.5 53.5z" />
<glyph unicode="`" horiz-adv-x="790" d="M102 1479q0 28 6.5 40.5t22.5 18.5q32 12 51 6q54 -13 76 -20q27 -9 39 -21q8 -8 19 -15.5t19 -11t23 -10.5t21 -10q137 -59 209 -108q20 -16 63 -27q22 -6 31.5 -27t1.5 -45q-8 -21 -33 -39q-14 -7 -24 -4q-132 16 -234 70q-35 21 -145 57q-12 5 -37.5 7t-30.5 3 q-23 8 -30 17q-44 58 -48 119z" />
<glyph unicode="a" horiz-adv-x="1030" d="M111 25q-8 30 -7.5 60.5t7.5 61.5q5 15 30 119q6 30 6 35v10q0 73 43 129q7 9 11 33q23 112 88 256q32 69 55 148q29 93 29 137q0 40 22 65q18 21 40 21h5q8 -1 32.5 -8.5t37.5 -6.5q55 0 82 -55q18 -35 65 -82q37 -33 54 -67q9 -18 27.5 -53.5t29.5 -57.5t24.5 -53.5 t22.5 -59.5q13 -44 66 -180q12 -40 10 -61q-1 -12 -1 -25q0 -44 13 -96q17 -64 21 -158q3 -18 3 -37q0 -37 -12 -73q-15 -47 -63 -56q-23 -3 -41 9q-25 22 -37 38q-22 25 -22 50q0 11 4 22q5 17 5 41q0 18 -3 39q-19 109 -29 135q-3 11 -14 17.5t-21 3.5q-44 -9 -84 -21 q-80 -26 -237 -61q-26 -4 -35 -8q-33 -10 -43 -39q-12 -38 -12 -68q0 -25 8 -45q6 -12 6 -16q4 -22 0 -33q-3 -11 -11.5 -30.5t-11.5 -27.5q-10 -41 -61 -55q-14 -4 -25 -4q-34 0 -49 35q-20 38 -28 72zM379 472q1 -4 5 -12q6 -10 13 -11q20 -5 52 -9q6 -1 11 -1q26 0 48 12 q20 10 78 14q23 0 69 8q17 5 27 21q7 11 7 22q0 5 -1 10q-36 149 -145 297l-6 6q-6 5 -15 5h-6q-13 -2 -16 -11q-26 -67 -45 -125l-68 -188q-8 -28 -8 -38z" />
<glyph unicode="b" horiz-adv-x="1132" d="M121 913q-18 22 -17.5 49t17.5 58q3 5 10 14.5t10 14.5q7 7 20.5 22.5t20.5 22.5q20 24 56 24h8q2 0 7.5 -1t8.5 -1q26 -8 57 -8q34 0 74 10q84 20 184 20q37 0 76 -3q113 -8 221 -80q36 -28 52 -60q18 -31 18 -64q0 -22 -8 -44q-17 -40 -24.5 -56t-25 -45.5t-36.5 -50.5 q-5 -7 -19 -30q-3 -3 0 -12.5t7 -10.5q9 -4 28.5 -11.5t28.5 -11.5q85 -30 123 -92q10 -13 10 -24q2 -18 2 -35q0 -55 -24 -100q-13 -23 -52 -82q-21 -28 -41 -45q-102 -90 -153 -131q-40 -34 -92 -68l-105 -66l-8 -4q-124 -54 -217 -54q-11 0 -21 1q-23 3 -38 18 q-20 20 -15 39q14 39 21 50q9 15 24 24l21 10.5l23 11.5t20.5 8.5t23.5 6.5q92 25 195 100q32 24 88 72q34 26 94 78q30 27 49 51q12 12 19 29q4 12 4 22q0 26 -31 33q-9 2 -19 3t-22.5 1.5t-19.5 1.5q-24 0 -48 -2.5t-62 -9.5t-48 -8q-8 -1 -39 -17q-14 -8 -172 -88 q-33 -18 -33 -51v-6v-53q-6 -53 -53 -86q-19 -13 -43 -13t-39 13q-26 26 -47 53q-12 16 -12 31v6q0 36 -21 78q-7 19 -14 32q-8 20 -8 38q0 25 16 46q29 36 33 107l12 200v9q0 35 -20 65q-8 9 -19.5 27t-15.5 24zM334 645q0 -12 11.5 -21.5t25.5 -9.5q19 2 39.5 8t46.5 16.5 t39 14.5q38 12 84 43q26 17 51 41t54 57t44 48q21 21 31 63q1 3 1 5q0 7 -4 16q-5 12 -14 18q-32 16 -38 17q-22 3 -62.5 8t-60.5 8q-125 -22 -138 -25q-18 -2 -49 -14q-42 -16 -45 -59v-19q2 -20 2 -41q0 -53 -14 -114q-4 -18 -4 -60z" />
<glyph unicode="c" horiz-adv-x="1187" d="M106 377q3 21 8.5 62t8.5 61q5 47 31 100q9 20 59 117q6 12 14 20q104 100 154 146q48 37 72 49q12 6 57 29t74 36.5t59 24.5q49 18 86 18q13 0 25 -2q6 -1 18 0q6 0 11 0.5t8 -0.5q35 0 57 -24q20 -22 20 -56v-6t-1 -8.5t-1 -7.5q0 -49 -57 -82q-2 -1 -27 -6 q-10 0 -16 2q-21 6 -42 6q-50 0 -101 -31q-17 -11 -67 -39.5t-77 -46.5q-14 -9 -28.5 -22t-22.5 -22t-25 -28.5t-22 -25.5q-68 -77 -86 -180q-12 -77 -12 -133v-15q0 -70 73 -112q11 -8 33 -8q6 -1 13.5 -1t17 0.5t14.5 0.5q32 -5 43 -3q21 4 33 9q146 69 281 194 q11 10 32.5 31.5l34 34t33 28.5t39.5 27q6 4 22 25l19 20q24 18 47 18q12 -1 23 -5q34 -14 42 -46q2 -12 2.5 -20t-2.5 -14q-2 -4 -8 -16.5t-8.5 -17.5t-8.5 -15.5t-11 -16.5t-12 -13.5t-15 -13.5q-7 -5 -29 -32q-5 -5 -24 -27.5t-29 -32.5q-85 -80 -152 -135t-141 -100 q-78 -42 -110 -56q-41 -17 -81 -17q-16 0 -32 3q-18 3 -53 6t-52 6q-86 15 -133 90q-49 80 -55 129q-3 16 -10 33q-16 38 -16 76q0 18 3 35z" />
<glyph unicode="d" horiz-adv-x="897" d="M111 928q-8 28 -8 56q0 32 10 65q10 32 45 53q18 8 31 8q6 0 12 -2q9 -3 68.5 -19t88.5 -32q17 -10 36.5 -17.5t47.5 -15.5t39 -12q30 -11 80 -37q46 -21 70 -51q15 -15 47 -39q51 -39 65 -90q2 -4 4.5 -13t4.5 -12q28 -40 36 -90q7 -40 7 -99v-28q-6 -75 -19 -117 q-5 -19 -16 -49q-9 -22 -29 -65t-29 -64q-2 -3 -5 -11t-5 -11q-16 -26 -36.5 -49t-51.5 -53t-43 -42q-26 -26 -82 -45q-15 -5 -42.5 -17.5t-39.5 -17.5q-30 -12 -60 -12q-41 0 -83 23q-37 16 -37 50v5q1 16 0 32.5t-4 35t-5 31t-6.5 34.5t-6.5 31l-31 190q-2 16 -3 48t-3 48 q-20 178 -23 209q-4 36 -4 54q0 73 -20 137zM293 850l6 -70q15 -186 29 -313q3 -33 13 -93.5t13 -78.5q6 -38 33 -62q15 -12 33 -13h3q17 0 30 11q2 2 15 16.5t21 20.5q38 23 58 76q4 8 69 170q7 18 7 33q-8 100 -19 139q-18 76 -82 119q-6 3 -21 14t-24 15q-75 42 -147 47 h-3q-13 0 -23 -9q-11 -10 -11 -22z" />
<glyph unicode="e" horiz-adv-x="1187" d="M117 416v67v36q0 130 26 212q9 27 9 41q0 26 12 88q10 58 10 66q2 39 59 84q4 4 9 4h16q72 0 107 -43q2 -2 6 -10q4 -4 11 -12t10.5 -11.5t11.5 -6.5t20 -3q9 0 25 1t24 1q84 0 139 14q20 6 93 10h20q52 0 82 9q16 4 29 4q6 0 38 -9q40 -10 50 -10q14 0 26 6q20 4 31 4 q22 0 68 -20l10 -6q8 -4 11 -18q2 -9 2 -15q0 -4 -1 -6q0 -17 -12 -41q-2 -4 -15 -14q-14 -9 -20 -9q-115 -22 -121 -24q-99 -26 -166 -31q-102 -10 -235 -45q-12 -2 -45 -10q-24 -6 -47 -6q-32 0 -54 14q-2 2 -8 2q-19 0 -26 -14q-23 -57 -25 -90q-2 -19 11.5 -37t33.5 -19 q28 -4 31 -4h10q16 2 43 7.5t37 7.5l94 14q119 18 201 18q27 0 39 -2q26 0 45 -8q34 -15 41 -35t-15 -51q-48 -63 -127 -84q-3 -1 -9.5 -2t-10.5 -2q-2 0 -12.5 -2t-16.5 -4q-27 -8 -63 -8l-60 -6q-3 -1 -9 -2.5t-9 -2.5q-70 -16 -100 -16h-5q-10 0 -40 -10q-37 -12 -44 -43 q-6 -30 15 -58l4 -2q16 -16 20 -18l60 -37q15 -10 35 -10q10 0 30.5 -1t30.5 -1q105 0 174 31l98 41l11 4l12 2q32 0 45 -35q2 -10 -4 -25q-12 -48 -21 -80q-3 -7 -20 -20q-37 -32 -113 -62l-22 -10q-79 -39 -180 -39q-41 0 -88 9q-75 13 -130 45q-60 31 -102 88 q-72 94 -96 213q-4 16 -4 47z" />
<glyph unicode="f" horiz-adv-x="952" d="M123 836q-19 37 -19 73q0 59 52 117q10 13 37 16h43l55 -6q20 -4 61 -4q65 0 117 17q88 26 215 26h45q58 -3 100 -26q12 -6 17 -19q4 -8 4 -15q0 -6 -2 -11q-3 -17 -12 -37q-5 -18 -19 -21l-35 -12q-83 -31 -131 -31h-16q-68 0 -137 -29q-20 -10 -66 -14q-27 -4 -43 -12 q-52 -25 -55 -74q-3 -29 -3 -54q0 -44 9 -75q5 -14 20.5 -25.5t30.5 -11.5q76 15 107 31q36 21 96 31l49 12q6 2 21 2q20 0 41 -6q49 -19 94 -53q14 -11 14 -37q-7 -22 -18 -25q-83 -36 -131 -47q-24 -5 -109 -39q-6 -2 -29.5 -11.5t-36.5 -12.5q-21 -7 -65 -41 q-43 -34 -43 -93q0 -86 25 -137q20 -44 22 -73v-11q0 -31 -14 -53q-16 -28 -52 -41q-20 -4 -28 -4q-32 0 -62 20q-25 20 -32 54q-21 106 -31 202q-6 57 -31 103l-6 11q-7 10 -8 16q-14 27 -14 52q0 13 4 25q10 37 10 111l-2 16q0 53 -19 105q0 2 -1 5.5t-1 4.5 q-13 35 -13 58q0 7 1 14q3 12 -6 39z" />
<glyph unicode="g" horiz-adv-x="1339" d="M104 530q0 100 38.5 190t109.5 187q33 43 108 103q25 19 56 28q71 25 116 37q22 5 48.5 5t56.5 -5q16 -2 44 -9.5t34 -8.5q16 -4 22 -8q37 -20 107 -66q18 -10 21 -35.5t-11 -40.5q-27 -31 -57 -41q-17 -4 -35 0q-39 8 -86 21q-36 12 -72 12l-178 -76q-53 -46 -109 -157 q-6 -13 -10 -28.5t-7.5 -35.5t-6.5 -31q0 -6 8 -14t14 -10q19 0 27 2q33 7 57 18q60 27 175 69.5t167 65.5q31 13 43 15q126 36 189 67q30 15 51 7q36 -16 55 8q3 5 21 14q22 13 46 13q11 0 22 -2q35 -9 57 -40q13 -15 13 -33q0 -11 -5 -24q-13 -37 -43 -55 q-62 -39 -76 -131q-9 -64 -9 -136q0 -20 1 -40q0 -10 0.5 -32t0.5 -35t-2 -31.5t-7 -33.5v-8q3 -28 3.5 -89.5t4.5 -94.5q7 -45 33 -109q3 -8 28 -43q10 -17 -2 -32q-25 -25 -39 -37q-32 -24 -60 -24q-9 0 -17 2q-35 10 -62 50q-54 82 -59 156q0 7 -1 21.5t-1 21.5v70v61 q0 4 -1 11.5t-1 13.5t2 10q7 18 7.5 38.5t-2 45t-1.5 37.5q-6 23 -6 60.5t6 88.5q4 23 4 70q0 10 -11 17.5t-20 4.5q-3 -1 -15.5 -3.5t-17.5 -6.5q-38 -19 -110.5 -44t-102.5 -38q-29 -14 -83 -34.5t-64 -24.5q-30 -15 -39 -21q-50 -43 -106 -57q-9 -3 -12 -16.5t3 -22.5 q6 -12 17 -20q23 -19 49 -37q24 -15 57 -12q73 5 144 63q5 4 20.5 19t24.5 22q15 12 37 23q20 8 43 -5q34 -21 55 -55q13 -27 -2 -51q-74 -114 -166 -150q-58 -25 -66 -28q-53 -20 -106 -20l-60 6q-83 18 -149 83q-19 19 -49 56.5t-41 50.5q-6 6 -14 22q-48 134 -48 223 q0 17 2 33z" />
<glyph unicode="h" horiz-adv-x="1259" d="M104 395q-2 12 -2 23q0 53 56 88q6 3 17 6t15 4q20 7 23 27q9 35 20 102q5 33 5 35q-5 19 -7.5 56.5t-7.5 56.5q-6 6 -5 48t1 48q-3 27 27 53q16 10 22 12q18 3 33 3q34 0 59 -15q3 -1 8.5 -4t8.5 -4q37 -25 50 -52q6 -13 6 -31q0 -19 -7 -44q-21 -81 -23 -92 q-4 -24 -4 -35q0 -30 4 -96q0 -14 11 -21.5t26 -3.5q151 43 351 82q2 1 14 4.5t18 7.5q15 10 15 21q6 27 6 59q-8 139 -17 193q-4 18 -4 55q0 33 27 55q20 16 42 16q9 0 19 -3q39 -9 74 -27q36 -16 39 -55v-43q-6 -21 -8 -48t-2 -43t2 -50t2 -44q3 -61 59 -77q27 -9 41 -15 q39 -19 39 -63q-2 -30 -13 -46t-38 -26q-1 0 -11.5 -2t-15.5 -4q-28 -9 -28 -39v-50v-50.5t4 -50t12 -48.5q1 -14 7 -70q4 -41 4 -69q0 -10 -1 -18q-5 -44 -35 -78q-27 -33 -68 -33q-17 0 -36 6q-16 3 -27 21q-28 31 -32 98v96q-2 19 -2 67q0 21 -7 72q-1 11 -2 34.5 t-2 35.5q-3 38 -41 35q-52 -6 -53 -6q-142 -30 -278 -76q-8 -3 -26 -7t-26 -7q-17 -4 -27.5 -19.5t-8.5 -32.5q4 -101 45 -149q3 -4 18 -29q9 -19 4 -38t-24 -31q-30 -20 -59 -20t-56 20q-26 17 -33 28l-15 22.5t-16 25t-12.5 23t-11.5 27.5t-6 27q-1 4 -4.5 12.5t-4.5 12.5 q-14 34 -38 45l-31 16q-46 30 -58 86z" />
<glyph unicode="i" horiz-adv-x="514" d="M102 956v-12q0 -32 13 -65q22 -50 22 -105q0 -17 -2 -35q-3 -39 4 -63q4 -21 2 -35q-4 -19 -4 -56q1 -11 1 -24v-21q0 -39 -5 -59q-2 -4 -2 -10t1 -13.5t1 -11.5q1 -13 5.5 -38t5.5 -37.5t-5 -38.5v-8q5 -16 8 -32.5t4.5 -41t2.5 -33.5q6 -66 43 -133q8 -16 16 -21 q22 -20 61 -51q18 -12 40 -12q9 0 20 2q32 8 59 35q18 16 18 37q0 6 -1 12q-7 38 -27 64q-28 32 -39 98q-12 94 -12 128v19q0 40 -4 129q-2 53 -2.5 88.5t2.5 53.5q1 15 1 29q0 23 -3 42q-4 23 -4 62q0 25 2 57q0 15 4 51q0 15 -4 43q-7 42 -41 54q-39 14 -75.5 14 t-70.5 -14q-32 -13 -35 -48z" />
<glyph unicode="j" horiz-adv-x="1114" d="M102 195q3 41 11 77q6 49 45 72q26 16 49 -4q15 -14 22 -27q6 -12 9 -24q10 -54 77 -90q12 -9 33 -9q40 3 78 9q22 4 33 12q7 5 31.5 22t35 25t26.5 23.5t26 31.5q6 10 38 58q32 50 32 108q0 9 -1 19q-1 5 -2 18t-2 19q1 8 1 18q0 56 -21 154q-15 73 -15 112v8 q0 15 -8 43q-1 4 -18 15q-4 4 -11 0q-95 -20 -135 -56q-34 -30 -80 -30q-29 0 -47 18q-6 6 -10 14q-38 59 -38 76t30 76q10 21 33 27q25 5 54 13t49 14.5t54 18.5t51 17q49 16 141 38t115 28q20 5 37 5t31 -5q14 -6 35 -2q9 2 19 2q36 0 79 -27q22 -13 23 -48q0 -33 -29 -48 q-9 -5 -33 -15l-59 -12q-30 -9 -41 -14q-50 -24 -62 -82q-5 -27 -5 -58q0 -23 3 -47q4 -33 19 -117.5t18 -131.5v-20q0 -42 -6 -111q-3 -17 -10 -35q-50 -113 -64 -135q-53 -82 -108 -125q-4 -3 -22 -16t-23.5 -17.5t-21 -15t-25 -15.5t-23 -11.5t-26.5 -10.5 q-30 -11 -82 -19q-47 -8 -74 -8h-6q-76 6 -131 47q-6 4 -17.5 13.5t-17.5 13.5q-43 30 -60 94q-4 8 -4 27z" />
<glyph unicode="k" horiz-adv-x="1153" d="M102 969q0 28 23.5 54.5t52.5 29.5q4 2 8 1.5t9 -1.5q55 -14 86 -43q32 -29 32 -70q1 -10 2 -30.5t2 -30.5q0 -37 9 -78q0 -3 6 -78q3 -35 20 -68q3 -5 14 -9t17 -3q4 2 12.5 4t12.5 4q8 5 29 18t32 20t27.5 18.5t29.5 23t25 23.5q5 6 18.5 17t18.5 17q16 22 38.5 40.5 t52.5 39.5t44 33q8 6 18.5 10t24.5 7t22 6q22 8 41 8q51 0 86 -55q12 -15 17 -29q10 -23 -0.5 -52t-32.5 -38q-35 -15 -41 -17q-66 -13 -149 -88q-23 -20 -84 -90q-5 -5 -21 -37q-2 -4 4 -16q6 -6 21 -16q43 -16 51 -17q20 -3 57.5 -12.5t69.5 -15t61 -3.5q10 0 29 -3.5 t25 -4.5q67 -8 116 -67q13 -16 13 -39q0 -28 -19 -41q-24 -20 -45 -25q-8 -2 -30.5 -6.5l-30 -6t-30 -4t-30.5 0.5q-52 0 -88 10q-22 6 -88 22t-111 28.5t-87 27.5l-60 18q-18 3 -30.5 -5t-12.5 -25q-4 -29 0 -43q2 -8 8 -37t9.5 -42t12 -34t19.5 -37q6 -12 8 -14 q20 -29 13.5 -52.5t-23.5 -38t-43 -24.5q-11 -4 -30 -4q-13 0 -29 2q-15 0 -23 12q-3 4 -13 15t-14 16t-11.5 15t-11 17.5t-7 18t-4.5 21.5q-2 16 -11 44t-12 40q-12 64 -18 121q-7 96 -41 321q-6 34 -10 96q-7 78 -33 135q-23 51 -23 95z" />
<glyph unicode="l" horiz-adv-x="1058" d="M102 436q6 47 11 135t10 127q1 9 4 37t6 43q5 22 5 51q0 13 -1 27q-2 11 -2 26q0 39 15 103q5 21 24 47q13 18 35 18q6 0 12 -1q39 -9 60 -15q38 -9 55 -41q12 -18 18 -39q16 -35 -6 -57q-32 -32 -43 -102q-10 -76 -18 -228q-2 -26 -2 -60q0 -89 12 -228q0 -11 4 -35 q3 -13 14 -22.5t23 -8.5q59 0 88 2q12 0 16 2q12 6 68.5 28.5t83.5 41.5q43 29 59 35q60 21 127 59q51 29 109 29q20 0 33 -13q36 -31 36 -54q0 -21 -28 -48q-44 -48 -94 -76q-12 -7 -37.5 -22.5t-45.5 -26.5t-40 -18q-8 -2 -70 -35q-133 -66 -203 -82q-57 -14 -110 -51 q-36 -24 -87 -24q-12 0 -24 1q-39 3 -53 37q-3 11 -11 30.5t-10 26.5q-16 60 -30 217q3 19 3 39q0 41 -12 82q-5 18 -5 32q0 6 1 11z" />
<glyph unicode="m" horiz-adv-x="1398" d="M104 164q8 34 13 147q0 48 4 142q0 29 2 34q9 27 9 69q0 31 -5 71q-4 36 -8 104q-3 25 10 51q11 28 25 38t41 7h14q51 0 104 19q17 6 36 6q22 0 46 -8q44 -16 66 -49q26 -37 33 -64q7 -20 23.5 -55t21.5 -49q42 -95 55 -138q19 -70 61 -174q2 -5 17 -30q3 -4 11.5 -5.5 t12.5 1.5q4 4 15.5 13t15.5 15q40 56 59 109l37 98q23 64 47 92q11 11 13 15q11 33 44 101t44 107q11 47 26 66q24 36 64 36q6 0 12 -1q5 0 17 -4q8 -2 22 -4.5t22.5 -4.5t18.5 -7.5t16 -14.5q43 -58 48 -104q1 -15 6 -45.5t6.5 -46.5t-0.5 -48q-1 -4 0 -9.5t3 -12.5t3 -10 q22 -112 22 -156q0 -18 3.5 -49.5t3.5 -38.5q0 -5 1 -14t1 -16.5t-2 -12.5q-3 -14 -3 -28q0 -40 21 -85q15 -32 15 -85q0 -12 -1 -25q-3 -30 -30 -39q-9 -4 -28 -13.5t-28 -13.5q-25 -11 -51 2q-63 34 -69 107q-8 84 -11 192q1 11 2 35t2 35q3 22 -2 63.5t-4 59.5 q0 7 -16 28q-1 1 -7.5 1t-9.5 -1q-17 -17 -26 -35q-7 -15 -29.5 -62t-32.5 -73q-57 -126 -67 -153q-8 -20 -17 -29q-35 -42 -69 -123q-27 -66 -113 -90q-10 -2 -20 -2q-29 0 -54 20l-9 9l-9.5 9.5t-8 9t-8.5 11t-6 11.5t-4 14q-4 21 -14 31q-45 66 -70 170q-5 22 -12.5 46.5 t-13.5 42t-18.5 45.5t-18 40.5t-20.5 44.5t-19 41q-9 14 -18 14q-11 0 -17 -6q-21 -44 -26 -74q-3 -25 -10.5 -74t-10.5 -73q-2 -16 2 -45q4 -92 8 -140v-6q0 -37 -24 -75l-31 -35q-17 -21 -49 -21q-14 0 -31 4q-14 4 -20 15q-43 58 -52 100q-4 9 -4 20q0 7 2 15z" />
<glyph unicode="n" horiz-adv-x="1167" d="M102 215q0 98 11 141q12 47 20 146q0 30 8 88q4 19 4 40q0 35 -12 72q-1 2 -2 8t-2 9q-10 19 -10 40q0 32 24 66q24 35 69 35h7q60 -3 94 -43q38 -44 93 -80q21 -13 44 -30.5t38.5 -31t42 -36.5t38.5 -33q102 -86 222 -141q12 -6 24 1t14 21q2 30 5.5 89t5.5 88v69v158 q-1 25 1.5 52t7.5 62.5t7 51.5q5 44 45 84q15 11 26 11q3 0 5 -1q29 -4 76 -23q43 -17 51 -57q2 -14 2.5 -24t-2.5 -17q-3 -11 -12.5 -30.5t-12.5 -26.5q-22 -49 -22 -101q0 -32 0.5 -94.5t0.5 -101t-1 -92.5t-4 -99v-11q0 -45 22 -79q14 -20 29 -55q7 -13 7 -27 q0 -12 -5 -24q-31 -90 -37 -144q-8 -64 -78 -98q-13 -6 -25 -6q-14 0 -26 8q-31 24 -41 45q-37 68 -37 107v5q0 43 -47 73q-9 6 -26.5 16t-26.5 16l-221 142q-21 13 -93 67q-2 1 -17.5 13t-25.5 18q-15 9 -28.5 2.5t-16.5 -25.5q-16 -98 -26 -147q-6 -34 -6 -69q0 -29 4 -60 l6 -45q1 -7 1 -13q0 -44 -34 -83q-19 -23 -53 -25t-57 20q-45 42 -48 109z" />
<glyph unicode="o" horiz-adv-x="1247" d="M102 428l7 76q0 18 6 33q75 188 161 280q91 101 224 166q30 15 59 15l35 -5l59 -18q44 -17 95 -17h9q43 0 81 -26q13 -10 29.5 -18.5t38 -17t32.5 -13.5q63 -31 119 -90q35 -38 55 -99l18 -57q14 -50 14 -74q0 -25 -24 -78q-25 -53 -49 -87.5t-61 -59.5q-10 -6 -37 -37 q-51 -62 -164 -127q-1 -1 -3 -1.5t-3 -1t-2 -1.5q-12 -5 -47.5 -24.5t-55.5 -26.5q-76 -28 -168 -47q-38 -10 -71 -10q-21 0 -41 4q-17 3 -47.5 6t-40.5 4q-138 26 -187 143q-41 103 -41 196v13zM287 338q6 -48 43 -72q34 -24 65 -24h64q38 0 67 6q107 26 189 69 q106 57 196 160q65 77 65 162q0 12 -1 25q-3 32 -27 53q-53 43 -100 53q-67 16 -121 16q-20 0 -37 -2q-92 -12 -94 -12q-36 -6 -57 -22q-24 -12 -43 -31q-31 -36 -72 -36q-6 0 -12 1q-15 0 -31 -16q-97 -125 -97 -275q0 -27 3 -55z" />
<glyph unicode="p" horiz-adv-x="808" d="M102 932v10q0 34 18 62q20 33 56 43q46 15 79 15q9 0 17 -1q10 -2 29 -2q28 4 31 4q148 0 229 -70q82 -71 117 -129q26 -40 29 -100v-10q0 -136 -125 -258q-31 -31 -62 -50q-29 -23 -63 -28q-18 -3 -55 -10.5t-56 -10.5q-17 -3 -24 -8q-25 -14 -25 -35q3 -52 5.5 -80.5 t14.5 -71t33 -75.5q21 -36 21 -100q0 -5 -6 -17q-16 -24 -49 -41q-21 -10 -41 -10q-12 0 -25 4q-43 17 -55 49q-44 111 -54 195q-10 83 -22 260q0 4 -1.5 13.5t-0.5 13.5q6 37 7.5 106t6.5 102q4 28 8 80q1 9 1 17q0 49 -21 75q-13 17 -17 58zM302 629q1 -13 5 -25 q3 -14 18 -23q9 -5 17 -5q5 0 10 2q60 26 92 49q58 38 58 96v6q-1 8 0.5 23t1.5 20q0 26 -21 47q-39 39 -82 47q-5 1 -10 1q-19 0 -37 -11q-23 -12 -30 -35q-1 -3 -3 -10t-3 -13.5t-1 -11.5l-12 -104q0 -7 -1 -24q-2 -12 -2 -22v-7z" />
<glyph unicode="q" horiz-adv-x="1357" d="M115 504q5 16 20 39q30 51 121 182q33 52 35 80q0 4 4 16q19 82 108 119q75 26 91 29q29 6 81 10q17 2 33 2q75 0 154 -33q79 -34 115 -43q52 -16 90 -51q16 -20 53 -45q28 -22 76 -74q18 -18 31 -44t18.5 -44.5t13.5 -52.5q-1 -12 -1.5 -42t-2 -46t-5.5 -40t-14 -43 t-26 -36q-7 -7 -27 -47q-5 -11 7 -23q33 -33 73 -47q28 -9 66 -43q22 -20 26 -61v-6q0 -23 -20 -41q-12 -12 -27 -21q-19 -9 -37 -9q-16 0 -30 7q-22 10 -62 30t-57 28q-3 1 -8 4t-8 4q-71 32 -87 34h-3q-22 0 -69 -22q-20 -9 -22 -10q-21 -10 -44 -18.5t-57 -18.5t-46 -14 q-4 -1 -13.5 -2t-13.5 -2q-22 -10 -50 -15.5t-45 -7t-54 -2.5t-49 -2q-15 0 -43 4q-4 1 -19.5 4.5t-23.5 3.5h-12q-40 0 -74 18q-39 20 -84 60q-60 57 -78 117q-16 58 -16 116q0 50 12 99zM287 362q3 -47 41 -65l14 -7t14.5 -7t13.5 -6t15 -6.5t14 -5.5t15 -4.5t14.5 -2.5 t16 -2t14.5 0.5t16 1.5h14q50 0 109 18q6 2 25 11q8 5 9.5 15t-5.5 13q-52 28 -70 107q0 1 -1 3.5t-1 4.5q-4 13 -4 25q0 36 35 59q4 3 15 8.5l15 7.5q31 14 60 2q4 -2 24.5 -11t28 -13l22.5 -12t25.5 -16.5t20.5 -18.5q17 -17 67 -41q12 -6 24 -6q21 0 40 16q12 9 22 22 t14 19.5t15 28t12 24.5q11 22 11 47q0 18 -5 37q-1 4 -5 16.5t-6.5 18t-7.5 14.5t-11 15q-79 70 -170 106q-29 10 -56 10q-33 0 -63 -16q-52 -25 -100 -33q-69 -10 -111 -90q-3 -7 -8.5 -21t-7.5 -20q-17 -31 -43 -41q-32 -9 -39 -18q-52 -59 -67 -91q-6 -13 -9 -26 q-7 -28 -7 -53q0 -9 1 -17z" />
<glyph unicode="r" horiz-adv-x="1183" d="M104 854q-2 12 -2 21q0 14 4 22q15 33 15 78v16v10q0 32 16 56q22 39 64 39q88 -3 114 -66q13 -29 41 -29q32 0 62 3q13 2 28 2q51 0 117 -25q42 -16 62.5 -24.5t52 -27t53.5 -40.5q40 -37 72 -111q6 -17 2 -43q-2 -20 -14 -67q-7 -17 -19 -29q-81 -85 -158 -109 q-8 -3 -16 -8q-9 -3 -10.5 -12.5t6.5 -15.5q9 -6 38.5 -28t47.5 -30t34 -18.5t38.5 -27t29.5 -21.5q11 -6 30 -18.5t22 -14.5q22 -18 26 -23q45 -58 131 -100q61 -30 86 -84q5 -8 5 -18q0 -7 -3 -15q-19 -44 -84 -55q-14 0 -26 6q-64 33 -90 51q-42 32 -109 74 q-17 10 -46.5 30.5t-41.5 28.5q-12 7 -95.5 60t-129.5 78q-22 13 -66.5 31.5t-58.5 25.5q-9 4 -20 -2.5t-13 -17.5q-3 -21 -3 -43q0 -61 26 -119q15 -45 32 -82q11 -25 -6 -49q-2 -7 -10 -15q-13 -27 -43 -24h-62q-21 0 -36 18q-5 7 -24.5 32.5t-25.5 39.5q-6 16 -7.5 49 t-2.5 39q-3 21 -10 64t-10 65q-7 45 -7 77q0 21 3 36l1 9q0 9 -1 9q-4 5 -4 37q-1 21 1 51q4 78 5 86q0 11 -11 168zM303 721v-5q0 -12 7 -24q9 -14 24 -16l100 -12q45 5 64 10q48 12 82 49q8 11 8 23q0 17 -13 32q-10 9 -33 18t-30 13q-29 17 -65 17q-22 0 -46 -7 q-88 -21 -98 -98z" />
<glyph unicode="s" horiz-adv-x="1030" d="M102 866v8q0 23 15 41q34 38 67 70q27 24 72 31q10 1 30.5 2t30.5 2q9 1 19 1q23 0 51 -5q54 -6 96 -6q35 0 62 4q22 4 50.5 3.5t61.5 -3.5q30 -3 85 -6t73 -4q20 0 35 -9q28 -14 55 -41q14 -14 21 -39q2 -7 2 -14q0 -15 -10 -27q-2 -3 -11 -11.5t-12 -14.5 q-22 -45 -79 -45q-12 0 -25 2q-16 0 -25 6q-39 21 -112 21q-12 0 -25 -1q-36 -4 -54 -2q-44 5 -68 5h-5q-25 0 -72.5 -3.5t-73.5 -3.5q-14 0 -22 -10q-8 -16 6 -33q4 -4 11 -13t11 -13q12 -9 33 -29t33 -29q6 -6 21 -16q49 -22 130.5 -76t108.5 -69q33 -18 73 -64.5 t54 -79.5q17 -37 17 -74q0 -54 -35 -110q-32 -55 -84 -88q-12 -7 -33 -23t-31 -22q-55 -37 -113 -37q-14 0 -28 2q-16 2 -154 35q-57 12 -116 74q-6 4 -15 22q-3 11 -10 36t-10 40q-4 16 -4 24v5q0 49 51 71q6 2 21 4t22 4q13 4 24 4q39 0 58 -49q2 -5 5.5 -14t5.5 -14.5 t6.5 -12.5t10.5 -12q45 -41 94 -41q29 0 60 14q54 17 78 56q16 29 4 59q-11 28 -31 41q-39 31 -71 51q-87 50 -107 60q-108 54 -227 166q-30 29 -62.5 93.5t-38.5 106.5z" />
<glyph unicode="t" horiz-adv-x="1144" d="M109 911q10 29 32 37l35 13q23 11 51 2q49 -15 108 -15q55 0 118 13q39 10 172 24q14 1 39.5 -2t37.5 -2q14 0 37.5 4.5t32.5 5.5q94 8 139 10q23 0 27 -4q8 -4 24.5 -12.5t26 -13.5t22 -14.5t21.5 -20.5q5 -7 10 -31q1 -3 1 -7q0 -8 -3 -19q-12 -49 -32 -64 q-15 -11 -44 -11q-10 0 -22 1q-3 0 -53 4q-32 4 -68 4q-38 0 -51 -31q-64 -134 -64 -257q0 -28 3 -56q6 -43 14 -129q3 -28 18 -49q2 -2 25 -37q12 -19 17.5 -31t4 -30t-15.5 -35q-7 -11 -12 -49q-3 -41 -25.5 -67.5t-64.5 -53.5q-16 -8 -43 -8q-8 0 -17 1t-20 2.5t-17 2.5 q-43 10 -43 57v27q0 4 1.5 16t0.5 18q-4 17 -4 35q0 33 13 68q6 16 6 53q0 8 -1 30t-1.5 33.5t-2 29.5t-4 33t-6.5 30q-5 18 -5 45q0 38 10 94q13 57 13 146q0 22 -1 47q0 38 -39 38h-6l-27 -6q-75 -14 -131 -14q-9 1 -27 -1.5t-24 -2.5l-80 -6h-6q-47 0 -82 47 q-24 37 -24 72q0 18 6 36z" />
<glyph unicode="u" horiz-adv-x="1040" d="M102 602q0 11 7 25q7 25 7 49q0 20 -5 37q-3 12 -3 25q0 35 21 77q12 27 38.5 37.5t49.5 5.5q27 -3 49 -16q15 -10 20.5 -14t14.5 -13.5t11 -18t2 -23t-5 -32.5q-31 -99 -31 -201q0 -42 5 -85q4 -39 20 -103q7 -26 29 -63q35 -62 97 -63q5 0 11 1q4 1 16.5 2.5t18.5 2.5 t15.5 3t17.5 5t16 8q7 4 24 9t25 9q25 12 35 25q74 84 86 160q12 73 12 131q0 33 -4 61q-2 39 -2 115q0 48 21 94q15 37 53 55q20 8 33 8q80 -10 119 -67q12 -17 12 -37q0 -4 -1 -9q-3 -25 -24 -40q-36 -29 -39 -74q0 -18 -1.5 -52.5t-1.5 -63t3 -52.5q1 -5 1 -14 q0 -18 -3 -55q-11 -101 -47 -158q-18 -62 -59 -105t-104 -79q-88 -50 -201 -66q-18 -2 -35 -2q-45 0 -86 12q-44 15 -76 43q-21 21 -33 29q-62 47 -86 139q-28 81 -32 127q-7 59 -11 211z" />
<glyph unicode="v" horiz-adv-x="1327" d="M104 870v17v18q-2 6 -2 12q0 26 27 60q1 2 4.5 6.5t5.5 7.5q5 5 15.5 8t17.5 0q46 -19 88 -38q43 -18 55 -64q6 -23 23 -47q109 -169 145 -258q7 -17 27.5 -46t24.5 -36t24 -39.5t29 -50.5q25 -49 65 -92q6 -6 16.5 -6t16.5 6q33 28 62 84q3 7 24.5 51t30.5 67 q7 15 19.5 45t21 49t21 44t24.5 45q22 42 31 73q7 22 20.5 62t24 74t16.5 65q11 50 51 100q23 26 60 35q14 3 28 3q49 0 92 -38q13 -11 13 -25v-5q-3 -43 -27 -64q-15 -13 -35 -49q-55 -125 -69 -170q-12 -35 -80 -205q-4 -10 -17.5 -44.5t-19.5 -53.5q-41 -124 -107 -209 q-10 -13 -19 -26.5t-20.5 -35t-15.5 -28.5q-8 -12 -8 -25q0 -9 -3 -18.5t-5.5 -16t-9 -15.5t-10 -13t-12.5 -14t-11 -13q-7 -8 -29 -17t-25 -11q-14 -8 -28 -8t-29 8l-33 12q-18 8 -32 29q-3 6 -10.5 18.5t-12.5 23.5t-8 21q-4 14 -11 30t-12 24.5t-18 29t-16 25.5 q-42 71 -197 342q-63 113 -143 196q-17 17 -25 27q-23 23 -23 55v8z" />
<glyph unicode="w" horiz-adv-x="1720" d="M104 952q-1 7 -1 15q0 29 20 69q9 19 32.5 26t43.5 -3q25 -12 84 -47q38 -21 39 -60q0 -10 -3 -20q-8 -29 -8 -54q0 -17 4 -32q12 -43 21 -182q1 -13 4.5 -102t11.5 -136q2 -5 13 -10q10 0 20 10q30 38 43 76q24 74 96 196q16 29 43 83.5t37 72.5q5 10 16.5 28.5 t14.5 24.5q22 39 74 39q71 -4 104 -39q8 -8 35 -26q46 -46 55 -88q21 -21 34 -49t25.5 -69.5t18.5 -56.5q10 -27 57 -192q2 -7 8 -18t7 -15q4 -7 15 -8.5t15 4.5q10 10 11 12q62 127 94 189q8 16 8 24q9 55 57 138q57 108 117 235q25 53 88 96q8 7 25 11h8q82 0 119 -62 q9 -15 9 -28q0 -11 -7 -21q-6 -9 -21 -35t-28 -42t-31 -27q-10 -7 -16 -19q-64 -103 -84 -143q-22 -45 -74 -178q-13 -31 -33 -74l-104 -240q-9 -21 -9 -43q-4 -42 -41 -114q-27 -49 -96 -56q-44 0 -67 33l-7 8q-6 8 -22 28t-26 34.5t-17 29.5q-6 14 -10 31t-7 38.5t-6 33.5 q-16 67 -59 174q-13 39 -18 67q-10 51 -50 140q-1 2 -16 22q-8 9 -24 9t-23 -9q-56 -69 -80 -102q-15 -23 -18 -41q-16 -87 -88 -209q-61 -104 -72 -131q-21 -47 -23 -57q-2 -16 -15 -42l-15 -30q-22 -55 -99 -59h-6q-43 0 -67 40q-14 19 -21 48q-20 76 -22 94 q-1 13 -11 73.5t-10 92.5q0 3 -1 8.5t-1 7.5q-21 146 -33 412q-4 75 -24 110q-13 25 -13 86z" />
<glyph unicode="x" horiz-adv-x="1198" d="M104 803q4 26 23 37q14 9 39 20q22 11 51 -2q28 -14 37 -20q54 -25 65 -78q1 -6 11 -25q6 -12 54.5 -66t61.5 -63q27 -17 50 0q37 25 53 43q49 58 104 107q18 14 25 26q14 20 33 40t32 33t40.5 35t36 28.5t43 32t38.5 28.5q16 13 37 20q22 7 40 7q25 0 46 -13 q26 -15 41 -30q23 -23 23 -50q0 -15 -7 -30q-10 -31 -12 -33q-8 -14 -27 -25q-33 -14 -49 -16q-49 -8 -90 -49q-61 -55 -121 -115q-16 -16 -42 -48t-31 -38q-29 -35 -80 -94q-7 -11 -7 -26t7 -25q5 -5 14 -16.5t14 -16.5q109 -94 187 -145q133 -88 180 -111q35 -16 66 -55 q6 -6 6 -17v-5q0 -27 -19 -60q-11 -21 -45 -25q-16 -4 -22 -4q-35 0 -70 21q-23 15 -71 44.5t-85.5 55t-68.5 51.5q-2 2 -49 37q-82 51 -134 100q-10 10 -28 21q-27 15 -49 -4q-49 -49 -66 -72q-23 -29 -70 -100q-5 -8 -12 -27.5t-12 -28.5q-9 -16 -25 -22q-21 -8 -41 -8 q-21 1 -41 11q-36 20 -49 62q-2 6 -2 19q2 7 6.5 24t7.5 26.5t8 23t11 25t14 22.5q63 98 92 127q11 11 13 14q8 11 20 28q25 33 23.5 44t-36.5 50q-7 8 -11 13q-16 18 -46 54.5t-55 66t-49 53.5q-33 35 -33 87q0 12 2 26z" />
<glyph unicode="y" horiz-adv-x="1280" d="M109 825q-7 17 -7 35q0 22 11 45q19 41 59 58q17 6 31 6q26 0 43 -19q3 -3 25.5 -27t29.5 -33t17.5 -29.5t13.5 -39.5q0 -4 6 -16q8 -11 26.5 -36.5t29 -39t27.5 -32.5t34 -33q20 -17 41 0q25 22 53 43t67.5 48.5t55.5 39.5q127 95 141 104q60 40 131 68q111 46 115 47 q7 2 16 2q12 0 27 -4l31 -17q45 -26 45 -83v-7q-6 -54 -54 -76q-16 -9 -57 -18q-114 -20 -205 -96l-55 -43q-44 -28 -86 -99q-35 -50 -35 -106q0 -12 -1 -25.5t-2.5 -29.5t-2.5 -25q-2 -20 2 -61q3 -37 27 -64q31 -33 71 -119q8 -16 8 -34q0 -15 -6 -33q-10 -20 -12 -23 q-15 -30 -45 -39q-43 -14 -94 -14q-40 3 -49 33q-8 35 -35 69q-20 27 -23 58q-1 9 -6 27.5t-6 23.5q-8 28 -8 43q4 10 0 35t-6 34t-9.5 34t-9.5 34q-6 26 -28 41l-37 27q-93 66 -133 125q-5 9 -35 39q-37 34 -58 77q-17 32 -36 50q-20 23 -43 75z" />
<glyph unicode="z" horiz-adv-x="1255" d="M102 483q0 32 23 52q55 41 104 43q32 0 70 10h4q37 7 201 26q9 1 28 2t29 2q4 1 14.5 2.5t14.5 2.5h8q44 6 74 36q25 23 74.5 71t74.5 71l13 12q52 53 65 64q19 19 25 36v5q-3 0 -8 1t-7 1q-32 4 -43 4q-23 0 -69 -4h-29q-170 -9 -287 -29q-67 -12 -123 -35q-4 0 -9 -3 t-7 -3q-12 -4 -20 -8q-21 -6 -41 -6q-45 0 -84 36q-23 23 -17 54q7 22 23 63v2q8 20 30 29q5 0 13 4q29 8 41 10q95 9 164 29q47 13 92 16q28 0 90 8q74 9 102 9q3 0 11 -1t12 -1h18q40 0 78 6q7 0 23 1t24 1q35 4 115 8h4q25 0 45 -14q1 -1 3 -1.5t3 -1t2 -1.5 q52 -31 70 -68q10 -22 10 -42q0 -9 -2 -17l-2 -7q-16 -67 -39 -98l-23 -37q-11 -25 -43 -57q-27 -26 -106 -109q-23 -23 -27 -28q-4 -2 -4 -8q0 -5 2 -7l4 -4q37 -17 54 -78v-4q4 -13 -5.5 -30.5t-23.5 -22.5q-5 -1 -15.5 -4t-15.5 -4q-77 -25 -119 -25h-18q-55 0 -94 -39 l-125 -133l-45 -51q-2 -2 -2 -4q-1 -1 -0.5 -4.5t2.5 -3.5l6 -4q3 -1 12.5 -3.5t14.5 -2.5h41q29 -2 86 -2q83 0 129 10q36 4 55 4q5 0 15 1t14 1q37 3 71 14q16 8 35 8q48 0 76 -36q2 -2 12 -17q4 -8 10 -14q19 -23 19 -50q0 -12 -4 -26q-13 -51 -62 -67q-1 0 -10.5 -3.5 t-15.5 -3.5q-36 -4 -60 -4h-2q-6 0 -19.5 1t-19.5 1h-51q-41 0 -59 -4q-27 -5 -129 -10h-45q-11 0 -15 2q-35 8 -100 8h-47q-20 0 -66 4q-40 4 -63 4h-12q-34 0 -62.5 21t-40.5 55q0 2 -1 5.5t-1 6.5v11q1 30 3 46t11.5 39.5t26.5 39.5l16 16l86 86q39 39 60 68q2 2 2 6h-8 q-16 -2 -52 -10q-52 -14 -69 -15q-9 0 -25 -8l-14 -6q-9 -5 -23 -8q-7 -5 -20 -9q-8 -4 -14 -4q-5 0 -27 9q-68 41 -68 116z" />
<glyph unicode="&#xa8;" horiz-adv-x="927" d="M102 1409q-3 25 25 39q7 4 22.5 11t22.5 11q29 19 72 8t63 -42q15 -26 27 -43q13 -23 4 -47q-20 -58 -39 -103q-15 -40 -59 -37q-6 2 -21 2q-2 1 -9.5 2t-10.5 2q-40 3 -69 39t-24 74q5 39 -4 84zM559 1425q1 1 4.5 7t5.5 10q8 8 13 18q22 34 66 43.5t75 -12.5 q36 -23 76 -35q26 -5 26 -39v-49q3 -34 -27 -67.5t-65 -36.5l-49 -7q-26 -3 -45 19q-74 79 -74 80q-28 28 -6 69z" />
<glyph unicode="&#xad;" horiz-adv-x="1177" d="M106 575q0 11 15 21q53 44 112 41h70q22 -1 76.5 5.5t129 17.5t97.5 14q10 1 57 8t109 15.5t117 13.5q40 6 80 0q59 -6 94 -56q21 -30 6 -67l-14 -21q-20 -30 -49 -35q-16 -2 -44.5 -6.5t-51.5 -7.5t-44 -4l-166 -12l-73 -13q-61 -6 -121 -18q-97 -16 -148 -20 q-33 -2 -43 -4t-25.5 -10t-41.5 -17q-36 -10 -71 2t-60 43q-4 4 -8 16q-11 55 -3 94z" />
<glyph unicode="&#xb4;" horiz-adv-x="792" d="M102 1229q-1 49 25.5 88.5t65.5 50.5q30 7 80.5 33.5t60.5 30.5q18 19 57.5 44.5t48.5 32.5q35 24 125 66q50 22 109 -2q7 -2 12 -12q8 -23 -0.5 -50t-28.5 -34q-11 -5 -21.5 -11t-21.5 -15t-17.5 -14.5t-19 -17.5t-16.5 -16q-38 -36 -96 -76q-77 -53 -150 -108 q-5 -4 -22 -16t-25 -17t-22 -13.5t-26 -14t-25 -9.5q-28 -9 -50 10q-43 30 -43 70z" />
<glyph unicode="&#xb7;" horiz-adv-x="520" d="M105.5 608.5q8.5 22.5 27.5 34.5q27 16 47 23q22 8 51 12q47 11 69.5 4.5t55.5 -53.5q7 -9 16.5 -18.5t21.5 -20.5t18 -17l6 -16q-1 -3 -2 -8.5t-2 -7.5q-2 -5 -8.5 -15.5t-8.5 -15.5t-8.5 -26.5t-13.5 -30.5q-19 -21 -66 -58q-25 -22 -57 -12q-19 7 -66 27 q-37 15 -49 57q-3 10 -8.5 31t-10.5 37t-12 30q-9 21 -0.5 43.5z" />
<glyph unicode="&#xbd;" horiz-adv-x="1787" d="M102 1182q3 30 33 47q33 10 62 10q34 0 63 -10q33 -13 39 -51q4 -21 2 -37q0 -21 -2 -29v-10v-23q-3 -41 2 -67q6 -28 2 -60q-4 -43 0 -129q2 -31 2 -94q0 -26 8 -80q0 -4 1 -11t1 -11q8 -48 29 -72q19 -23 25 -55q3 -30 -17 -47q-27 -24 -53 -29q-12 -4 -18 -4 q-22 0 -37 12q-5 4 -22 18t-27 23q-15 15 -17 19q-29 60 -35 108q-2 10 -2 29q-5 43 -8 53q-2 4 -2 12q8 18 0 54q-4 24 -4 32v8q-3 12 0 23q4 20 4 63q-3 35 2 62q2 9 -2 22q-5 24 -2 54q6 56 -16 102q-14 34 -11 68zM401 45l13 31q2 3 5 11t5 11q2 4 5 13.5t5 13.5l37 90 q24 63 74 158l24 43q27 60 29 69q25 88 68 156q0 1 1 2t1 2q1 2 2.5 4t2.5 3.5t1 2.5q2 21 14 52q14 29 17 49q0 16 8 28q31 70 65 189l2 2q31 107 80 196q12 19 37 72v2q19 39 47 51q7 0 4 13v12q26 63 72 115q18 18 55 18h6q9 0 15 -2q29 -3 47 -27q25 -28 28 -53 q3 -29 -28 -63q-22 -27 -53 -80q-5 -10 -23 -37l-27 -45q-9 -18 -18 -33q-16 -25 -47 -102v-4l-21 -52q-45 -116 -63 -186q-25 -52 -51 -127l-33 -88q-5 -11 -15.5 -34t-15.5 -34q-6 -15 -17.5 -43t-21 -51t-16.5 -43q-21 -55 -57 -123q-30 -59 -74 -166q-8 -20 -23 -51 l-2 -6q-3 -10 -10 -20q-27 -41 -70 -41q-24 0 -53 16q-20 10 -29.5 37t-1.5 49zM897 385q-11 25 0 43q21 50 59 74q27 18 35 22q76 55 123 72q20 10 35 22l4 3q28 20 78 38q10 5 22 9q10 4 31 11t31 11q59 25 143 43q6 2 20.5 5t20.5 5q28 7 47 7q38 0 68 -15q45 -18 63 -63 q14 -27 4 -56l-6 -12q-3 -10 -35 -92q-3 -6 -32 -41l-6 -6q-53 -53 -70 -82q-10 -20 -43 -43q-17 -11 -23 -27q-11 -24 -32 -49q-23 -21 -52 -53q-62 -66 -94 -98q-18 -18 -50 -53t-38 -42l-2 -4q-2 -2 -6 -10q-2 -2 -2 -4q0 -4 2 -4l2 -2q3 0 7.5 -1t6.5 -1h17q45 0 131 20 l8 2q12 3 55 17l37 12q31 8 49 10h13q24 0 43 -13.5t26 -37.5q12 -37 -8 -70q-23 -32 -41 -43q-56 -32 -96 -45q-13 -4 -40.5 -11t-41.5 -11q-26 -5 -33 -8q-74 -19 -141 -19h-2q-3 0 -10.5 1t-10.5 1q-17 0 -49 4q-46 3 -96 33q-5 3 -27 25l-6 6q-4 4 -8 12l-4 6 q-22 30 -26 54.5t3.5 40.5t26.5 42q37 53 88 103l6 6q92 92 135 141q12 16 23 27l31 37q8 7 21.5 21.5t16.5 17.5l31 30q66 70 101 107q17 19 24 41l-2 2h-12q-5 -3 -27 -8q-102 -25 -160 -64q-41 -27 -86 -49q-8 -6 -24 -14q-40 -21 -58 -51q-12 -17 -45 -41 q-22 -15 -47 -15q-21 0 -41.5 10.5t-31.5 26.5l-2 6z" />
<glyph unicode="&#xc0;" d="M111 92q6 16 6 29q-2 47 28 155l7 23q7 25 59 162q31 73 61 166q5 16 16.5 44t14.5 36q16 38 96 251l19 58l24 69q5 12 9 52v14q0 38 38 59q25 17 58 17q25 0 41 -8q10 -4 47 -27q30 -24 33 -55q2 -34 28 -95l2 -8q9 -20 25.5 -59.5t31 -72.5t29.5 -62q15 -27 15 -54 q3 -30 12 -45q23 -37 33 -67q7 -26 14 -39t12 -41q0 -31 17 -55q4 -4 4 -9q6 -30 18 -57l13 -35l14 -47q0 -6 4 -14q7 -21 10 -39q36 -125 41 -170q0 -12 10 -27q13 -26 13 -51q-7 -27 -8 -29q-21 -37 -58 -47q-8 -4 -22 -4q-23 0 -43 17q-33 33 -39 63q-3 12 -7 25t-9.5 29 t-8.5 24q-21 66 -26 92q-2 12 -10 36t-9 26q-4 8 -8 24q-2 2 -4 2h-2q-81 -31 -234 -43q-12 0 -20 -2h-2q-117 -6 -121 -6q-43 0 -70 -47q-7 -15 -19 -68t-13 -78l2 -6q2 -7 6 -37v-2q0 -6 1 -18t1 -18q-3 -27 -25 -46q-24 -18 -55 -18q-15 0 -21 2l-8 2q-55 20 -69 43 q-19 31 -2 86zM266 1561q0 28 6.5 40.5t22.5 18.5q32 12 51 6q54 -13 76 -20q27 -9 39 -21q8 -8 19 -15.5t19 -11t23 -10.5t21 -10q137 -59 209 -108q20 -16 63 -27q22 -6 31.5 -27t1.5 -45q-8 -21 -33 -39q-14 -7 -24 -4q-132 16 -234 70q-35 21 -145 57q-12 5 -37.5 7 t-30.5 3q-24 8 -31 17q-43 57 -47 119zM399 479q0 -2 2 -4q20 -4 31 -4t43 4h14q4 0 12.5 -1t12.5 -1q36 0 74 6q50 4 76 4h2q10 0 30 4q10 5 15 5q6 3 6 14t-6 26l-13 29q-23 45 -34 84q-29 97 -56 150q-2 4 -14 34q-1 2 -2 7.5t-2 7.5q-5 10 -8 22l-19 49l-2 3 q-6 -8 -26 -58l-7 -20q-19 -63 -49 -142q-5 -15 -35 -82l-28 -69q-17 -49 -17 -68z" />
<glyph unicode="&#xc1;" d="M111 92q6 16 6 29q-2 47 28 155l7 23q7 25 59 162q31 73 61 166q5 16 16.5 44t14.5 36q16 38 96 251l19 58l24 69q5 12 9 52v14q0 38 38 59q25 17 58 17q25 0 41 -8q10 -4 47 -27q30 -24 33 -55q2 -34 28 -95l2 -8q9 -20 25.5 -59.5t31 -72.5t29.5 -62q15 -27 15 -54 q3 -30 12 -45q23 -37 33 -67q7 -26 14 -39t12 -41q0 -31 17 -55q4 -4 4 -9q6 -30 18 -57l13 -35l14 -47q0 -6 4 -14q7 -21 10 -39q36 -125 41 -170q0 -12 10 -27q13 -26 13 -51q-7 -27 -8 -29q-21 -37 -58 -47q-8 -4 -22 -4q-23 0 -43 17q-33 33 -39 63q-3 12 -7 25t-9.5 29 t-8.5 24q-21 66 -26 92q-2 12 -10 36t-9 26q-4 8 -8 24q-2 2 -4 2h-2q-81 -31 -234 -43q-12 0 -20 -2h-2q-117 -6 -121 -6q-43 0 -70 -47q-7 -15 -19 -68t-13 -78l2 -6q2 -7 6 -37v-2q0 -6 1 -18t1 -18q-3 -27 -25 -46q-24 -18 -55 -18q-15 0 -21 2l-8 2q-55 20 -69 43 q-19 31 -2 86zM223 1360q-1 49 25 88.5t65 50.5q30 7 81 33.5t61 30.5q18 19 57.5 44.5t48.5 32.5q35 24 125 66q50 22 109 -2q7 -2 12 -12q8 -23 -0.5 -50t-28.5 -34q-11 -5 -21.5 -11t-21.5 -15t-17.5 -14.5t-19 -17.5t-16.5 -16q-38 -36 -96 -76q-76 -52 -150 -108 q-5 -4 -19 -13.5t-20 -14t-18.5 -12t-21 -12t-20 -10t-22.5 -8.5q-27 -9 -49 10q-43 30 -43 70zM399 479q0 -2 2 -4q20 -4 31 -4t43 4h14q4 0 12.5 -1t12.5 -1q36 0 74 6q50 4 76 4h2q10 0 30 4q10 5 15 5q6 3 6 14t-6 26l-13 29q-23 45 -34 84q-29 97 -56 150q-2 4 -14 34 q-1 2 -2 7.5t-2 7.5q-5 10 -8 22l-19 49l-2 3q-6 -8 -26 -58l-7 -20q-19 -63 -49 -142q-5 -15 -35 -82l-28 -69q-17 -49 -17 -68z" />
<glyph unicode="&#xc2;" d="M111 92q6 16 6 29q-2 47 28 155l7 23q7 25 59 162q31 73 61 166q5 16 16.5 44t14.5 36q16 38 96 251l19 58l24 69q5 12 9 52v14q0 38 38 59q25 17 58 17q25 0 41 -8q10 -4 47 -27q30 -24 33 -55q2 -34 28 -95l2 -8q9 -20 25.5 -59.5t31 -72.5t29.5 -62q15 -27 15 -54 q3 -30 12 -45q23 -37 33 -67q7 -26 14 -39t12 -41q0 -31 17 -55q4 -4 4 -9q6 -30 18 -57l13 -35l14 -47q0 -6 4 -14q7 -21 10 -39q36 -125 41 -170q0 -12 10 -27q13 -26 13 -51q-7 -27 -8 -29q-21 -37 -58 -47q-8 -4 -22 -4q-23 0 -43 17q-33 33 -39 63q-3 12 -7 25t-9.5 29 t-8.5 24q-21 66 -26 92q-2 12 -10 36t-9 26q-4 8 -8 24q-2 2 -4 2h-2q-81 -31 -234 -43q-12 0 -20 -2h-2q-117 -6 -121 -6q-43 0 -70 -47q-7 -15 -19 -68t-13 -78l2 -6q2 -7 6 -37v-2q0 -6 1 -18t1 -18q-3 -27 -25 -46q-24 -18 -55 -18q-15 0 -21 2l-8 2q-55 20 -69 43 q-19 31 -2 86zM147 1307q8 19 23 45q10 20 41 34q60 24 98 97q48 82 76 125q6 8 43 45q21 18 66 18q67 -9 98 -26q45 -25 102 -86q9 -10 25.5 -32t21.5 -28q3 -4 17.5 -24.5t25.5 -28.5q14 -11 23 -26t11.5 -24.5t8.5 -31.5q8 -34 -26 -55q-17 -12 -23 -13q-32 -20 -65 0 q-10 6 -35 21.5t-38 24.5t-30 24.5t-26 32.5q-5 9 -35 39q-9 10 -23.5 10.5t-23.5 -8.5q-6 -7 -28 -29.5t-32 -33t-24.5 -29t-24.5 -35.5q-5 -9 -15 -26t-11 -19q-16 -27 -56 -43q-35 -13 -86 -13q-24 -3 -37 13q-11 11 -38 47q-12 20 -3 35zM399 479q0 -2 2 -4q20 -4 31 -4 t43 4h14q4 0 12.5 -1t12.5 -1q36 0 74 6q50 4 76 4h2q10 0 30 4q10 5 15 5q6 3 6 14t-6 26l-13 29q-23 45 -34 84q-29 97 -56 150q-2 4 -14 34q-1 2 -2 7.5t-2 7.5q-5 10 -8 22l-19 49l-2 3q-6 -8 -26 -58l-7 -20q-19 -63 -49 -142q-5 -15 -35 -82l-28 -69q-17 -49 -17 -68z " />
<glyph unicode="&#xc4;" d="M111 92q6 16 6 29q-2 47 28 155l7 23q7 25 59 162q31 73 61 166q5 16 16.5 44t14.5 36q16 38 96 251l19 58l24 69q5 12 9 52v14q0 38 38 59q25 17 58 17q25 0 41 -8q10 -4 47 -27q30 -24 33 -55q2 -34 28 -95l2 -8q9 -20 25.5 -59.5t31 -72.5t29.5 -62q15 -27 15 -54 q3 -30 12 -45q23 -37 33 -67q7 -26 14 -39t12 -41q0 -31 17 -55q4 -4 4 -9q6 -30 18 -57l13 -35l14 -47q0 -6 4 -14q7 -21 10 -39q36 -125 41 -170q0 -12 10 -27q13 -26 13 -51q-7 -27 -8 -29q-21 -37 -58 -47q-8 -4 -22 -4q-23 0 -43 17q-33 33 -39 63q-3 12 -7 25t-9.5 29 t-8.5 24q-21 66 -26 92q-2 12 -10 36t-9 26q-4 8 -8 24q-2 2 -4 2h-2q-81 -31 -234 -43q-12 0 -20 -2h-2q-117 -6 -121 -6q-43 0 -70 -47q-7 -15 -19 -68t-13 -78l2 -6q2 -7 6 -37v-2q0 -6 1 -18t1 -18q-3 -27 -25 -46q-24 -18 -55 -18q-15 0 -21 2l-8 2q-55 20 -69 43 q-19 31 -2 86zM176 1491q-3 25 25 39q7 4 22.5 11t22.5 11q29 19 72 8t63 -42q15 -26 27 -43q13 -23 4 -48q-18 -53 -39 -102q-15 -40 -60 -37q-6 2 -20 2q-2 1 -10 2t-11 2q-40 3 -68.5 39t-23.5 74q5 39 -4 84zM399 479q0 -2 2 -4q20 -4 31 -4t43 4h14q4 0 12.5 -1 t12.5 -1q36 0 74 6q50 4 76 4h2q10 0 30 4q10 5 15 5q6 3 6 14t-6 26l-13 29q-23 45 -34 84q-29 97 -56 150q-2 4 -14 34q-1 2 -2 7.5t-2 7.5q-5 10 -8 22l-19 49l-2 3q-6 -8 -26 -58l-7 -20q-19 -63 -49 -142q-5 -15 -35 -82l-28 -69q-17 -49 -17 -68zM633 1507q1 1 4.5 7 t5.5 10q6 6 12 18q22 34 66.5 43.5t75.5 -12.5q37 -24 75 -35q27 -5 27 -39v-49q3 -34 -27 -67.5t-65 -36.5l-49 -7q-26 -3 -45 19q-74 79 -74 80q-28 28 -6 69z" />
<glyph unicode="&#xc7;" horiz-adv-x="1259" d="M103 407q1 13 5.5 32.5t4.5 23.5q2 13 4 24.5t3 18t1 10.5q7 83 69 180q29 46 82 113q14 17 27 25q44 28 84 75q19 19 35 27q109 67 184 78q30 4 43 8q93 25 172 -8q43 -15 70 -15q38 2 86 -36q28 -23 24 -58.5t-36 -52.5q-3 -2 -12.5 -5t-12.5 -5q-7 -3 -25.5 -13 t-29.5 -14q-16 -6 -33 4q-4 4 -11.5 12t-14 14.5t-11.5 10.5q-39 31 -82 31q-84 -4 -135 -31q-9 -5 -48.5 -25.5t-58.5 -33.5q-52 -34 -88 -86q-59 -82 -84 -133q-57 -111 -30 -232q4 -20 24 -55q40 -64 125 -107l19 -6q129 -18 209 0q207 54 315 162q15 17 47 41 q22 22 55 25q32 7 45 -19q6 -8 15 -25.5t10 -19.5q18 -37 -6 -66q-74 -95 -160 -135q-21 -8 -47 -24q-85 -49 -195 -78l-51 -12q0 -4 -1 -12t-1 -11q-2 -40 -24 -92q-5 -14 -39 -80q-19 -41 -72 -102q-12 -15 -29 -25l-90 -49q-22 -7 -37 -2q-4 2 -14 5t-14 5 q-15 8 -20.5 23t1.5 34q20 36 43 50q42 21 72 84q38 83 51 122l4 16t4 19q-67 3 -147 19q-31 8 -49 18q-92 55 -154 117q-28 26 -41 65q-17 48 -29 138q-2 25 -1 38z" />
<glyph unicode="&#xc8;" d="M109 971q-12 28 2 69q15 33 44 48t64 6l49 -19q57 -26 51 -84v-16q2 -12 11.5 -19t21.5 -4l35 11q87 25 109 32q37 11 59 11q23 0 27 2q32 12 67 15t83 0.5t67 -1.5q38 2 65 -37q20 -26 0 -49q-28 -42 -78 -51q-4 -1 -36.5 -7.5t-49.5 -5.5q-18 0 -38.5 -2t-34 -4 t-39 -8.5t-32.5 -8t-37.5 -10.5t-33.5 -10q-83 -20 -153 -81q-26 -29 -31 -62q-1 -17 0 -48.5t0 -47.5q-5 -32 27 -72q6 -6 16 -6q15 -4 27 2q27 11 92 27q13 2 41 14q69 39 223 98q11 4 41 15.5t51 18t41 11.5q28 7 70 11q28 2 63 -25q17 -12 20 -39.5t-20 -44.5 q-32 -24 -53 -31q-18 -5 -51.5 -20.5t-36.5 -16.5q-48 -21 -57 -24q-71 -22 -252 -102q-19 -8 -56 -26t-55 -26q-39 -19 -57 -53q-10 -17 -10 -33q-2 -39 32 -98q6 -6 25 -6q2 0 14 6q55 32 117 61q17 6 47 25.5t45 26.5q151 64 223 118q9 6 39 21q44 20 70 -21q9 -9 12 -22 q7 -22 -4 -33q-37 -38 -78 -72q-6 -6 -21.5 -15t-21.5 -15q-60 -58 -198 -127q-50 -27 -136 -82q-53 -31 -73 -72q-10 -21 -39 -35l-39 -18q-51 -21 -90.5 -3t-55.5 58q-23 55 -26 103q-2 57 -17 147q-1 3 -2 9t-2 9q-31 117 -41 205q-1 12 -4 33t-5 38.5t-3 33.5 q-14 154 -14 262v80q0 64 -10 86zM143 1479q0 28 6.5 40.5t22.5 18.5q32 12 51 6q54 -13 76 -20q27 -9 39 -21q8 -8 19 -15.5t19 -11t23 -10.5t21 -10q137 -59 209 -108q20 -16 63 -27q22 -6 31.5 -27t1.5 -45q-8 -21 -33 -39q-14 -7 -24 -4q-132 16 -234 70q-35 21 -145 57 q-12 5 -37.5 7t-30.5 3q-24 8 -31 17q-43 57 -47 119z" />
<glyph unicode="&#xc9;" d="M104 1292q-1 49 25.5 89t65.5 51q30 7 81 33t60 30q18 19 58 45.5t48 32.5q30 21 125 65q50 22 109 -2q7 -2 12 -12q8 -23 -0.5 -50t-28.5 -34q-11 -5 -21.5 -11t-21.5 -15t-17.5 -14.5t-19 -17.5t-16.5 -16q-34 -32 -96 -75t-150 -109q-5 -4 -22 -16t-25 -17t-22 -13.5 t-26 -14t-25 -9.5q-27 -9 -50 11q-43 30 -43 69zM109 971q-12 28 2 69q15 33 44 48t64 6l49 -19q57 -26 51 -84v-16q2 -12 11.5 -19t21.5 -4l35 11q87 25 109 32q37 11 59 11q23 0 27 2q32 12 67 15t83 0.5t67 -1.5q38 2 65 -37q20 -26 0 -49q-28 -42 -78 -51 q-4 -1 -36.5 -7.5t-49.5 -5.5q-18 0 -38.5 -2t-34 -4t-39 -8.5t-32.5 -8t-37.5 -10.5t-33.5 -10q-83 -20 -153 -81q-26 -29 -31 -62q-1 -17 0 -48.5t0 -47.5q-5 -32 27 -72q6 -6 16 -6q15 -4 27 2q27 11 92 27q13 2 41 14q69 39 223 98q11 4 41 15.5t51 18t41 11.5 q28 7 70 11q28 2 63 -25q17 -12 20 -39.5t-20 -44.5q-32 -24 -53 -31q-18 -5 -51.5 -20.5t-36.5 -16.5q-48 -21 -57 -24q-71 -22 -252 -102q-19 -8 -56 -26t-55 -26q-39 -19 -57 -53q-10 -17 -10 -33q-2 -39 32 -98q6 -6 25 -6q2 0 14 6q55 32 117 61q17 6 47 25.5t45 26.5 q151 64 223 118q9 6 39 21q44 20 70 -21q9 -9 12 -22q7 -22 -4 -33q-37 -38 -78 -72q-6 -6 -21.5 -15t-21.5 -15q-60 -58 -198 -127q-50 -27 -136 -82q-53 -31 -73 -72q-10 -21 -39 -35l-39 -18q-51 -21 -90.5 -3t-55.5 58q-23 55 -26 103q-2 57 -17 147q-1 3 -2 9t-2 9 q-31 117 -41 205q-1 12 -4 33t-5 38.5t-3 33.5q-14 154 -14 262v80q0 64 -10 86z" />
<glyph unicode="&#xca;" d="M35 1239l24 45q14 23 45 35q66 23 109 96q35 56 84 125q8 11 47 45q25 19 72 19q70 -8 108 -27q48 -24 113 -86q10 -10 27 -31t24 -28q5 -5 20.5 -25.5t26.5 -28.5q12 -8 20 -17t13.5 -22t7.5 -19.5t6 -23.5q11 -35 -28 -55q-14 -9 -25 -12q-36 -19 -72 0 q-12 7 -38.5 21.5t-41.5 24t-33 25t-28 31.5q-4 6 -11 13t-15.5 14.5t-12.5 11.5q-10 10 -26 10.5t-25 -8.5q-7 -7 -31 -29.5t-35 -33t-27.5 -29t-27.5 -35.5q-4 -9 -15 -24t-14 -21q-19 -28 -61 -43q-35 -12 -94 -12q-26 -3 -41 12t-43 47q-11 19 -2 35zM109 971 q-12 28 2 69q15 33 44 48t64 6l49 -19q57 -26 51 -84v-16q2 -12 11.5 -19t21.5 -4l35 11q87 25 109 32q37 11 59 11q23 0 27 2q32 12 67 15t83 0.5t67 -1.5q38 2 65 -37q20 -26 0 -49q-28 -42 -78 -51q-4 -1 -36.5 -7.5t-49.5 -5.5q-18 0 -38.5 -2t-34 -4t-39 -8.5t-32.5 -8 t-37.5 -10.5t-33.5 -10q-83 -20 -153 -81q-26 -29 -31 -62q-1 -17 0 -48.5t0 -47.5q-5 -32 27 -72q6 -6 16 -6q15 -4 27 2q27 11 92 27q13 2 41 14q69 39 223 98q11 4 41 15.5t51 18t41 11.5q28 7 70 11q28 2 63 -25q17 -12 20 -39.5t-20 -44.5q-32 -24 -53 -31 q-18 -5 -51.5 -20.5t-36.5 -16.5q-48 -21 -57 -24q-71 -22 -252 -102q-19 -8 -56 -26t-55 -26q-39 -19 -57 -53q-10 -17 -10 -33q-2 -39 32 -98q6 -6 25 -6q2 0 14 6q55 32 117 61q17 6 47 25.5t45 26.5q151 64 223 118q9 6 39 21q44 20 70 -21q9 -9 12 -22q7 -22 -4 -33 q-37 -38 -78 -72q-6 -6 -21.5 -15t-21.5 -15q-60 -58 -198 -127q-50 -27 -136 -82q-53 -31 -73 -72q-10 -21 -39 -35l-39 -18q-51 -21 -90.5 -3t-55.5 58q-23 55 -26 103q-2 57 -17 147q-1 3 -2 9t-2 9q-31 117 -41 205q-1 12 -4 33t-5 38.5t-3 33.5q-14 154 -14 262v80 q0 64 -10 86z" />
<glyph unicode="&#xcb;" d="M109 971q-12 28 2 69q15 33 44 48t64 6l49 -19q57 -26 51 -84v-16q2 -12 11.5 -19t21.5 -4l35 11q87 25 109 32q37 11 59 11q23 0 27 2q32 12 67 15t83 0.5t67 -1.5q38 2 65 -37q20 -26 0 -49q-28 -42 -78 -51q-4 -1 -36.5 -7.5t-49.5 -5.5q-18 0 -38.5 -2t-34 -4 t-39 -8.5t-32.5 -8t-37.5 -10.5t-33.5 -10q-83 -20 -153 -81q-26 -29 -31 -62q-1 -17 0 -48.5t0 -47.5q-5 -32 27 -72q6 -6 16 -6q15 -4 27 2q27 11 92 27q13 2 41 14q69 39 223 98q11 4 41 15.5t51 18t41 11.5q28 7 70 11q28 2 63 -25q17 -12 20 -39.5t-20 -44.5 q-32 -24 -53 -31q-18 -5 -51.5 -20.5t-36.5 -16.5q-48 -21 -57 -24q-71 -22 -252 -102q-19 -8 -56 -26t-55 -26q-39 -19 -57 -53q-10 -17 -10 -33q-2 -39 32 -98q6 -6 25 -6q2 0 14 6q55 32 117 61q17 6 47 25.5t45 26.5q151 64 223 118q9 6 39 21q44 20 70 -21q9 -9 12 -22 q7 -22 -4 -33q-37 -38 -78 -72q-6 -6 -21.5 -15t-21.5 -15q-60 -58 -198 -127q-50 -27 -136 -82q-53 -31 -73 -72q-10 -21 -39 -35l-39 -18q-51 -21 -90.5 -3t-55.5 58q-23 55 -26 103q-2 57 -17 147q-1 3 -2 9t-2 9q-31 117 -41 205q-1 12 -4 33t-5 38.5t-3 33.5 q-14 154 -14 262v80q0 64 -10 86zM168 1430q-3 24 25 38q7 4 22.5 11.5t22.5 11.5q29 19 72 7.5t63 -42.5q19 -33 26 -43q13 -23 4 -47q-22 -65 -38 -102q-15 -40 -60 -37q-6 2 -20 2q-2 1 -10 2t-11 2q-40 3 -68.5 39t-23.5 74q5 39 -4 84zM625 1446q1 2 4.5 7t5.5 9 q5 5 12 19q22 34 66 43t75 -13q33 -21 76 -34q27 -5 27 -39v-49q3 -34 -27 -68t-65 -37l-49 -6q-27 -3 -45 18q-74 79 -74 80q-28 28 -6 70z" />
<glyph unicode="&#xcc;" horiz-adv-x="481" d="M-49 1348q0 28 6.5 40.5t22.5 18.5q32 12 51 6q50 -12 75 -20q27 -9 39 -21q8 -8 19 -15.5t19 -11t23 -10.5t21 -10q137 -59 209 -108q20 -16 64 -27q21 -6 30.5 -27t1.5 -45q-8 -22 -32 -39q-15 -7 -25 -4q-130 16 -233 70q-13 8 -27 14.5t-31 13t-27.5 10t-32 10.5 t-28.5 9q-12 5 -37 7t-30 3q-24 8 -31 17q-43 57 -47 119zM102 885q4 -61 11 -105q5 -27 7 -72.5t3 -56.5q12 -106 18 -209q16 -238 19 -262q4 -41 33 -127q10 -34 51.5 -48t72.5 5q43 23 57 73t-9 93q-2 4 -8.5 14.5t-9.5 18t-3 14.5q-2 20 -7 63.5t-7 67.5q-2 36 -4 108.5 t-4 108.5q0 41 -5 54q-12 39 -12 120q-3 57 8 132q4 23 -10 44t-37 29q-51 17 -86 15q-31 0 -55.5 -25.5t-22.5 -54.5z" />
<glyph unicode="&#xcd;" horiz-adv-x="481" d="M-53 1159q-1 49 25 88.5t65 50.5q30 7 80.5 33.5t60.5 30.5q18 19 58 45t49 33q30 21 125 65q49 21 108 -2q7 -2 12 -12q8 -23 0 -50t-28 -34q-11 -5 -21.5 -11t-21.5 -15t-17.5 -14.5t-19 -17.5t-16.5 -16q-35 -33 -97 -76q-66 -45 -149 -108q-5 -4 -19 -13.5t-20 -14 t-18.5 -12t-21 -12t-20 -10t-22.5 -8.5q-26 -9 -49 11q-43 30 -43 69zM102 885q4 -61 11 -105q5 -27 7 -72.5t3 -56.5q12 -106 18 -209q16 -238 19 -262q4 -41 33 -127q10 -34 51.5 -48t72.5 5q43 23 57 73t-9 93q-2 4 -8.5 14.5t-9.5 18t-3 14.5q-2 20 -7 63.5t-7 67.5 q-2 36 -4 108.5t-4 108.5q0 41 -5 54q-12 39 -12 120q-3 57 8 132q4 23 -10 44t-37 29q-51 17 -86 15q-31 0 -55.5 -25.5t-22.5 -54.5z" />
<glyph unicode="&#xce;" horiz-adv-x="481" d="M-139 1137q11 26 22 45q11 22 41 35q62 24 99 96q55 95 75 125q6 8 43 45q21 18 66 18q67 -9 98 -26q47 -26 103 -86q9 -10 25.5 -32t21.5 -28q3 -4 17.5 -24.5t25.5 -28.5q14 -11 23 -26t11.5 -24.5t8.5 -31.5q8 -34 -27 -55q-18 -12 -22 -13q-33 -20 -66 0 q-10 6 -35 21.5t-38 24.5t-30 24.5t-26 32.5q-5 9 -35 39q-9 10 -23.5 10.5t-23.5 -8.5q-7 -7 -28.5 -29.5t-31.5 -33t-24.5 -29t-24.5 -35.5q-5 -9 -15 -26t-11 -19q-17 -28 -55 -43q-35 -13 -86 -13q-24 -3 -37 13q-15 15 -39 47q-11 19 -2 35zM102 885q4 -61 11 -105 q5 -27 7 -72.5t3 -56.5q12 -106 18 -209q16 -238 19 -262q4 -41 33 -127q10 -34 51.5 -48t72.5 5q43 23 57 73t-9 93q-2 4 -8.5 14.5t-9.5 18t-3 14.5q-2 20 -7 63.5t-7 67.5q-2 36 -4 108.5t-4 108.5q0 41 -5 54q-12 39 -12 120q-3 57 8 132q4 23 -10 44t-37 29 q-51 17 -86 15q-31 0 -55.5 -25.5t-22.5 -54.5z" />
<glyph unicode="&#xcf;" horiz-adv-x="481" d="M-160 1305q-3 24 25 38q7 4 22.5 11.5t22.5 11.5q29 19 72 7.5t63 -42.5q15 -26 27 -43q13 -23 4 -47q-18 -53 -39 -102q-15 -40 -60 -37q-6 2 -20 2q-2 1 -9.5 2t-10.5 2q-40 3 -69 39t-24 74q5 39 -4 84zM102 885q4 -61 11 -105q5 -27 7 -72.5t3 -56.5q12 -106 18 -209 q16 -238 19 -262q4 -41 33 -127q10 -34 51.5 -48t72.5 5q43 23 57 73t-9 93q-2 4 -8.5 14.5t-9.5 18t-3 14.5q-2 20 -7 63.5t-7 67.5q-2 36 -4 108.5t-4 108.5q0 41 -5 54q-12 39 -12 120q-3 57 8 132q4 23 -10 44t-37 29q-51 17 -86 15q-31 0 -55.5 -25.5t-22.5 -54.5z M297 1321q1 2 4.5 7t5.5 9q5 5 12 19q22 34 66.5 43t75.5 -13q33 -21 76 -34q26 -5 26 -39v-49q3 -34 -27 -68t-65 -37l-49 -6q-27 -3 -45 18q-74 79 -74 80q-28 28 -6 70z" />
<glyph unicode="&#xd2;" horiz-adv-x="1198" d="M102 442q2 58 17 140q16 84 65 180l36 64t40 75q47 92 178 191q52 41 131 47q27 3 49 -9q17 -10 41 -20q40 -15 43 -59q3 -23 35 -37q150 -74 181 -90q10 -5 32 -27q4 -4 7.5 -8.5t8 -11t7.5 -9.5q43 -56 53.5 -75.5t30.5 -83.5q1 -2 4.5 -11t3.5 -14q-1 -12 0.5 -24 t5.5 -26.5t6 -21.5t9 -25t8 -22q4 -23 2 -35q-13 -55 -19.5 -79.5t-22.5 -67t-36 -74.5l-43 -55q-6 -7 -22 -25t-23 -28q-63 -88 -201 -154q-80 -41 -160 -41q-15 1 -65 -6q-53 -2 -117 16q-65 22 -133 68q-47 29 -82 98q-5 9 -13.5 29t-13.5 29q-28 51 -28 108q0 13 -2 17 q-1 6 -7.5 34t-5.5 43zM287 492q-11 -103 39 -205q51 -111 170 -123q128 -14 217 47q18 11 34 23.5t43.5 36.5t32.5 28q44 38 60 84q10 29 37 59q14 19 14 31q-2 20 3.5 58.5t2.5 54.5q-4 67 -8 78q-3 10 -29 63q-6 6 -10 14q-48 86 -168 148q-65 33 -154 20 q-82 -12 -116 -84q-18 -44 -66 -65q-22 -11 -31 -29q-42 -66 -59 -137q-4 -15 -6 -32t-3.5 -38t-2.5 -32zM324 1513q0 28 6.5 41t21.5 19q32 12 51 6q54 -13 76 -20q27 -9 39 -21q8 -8 19 -15.5t19 -11t23 -10.5t21 -10q133 -57 209 -109q19 -14 63 -26q22 -6 31.5 -27 t1.5 -45q-8 -21 -33 -39q-14 -7 -24 -4q-132 16 -234 70q-35 21 -145 57q-12 5 -37.5 7t-30.5 3q-23 8 -30 17q-43 57 -47 118z" />
<glyph unicode="&#xd3;" horiz-adv-x="1198" d="M102 442q2 58 17 140q16 84 65 180l36 64t40 75q47 92 178 191q52 41 131 47q27 3 49 -9q17 -10 41 -20q40 -15 43 -59q3 -23 35 -37q150 -74 181 -90q10 -5 32 -27q4 -4 7.5 -8.5t8 -11t7.5 -9.5q43 -56 53.5 -75.5t30.5 -83.5q1 -2 4.5 -11t3.5 -14q-1 -12 0.5 -24 t5.5 -26.5t6 -21.5t9 -25t8 -22q4 -23 2 -35q-13 -55 -19.5 -79.5t-22.5 -67t-36 -74.5l-43 -55q-6 -7 -22 -25t-23 -28q-63 -88 -201 -154q-80 -41 -160 -41q-15 1 -65 -6q-53 -2 -117 16q-65 22 -133 68q-47 29 -82 98q-5 9 -13.5 29t-13.5 29q-28 51 -28 108q0 13 -2 17 q-1 6 -7.5 34t-5.5 43zM102 1229q-1 49 25.5 88.5t65.5 50.5q30 7 80.5 33.5t60.5 30.5q18 19 57.5 44.5t48.5 32.5q35 24 125 66q50 22 109 -2q7 -2 12 -12q8 -23 -0.5 -50t-28.5 -34q-11 -5 -21.5 -11t-21.5 -15t-17.5 -14.5t-19 -17.5t-16.5 -16q-38 -36 -96 -76 q-77 -53 -150 -108q-5 -4 -22 -16t-25 -17t-22 -13.5t-26 -14t-25 -9.5q-28 -9 -50 10q-43 30 -43 70zM287 492q-11 -103 39 -205q51 -111 170 -123q128 -14 217 47q18 11 34 23.5t43.5 36.5t32.5 28q44 38 60 84q10 29 37 59q14 19 14 31q-2 20 3.5 58.5t2.5 54.5 q-4 67 -8 78q-3 10 -29 63q-6 6 -10 14q-48 86 -168 148q-65 33 -154 20q-82 -12 -116 -84q-18 -44 -66 -65q-22 -11 -31 -29q-42 -66 -59 -137q-4 -15 -6 -32t-3.5 -38t-2.5 -32z" />
<glyph unicode="&#xd4;" horiz-adv-x="1198" d="M102 442q2 58 17 140q16 84 65 180l36 64t40 75q47 92 178 191q52 41 131 47q27 3 49 -9q17 -10 41 -20q40 -15 43 -59q3 -23 35 -37q150 -74 181 -90q10 -5 32 -27q4 -4 7.5 -8.5t8 -11t7.5 -9.5q43 -56 53.5 -75.5t30.5 -83.5q1 -2 4.5 -11t3.5 -14q-1 -12 0.5 -24 t5.5 -26.5t6 -21.5t9 -25t8 -22q4 -23 2 -35q-13 -55 -19.5 -79.5t-22.5 -67t-36 -74.5l-43 -55q-6 -7 -22 -25t-23 -28q-63 -88 -201 -154q-80 -41 -160 -41q-15 1 -65 -6q-53 -2 -117 16q-65 22 -133 68q-47 29 -82 98q-5 9 -13.5 29t-13.5 29q-28 51 -28 108q0 13 -2 17 q-1 6 -7.5 34t-5.5 43zM158 1247q11 26 22 45q11 22 41 35q61 24 98 96q48 82 76 125q6 8 43 45q22 19 66 19q65 -9 98 -27q47 -26 103 -86q7 -8 15 -18t17 -22t15 -19q4 -4 18.5 -25t24.5 -29q14 -11 23 -26t11.5 -24t8.5 -31q8 -35 -27 -56q-15 -10 -23 -12q-32 -20 -65 0 q-11 7 -35.5 22t-37.5 23.5t-30 24.5t-26 32q-5 9 -35 39q-9 10 -23.5 10.5t-23.5 -8.5q-6 -7 -28 -29.5t-32 -33t-24.5 -29t-24.5 -35.5q-5 -9 -15 -26t-11 -19q-17 -28 -55 -43q-32 -12 -86 -12q-25 -4 -37 12q-15 15 -39 47q-12 19 -2 35zM287 492q-11 -103 39 -205 q51 -111 170 -123q128 -14 217 47q18 11 34 23.5t43.5 36.5t32.5 28q44 38 60 84q10 29 37 59q14 19 14 31q-2 20 3.5 58.5t2.5 54.5q-4 67 -8 78q-3 10 -29 63q-6 6 -10 14q-48 86 -168 148q-65 33 -154 20q-82 -12 -116 -84q-18 -44 -66 -65q-22 -11 -31 -29 q-42 -66 -59 -137q-4 -15 -6 -32t-3.5 -38t-2.5 -32z" />
<glyph unicode="&#xd6;" horiz-adv-x="1198" d="M102 442q2 58 17 140q16 84 65 180l36 64t40 75q47 92 178 191q52 41 131 47q27 3 49 -9q17 -10 41 -20q40 -15 43 -59q3 -23 35 -37q150 -74 181 -90q10 -5 32 -27q4 -4 7.5 -8.5t8 -11t7.5 -9.5q43 -56 53.5 -75.5t30.5 -83.5q1 -2 4.5 -11t3.5 -14q-1 -12 0.5 -24 t5.5 -26.5t6 -21.5t9 -25t8 -22q4 -23 2 -35q-13 -55 -19.5 -79.5t-22.5 -67t-36 -74.5l-43 -55q-6 -7 -22 -25t-23 -28q-63 -88 -201 -154q-80 -41 -160 -41q-15 1 -65 -6q-53 -2 -117 16q-65 22 -133 68q-47 29 -82 98q-5 9 -13.5 29t-13.5 29q-28 51 -28 108q0 13 -2 17 q-1 6 -7.5 34t-5.5 43zM203 1444q-3 26 24 39q7 4 22.5 11t22.5 11q29 19 72.5 7.5t63.5 -42.5q19 -33 26 -43q13 -23 4 -47q-18 -52 -39 -102q-15 -40 -59 -37q-6 2 -21 2q-2 1 -9.5 2t-10.5 2q-40 3 -68.5 39t-23.5 74q5 39 -4 84zM287 492q-11 -103 39 -205 q51 -111 170 -123q128 -14 217 47q18 11 34 23.5t43.5 36.5t32.5 28q44 38 60 84q10 29 37 59q14 19 14 31q-2 20 3.5 58.5t2.5 54.5q-4 67 -8 78q-3 10 -29 63q-6 6 -10 14q-48 86 -168 148q-65 33 -154 20q-82 -12 -116 -84q-18 -44 -66 -65q-22 -11 -31 -29 q-42 -66 -59 -137q-4 -15 -6 -32t-3.5 -38t-2.5 -32zM659 1460q1 2 5 7.5t6 9.5q6 6 12 18q22 34 66 43.5t75 -12.5q36 -23 76 -35q27 -5 27 -39v-49q3 -34 -27 -68t-65 -37l-50 -6q-26 -3 -45 19q-67 72 -73 80q-28 28 -7 69z" />
<glyph unicode="&#xd7;" horiz-adv-x="1198" d="M104 803q4 26 23 37q14 9 39 20q22 11 51 -2q28 -14 37 -20q54 -25 65 -78q1 -6 11 -25q6 -12 54.5 -66t61.5 -63q27 -17 50 0q37 25 53 43q49 58 104 107q18 14 25 26q14 20 33 40t32 33t40.5 35t36 28.5t43 32t38.5 28.5q16 13 37 20q51 17 86 -6q26 -15 41 -30 q36 -36 16 -80q-10 -31 -12 -33q-8 -14 -27 -25q-33 -14 -49 -16q-49 -8 -90 -49q-61 -55 -121 -115q-16 -16 -42 -48t-31 -38q-29 -35 -80 -94q-7 -11 -7 -26t7 -25q5 -5 14 -16.5t14 -16.5q109 -94 187 -145q133 -88 180 -111q35 -16 66 -55q6 -6 6 -17q2 -29 -19 -65 q-11 -21 -45 -25q-16 -4 -22 -4q-35 0 -70 21q-23 15 -71 44.5t-85.5 55t-68.5 51.5q-2 2 -49 37q-82 51 -134 100q-10 10 -28 21q-27 15 -49 -4q-49 -49 -66 -72q-23 -29 -70 -100q-5 -8 -12 -27.5t-12 -28.5q-9 -16 -25 -22q-46 -17 -82.5 2.5t-48.5 62.5q-2 6 -2 19 q2 7 6.5 24t7.5 26.5t8 23t11 25t14 22.5q63 98 92 127q11 11 13 14q8 11 20 28q25 33 23.5 44t-36.5 50q-7 8 -11 13q-16 18 -46 54.5t-55 66t-49 53.5q-41 43 -31 113z" />
<glyph unicode="&#xd9;" horiz-adv-x="1052" d="M63 1430q0 28 6.5 40.5t22.5 18.5q32 12 51 6q54 -13 76 -20q27 -9 39 -21q8 -8 19 -15.5t19 -11t23 -10.5t21 -10q133 -57 209 -109q19 -14 63 -26q22 -6 31.5 -27t1.5 -45q-8 -21 -33 -39q-14 -7 -24 -4q-132 16 -234 70q-35 21 -145 57q-12 5 -37.5 7t-30.5 3 q-23 8 -30 17q-44 58 -48 119zM102 721q-3 44 27 77t82 33q7 2 25 -4l30 -18q8 -5 23 -14t20 -12.5t13 -11.5t8.5 -14.5t0.5 -18t-5.5 -26t-14.5 -34.5q-5 -14 -6 -24t0.5 -23.5t1.5 -22.5q1 -12 6 -83.5t11 -108.5q4 -27 12 -56.5t19 -66.5t16 -55q9 -38 45.5 -68t75.5 -33 q30 -3 51 10q25 12 82 50q62 47 80 122q32 151 30 277q0 1 -3 59.5t-11 92.5q-4 14 -8 69q-5 33 16 76q27 61 92 88q51 25 97 -12q47 -41 26 -95l-18 -30q-12 -14 -15 -41q0 -11 2 -17q3 -41 3 -86.5t-1.5 -100.5t-1.5 -85q0 -82 -14 -123q-8 -32 -8 -51q0 -82 -64 -170 q-39 -53 -94 -102q-124 -106 -282 -109q-97 -3 -177 84q-70 70 -100 182q-30 109 -35 199q-4 35 -13 104.5t-13 104.5q-10 72 -11 88z" />
<glyph unicode="&#xda;" horiz-adv-x="1052" d="M102 721q-3 44 27 77t82 33q7 2 25 -4l30 -18q8 -5 23 -14t20 -12.5t13 -11.5t8.5 -14.5t0.5 -18t-5.5 -26t-14.5 -34.5q-5 -14 -6 -24t0.5 -23.5t1.5 -22.5q1 -12 6 -83.5t11 -108.5q4 -27 12 -56.5t19 -66.5t16 -55q9 -38 45.5 -68t75.5 -33q30 -3 51 10q25 12 82 50 q62 47 80 122q32 151 30 277q0 1 -3 59.5t-11 92.5q-4 14 -8 69q-5 33 16 76q27 61 92 88q51 25 97 -12q47 -41 26 -95l-18 -30q-12 -14 -15 -41q0 -11 2 -17q3 -41 3 -86.5t-1.5 -100.5t-1.5 -85q0 -82 -14 -123q-8 -32 -8 -51q0 -82 -64 -170q-39 -53 -94 -102 q-124 -106 -282 -109q-97 -3 -177 84q-70 70 -100 182q-30 109 -35 199q-4 35 -13 104.5t-13 104.5q-10 72 -11 88zM268 1149q-1 49 25 88.5t65 50.5q30 7 81 33.5t61 30.5q18 19 58 45.5t48 32.5q30 21 125 65q50 22 109 -2q7 -2 12 -12q8 -23 -0.5 -50t-28.5 -34 q-11 -5 -21.5 -11t-21.5 -15t-17.5 -14.5t-19 -17.5t-16.5 -16q-38 -36 -96 -76q-77 -53 -150 -108q-5 -4 -19 -13.5t-20 -14t-18.5 -12t-21 -12t-20 -10t-22.5 -8.5q-27 -9 -49 10q-43 30 -43 70z" />
<glyph unicode="&#xdb;" horiz-adv-x="1052" d="M102 721q-3 44 27 77t82 33q7 2 25 -4l30 -18q8 -5 23 -14t20 -12.5t13 -11.5t8.5 -14.5t0.5 -18t-5.5 -26t-14.5 -34.5q-5 -14 -6 -24t0.5 -23.5t1.5 -22.5q1 -12 6 -83.5t11 -108.5q4 -27 12 -56.5t19 -66.5t16 -55q9 -38 45.5 -68t75.5 -33q30 -3 51 10q25 12 82 50 q62 47 80 122q32 151 30 277q0 1 -3 59.5t-11 92.5q-4 14 -8 69q-5 33 16 76q27 61 92 88q51 25 97 -12q47 -41 26 -95l-18 -30q-12 -14 -15 -41q0 -11 2 -17q3 -41 3 -86.5t-1.5 -100.5t-1.5 -85q0 -82 -14 -123q-8 -32 -8 -51q0 -82 -64 -170q-39 -53 -94 -102 q-124 -106 -282 -109q-97 -3 -177 84q-70 70 -100 182q-30 109 -35 199q-4 35 -13 104.5t-13 104.5q-10 72 -11 88zM141 1180q8 19 23 45q11 22 41 35q61 24 98 96q48 82 76 125q6 8 43 45q21 18 65 18q69 -9 99 -26q45 -25 102 -86q9 -10 25.5 -32t21.5 -28 q3 -4 17.5 -24.5t25.5 -28.5q14 -11 23 -26t11.5 -24.5t8.5 -31.5q8 -34 -26 -55q-17 -12 -23 -13q-32 -19 -65 0q-10 6 -35 21.5t-38 24.5t-30 24.5t-26 32.5q-5 9 -35 39q-9 10 -23.5 10.5t-23.5 -8.5q-6 -7 -28 -29.5t-32 -33t-25 -29t-24 -35.5q-5 -9 -14.5 -25 t-12.5 -20q-17 -28 -55 -43q-35 -13 -86 -13q-24 -3 -37 13q-15 15 -39 47q-11 19 -2 35z" />
<glyph unicode="&#xdc;" horiz-adv-x="1052" d="M102 721q-3 44 27 77t82 33q7 2 25 -4l30 -18q8 -5 23 -14t20 -12.5t13 -11.5t8.5 -14.5t0.5 -18t-5.5 -26t-14.5 -34.5q-5 -14 -6 -24t0.5 -23.5t1.5 -22.5q1 -12 6 -83.5t11 -108.5q4 -27 12 -56.5t19 -66.5t16 -55q9 -38 45.5 -68t75.5 -33q30 -3 51 10q25 12 82 50 q62 47 80 122q32 151 30 277q0 1 -3 59.5t-11 92.5q-4 14 -8 69q-5 33 16 76q27 61 92 88q51 25 97 -12q47 -41 26 -95l-18 -30q-12 -14 -15 -41q0 -11 2 -17q3 -41 3 -86.5t-1.5 -100.5t-1.5 -85q0 -82 -14 -123q-8 -32 -8 -51q0 -82 -64 -170q-39 -53 -94 -102 q-124 -106 -282 -109q-97 -3 -177 84q-70 70 -100 182q-30 109 -35 199q-4 35 -13 104.5t-13 104.5q-10 72 -11 88zM147 1354q-3 25 25 39q7 4 22.5 11t22.5 11q29 19 72 7.5t63 -42.5q15 -26 27 -43q13 -23 4 -47q-18 -52 -39 -102q-15 -40 -59 -37q-6 2 -21 2q-2 1 -9.5 2 t-10.5 2q-40 3 -68.5 39t-23.5 74q5 36 -5 84zM604 1370q1 2 4.5 7t5.5 9q7 7 13 19q22 34 66 43.5t75 -12.5q36 -23 76 -35q26 -5 26 -39v-49q3 -34 -27 -68t-65 -37l-49 -6q-26 -3 -45 19q-4 4 -32 33t-42 46q-28 28 -6 70z" />
<glyph unicode="&#xdd;" horiz-adv-x="1286" d="M102.5 986q-3.5 34 16.5 67q17 26 52.5 37.5t64.5 -0.5q46 -18 79 -54q125 -131 127 -133q35 -38 78 -72q27 -18 72 -63l39 -35q19 -14 43 -11.5t37 19.5q44 57 75 107q58 95 162 196q13 13 28.5 24t39.5 25.5t33 20.5q4 3 12 3.5t12 -1.5q30 -18 92 -26q6 -2 13 -11 t6 -16q0 -27 -8 -43q-20 -52 -62 -72q-29 -14 -57.5 -40t-42 -42t-43.5 -55q-41 -54 -76 -139q-33 -76 -8 -135q17 -35 -8 -74q-40 -70 -31 -152q4 -48 0 -139q0 -58 20 -94q9 -14 17 -41q15 -34 -8 -66q-27 -51 -97 -71q-20 -6 -41 8q-31 24 -47 51l-24 57q-12 24 -2 47 q0 4 1 11t1 10q-5 33 -7 69.5t-2.5 80t-1.5 69.5q0 30 -12 96q-10 64 -51 97q-27 24 -88 89t-100 95q-11 7 -25 25q-35 46 -109 102q-22 15 -32 27q-27 32 -74 63q-24 16 -35 27q-25 28 -28.5 62zM397 1284q-1 49 25 88.5t65 50.5q30 7 81 33.5t61 30.5q18 19 58 45.5 t48 32.5q30 21 125 65q50 22 109 -2q7 -2 12 -12q8 -23 -0.5 -50t-28.5 -34q-11 -5 -21.5 -11t-21.5 -15t-17.5 -14.5t-19 -17.5t-16.5 -16q-38 -36 -96 -76q-76 -52 -150 -108q-5 -4 -19 -13.5t-20 -14t-18.5 -12t-21 -12t-20 -10t-22.5 -8.5q-27 -9 -49 10q-43 30 -43 70z " />
<glyph unicode="&#xe0;" horiz-adv-x="1030" d="M111 25q-15 61 0 122q5 15 30 119q6 30 6 35q-3 79 43 139q7 9 11 33q23 112 88 256q32 69 55 148q29 93 29 137q0 40 22 65q20 24 45 21q8 -1 32.5 -8.5t37.5 -6.5q55 0 82 -55q18 -35 65 -82q37 -33 54 -67q9 -18 27.5 -53.5t29.5 -57.5t24.5 -53.5t22.5 -59.5 q13 -44 66 -180q12 -40 10 -61q-5 -54 12 -121q17 -64 21 -158q9 -55 -9 -110q-15 -47 -63 -56q-23 -3 -41 9q-25 22 -37 38q-32 36 -18 72q9 31 2 80q-19 109 -29 135q-3 11 -14 17.5t-21 3.5q-44 -9 -84 -21q-80 -26 -237 -61q-26 -4 -35 -8q-33 -10 -43 -39 q-22 -69 -4 -113q6 -12 6 -16q4 -22 0 -33q-3 -11 -11.5 -30.5t-11.5 -27.5q-10 -41 -61 -55q-54 -16 -74 31q-20 38 -28 72zM246 1561q0 28 6 40.5t22 18.5q33 12 52 6q50 -12 75 -20q27 -9 39 -21q8 -8 19 -15.5t19 -11t23 -10.5t21 -10q137 -59 209 -108q20 -16 64 -27 q21 -6 30.5 -27t1.5 -45q-8 -22 -32 -39q-15 -7 -25 -4q-130 16 -233 70q-13 8 -27 14.5t-31 13t-27.5 10t-32 10.5t-28.5 9q-12 5 -37 7t-30 3q-24 8 -31 17q-43 57 -47 119zM379 475q-2 -6 4.5 -15.5t13.5 -10.5q20 -5 52 -9q33 -3 59 11q20 10 78 14q23 0 69 8 q17 5 27 20.5t6 32.5q-36 149 -145 297l-6 6q-8 7 -21 5t-16 -11q-26 -67 -45 -125l-68 -188q-4 -13 -8 -35z" />
<glyph unicode="&#xe1;" horiz-adv-x="1030" d="M111 25q-15 61 0 122q5 15 30 119q6 30 6 35q-3 79 43 139q7 9 11 33q23 112 88 256q32 69 55 148q29 93 29 137q0 40 22 65q20 24 45 21q8 -1 32.5 -8.5t37.5 -6.5q55 0 82 -55q18 -35 65 -82q37 -33 54 -67q9 -18 27.5 -53.5t29.5 -57.5t24.5 -53.5t22.5 -59.5 q13 -44 66 -180q12 -40 10 -61q-5 -54 12 -121q17 -64 21 -158q9 -55 -9 -110q-15 -47 -63 -56q-23 -3 -41 9q-25 22 -37 38q-32 36 -18 72q9 31 2 80q-19 109 -29 135q-3 11 -14 17.5t-21 3.5q-44 -9 -84 -21q-80 -26 -237 -61q-26 -4 -35 -8q-33 -10 -43 -39 q-22 -69 -4 -113q6 -12 6 -16q4 -22 0 -33q-3 -11 -11.5 -30.5t-11.5 -27.5q-10 -41 -61 -55q-54 -16 -74 31q-20 38 -28 72zM162 1350q-1 49 25 88.5t65 50.5q30 7 81 33t60 30q18 19 58 45t49 33q35 24 125 66q49 21 108 -2q7 -2 12 -13q8 -23 0 -50t-28 -34 q-11 -5 -21 -10.5t-22 -15.5t-17 -13.5t-20 -18t-16 -15.5q-35 -33 -97 -76q-51 -35 -149 -109q-82 -57 -121 -69q-27 -9 -49 10q-43 30 -43 70zM379 475q-2 -6 4.5 -15.5t13.5 -10.5q20 -5 52 -9q33 -3 59 11q20 10 78 14q23 0 69 8q17 5 27 20.5t6 32.5q-36 149 -145 297 l-6 6q-8 7 -21 5t-16 -11q-26 -67 -45 -125l-68 -188q-4 -13 -8 -35z" />
<glyph unicode="&#xe2;" horiz-adv-x="1030" d="M66 1321q11 26 22 45q11 22 41 35q61 24 98 96q48 82 76 125q6 8 43 45q22 19 66 19q65 -9 98 -27q45 -25 102 -86q9 -10 25.5 -32t21.5 -28q3 -4 17.5 -24.5t25.5 -28.5q14 -11 23 -26t11.5 -24.5t8.5 -31.5q8 -34 -26 -55q-15 -10 -23 -12q-33 -19 -65 0 q-11 7 -35.5 22t-37.5 23.5t-30 24.5t-26 32q-5 9 -35 39q-9 10 -23.5 10.5t-23.5 -8.5q-7 -7 -28.5 -29.5t-31.5 -33t-25 -29t-24 -35.5q-5 -9 -15 -26t-11 -19q-16 -27 -56 -43q-32 -12 -86 -12q-25 -4 -37 12q-11 11 -38 47q-12 19 -2 35zM111 25q-15 61 0 122 q5 15 30 119q6 30 6 35q-3 79 43 139q7 9 11 33q23 112 88 256q32 69 55 148q29 93 29 137q0 40 22 65q20 24 45 21q8 -1 32.5 -8.5t37.5 -6.5q55 0 82 -55q18 -35 65 -82q37 -33 54 -67q9 -18 27.5 -53.5t29.5 -57.5t24.5 -53.5t22.5 -59.5q13 -44 66 -180q12 -40 10 -61 q-5 -54 12 -121q17 -64 21 -158q9 -55 -9 -110q-15 -47 -63 -56q-23 -3 -41 9q-25 22 -37 38q-32 36 -18 72q9 31 2 80q-19 109 -29 135q-3 11 -14 17.5t-21 3.5q-44 -9 -84 -21q-80 -26 -237 -61q-26 -4 -35 -8q-33 -10 -43 -39q-22 -69 -4 -113q6 -12 6 -16q4 -22 0 -33 q-3 -11 -11.5 -30.5t-11.5 -27.5q-10 -41 -61 -55q-54 -16 -74 31q-20 38 -28 72zM379 475q-2 -6 4.5 -15.5t13.5 -10.5q20 -5 52 -9q33 -3 59 11q20 10 78 14q23 0 69 8q17 5 27 20.5t6 32.5q-36 149 -145 297l-6 6q-8 7 -21 5t-16 -11q-26 -67 -45 -125l-68 -188 q-4 -13 -8 -35z" />
<glyph unicode="&#xe4;" horiz-adv-x="1030" d="M102 1491q-3 25 25 39q7 4 22.5 11t22.5 11q29 19 72 8t63 -42q15 -26 27 -43q13 -23 4 -48q-18 -53 -39 -102q-15 -40 -59 -37q-6 2 -21 2q-2 1 -9.5 2t-10.5 2q-40 3 -69 39t-24 74q5 39 -4 84zM111 25q-15 61 0 122q5 15 30 119q6 30 6 35q-3 79 43 139q7 9 11 33 q23 112 88 256q32 69 55 148q29 93 29 137q0 40 22 65q20 24 45 21q8 -1 32.5 -8.5t37.5 -6.5q55 0 82 -55q18 -35 65 -82q37 -33 54 -67q9 -18 27.5 -53.5t29.5 -57.5t24.5 -53.5t22.5 -59.5q13 -44 66 -180q12 -40 10 -61q-5 -54 12 -121q17 -64 21 -158q9 -55 -9 -110 q-15 -47 -63 -56q-23 -3 -41 9q-25 22 -37 38q-32 36 -18 72q9 31 2 80q-19 109 -29 135q-3 11 -14 17.5t-21 3.5q-44 -9 -84 -21q-80 -26 -237 -61q-26 -4 -35 -8q-33 -10 -43 -39q-22 -69 -4 -113q6 -12 6 -16q4 -22 0 -33q-3 -11 -11.5 -30.5t-11.5 -27.5 q-10 -41 -61 -55q-54 -16 -74 31q-20 38 -28 72zM379 475q-2 -6 4.5 -15.5t13.5 -10.5q20 -5 52 -9q33 -3 59 11q20 10 78 14q23 0 69 8q17 5 27 20.5t6 32.5q-36 149 -145 297l-6 6q-8 7 -21 5t-16 -11q-26 -67 -45 -125l-68 -188q-4 -13 -8 -35zM559 1507q1 1 4.5 7 t5.5 10q8 8 13 18q22 34 66 43.5t75 -12.5q36 -23 76 -35q26 -5 26 -39v-49q3 -34 -27 -67.5t-65 -36.5l-49 -7q-26 -3 -45 19q-74 79 -74 80q-28 28 -6 69z" />
<glyph unicode="&#xe7;" horiz-adv-x="1259" d="M103 401.5q1 12.5 5.5 32.5t4.5 23q2 16 5 32.5t3 22.5q7 81 69 178q23 38 82 113q12 15 27 24q42 27 84 76q17 17 35 29q113 66 184 76q16 2 43 10q98 23 172 -8q48 -17 70 -15q37 0 86 -39q28 -23 24 -58t-36 -52q-3 -2 -12.5 -5t-12.5 -5q-5 -2 -24 -11t-31 -14 q-16 -10 -33 4q-5 4 -11.5 10.5t-14 14.5t-11.5 12q-40 29 -82 29q-82 0 -135 -31q-9 -5 -48.5 -25.5t-58.5 -33.5q-55 -36 -88 -86q-57 -80 -84 -134q-57 -110 -30 -229q4 -22 24 -57q37 -59 125 -107q12 -4 19 -4q125 -21 209 0q202 49 315 162q6 6 14 13t18 15t15 13 q16 16 55 24q33 4 45 -18q6 -9 14 -25.5t11 -21.5q18 -35 -6 -66q-75 -96 -160 -133l-47 -24q-72 -44 -195 -80q-6 -1 -18 -4t-18 -4q-23 -78 -56 -113q-4 -4 -7.5 -11.5t-7 -17.5t-5.5 -14q-3 -5 -9 -20.5t-12 -22.5q-22 -25 -63.5 -83.5t-67.5 -86.5q-25 -31 -59 -39 q-3 0 -19 -4q-4 -2 -20 -2q-14 0 -25.5 16t-7.5 29l6 16q22 39 66 118t67 118q30 56 43 100q-70 0 -151 19q-22 3 -49 18q-98 59 -154 115q-29 26 -41 67q-18 50 -29 138q-2 24 -1 36.5z" />
<glyph unicode="&#xe8;" horiz-adv-x="1187" d="M117 416v67q-4 155 26 248q9 27 9 41q0 26 12 88q10 58 10 66q2 39 59 84q4 4 9 4h16q72 0 107 -43q2 -2 6 -10q4 -4 11 -12t10.5 -11.5t11.5 -6.5t20 -3q9 0 25 1t24 1q84 0 139 14q20 6 93 10h20q52 0 82 9q16 4 29 4q6 0 38 -9q40 -10 50 -10q14 0 26 6q20 4 31 4 q22 0 68 -20l10 -6q8 -4 11 -18.5t1 -20.5q0 -17 -12 -41q-2 -4 -15 -14q-14 -9 -20 -9q-115 -22 -121 -24q-99 -26 -166 -31q-102 -10 -235 -45q-12 -2 -45 -10q-24 -6 -47 -6q-32 0 -54 14q-2 2 -8 2q-19 0 -26 -14q-23 -57 -25 -90q-2 -19 11.5 -37t33.5 -19q28 -4 31 -4 h10q16 2 43 7.5t37 7.5l94 14q119 18 201 18q27 0 39 -2q26 0 45 -8q34 -15 41 -35t-15 -51q-48 -63 -127 -84q-3 -1 -9.5 -2t-10.5 -2q-2 0 -12.5 -2t-16.5 -4q-27 -8 -63 -8l-60 -6q-3 -1 -9 -2.5t-9 -2.5q-70 -16 -100 -16h-5q-10 0 -40 -10q-37 -12 -44 -43 q-6 -30 15 -58l4 -2q16 -16 20 -18l60 -37q15 -10 35 -10q10 0 30.5 -1t30.5 -1q105 0 174 31l98 41l11 4l12 2q32 0 45 -35q2 -10 -4 -25q-12 -48 -21 -80q-3 -7 -20 -20q-37 -32 -113 -62l-22 -10q-79 -39 -180 -39q-41 0 -88 9q-75 13 -130 45q-60 31 -102 88 q-72 94 -96 213q-4 16 -4 47zM332 1423q0 28 6.5 41t21.5 19q33 12 52 6q38 -9 75 -21q29 -10 39 -20q8 -8 19 -15.5t19 -11t23 -10.5t21 -10q133 -57 209 -109q18 -14 64 -26q21 -6 30.5 -27t1.5 -45q-8 -22 -32 -39q-15 -7 -25 -4q-130 16 -233 70q-13 8 -27 14.5t-31 13 t-27.5 10t-32 10.5t-28.5 9q-12 5 -37 7t-30 3q-24 8 -31 17q-43 57 -47 118z" />
<glyph unicode="&#xe9;" horiz-adv-x="1187" d="M117 416v67q-4 155 26 248q9 27 9 41q0 26 12 88q10 58 10 66q2 39 59 84q4 4 9 4h16q72 0 107 -43q2 -2 6 -10q4 -4 11 -12t10.5 -11.5t11.5 -6.5t20 -3q9 0 25 1t24 1q84 0 139 14q20 6 93 10h20q52 0 82 9q16 4 29 4q6 0 38 -9q40 -10 50 -10q14 0 26 6q20 4 31 4 q22 0 68 -20l10 -6q8 -4 11 -18.5t1 -20.5q0 -17 -12 -41q-2 -4 -15 -14q-14 -9 -20 -9q-115 -22 -121 -24q-99 -26 -166 -31q-102 -10 -235 -45q-12 -2 -45 -10q-24 -6 -47 -6q-32 0 -54 14q-2 2 -8 2q-19 0 -26 -14q-23 -57 -25 -90q-2 -19 11.5 -37t33.5 -19q28 -4 31 -4 h10q16 2 43 7.5t37 7.5l94 14q119 18 201 18q27 0 39 -2q26 0 45 -8q34 -15 41 -35t-15 -51q-48 -63 -127 -84q-3 -1 -9.5 -2t-10.5 -2q-2 0 -12.5 -2t-16.5 -4q-27 -8 -63 -8l-60 -6q-3 -1 -9 -2.5t-9 -2.5q-70 -16 -100 -16h-5q-10 0 -40 -10q-37 -12 -44 -43 q-6 -30 15 -58l4 -2q16 -16 20 -18l60 -37q15 -10 35 -10q10 0 30.5 -1t30.5 -1q105 0 174 31l98 41l11 4l12 2q32 0 45 -35q2 -10 -4 -25q-12 -48 -21 -80q-3 -7 -20 -20q-37 -32 -113 -62l-22 -10q-79 -39 -180 -39q-41 0 -88 9q-75 13 -130 45q-60 31 -102 88 q-72 94 -96 213q-4 16 -4 47zM276 1229q-1 49 25.5 88.5t65.5 50.5q30 7 80.5 33.5t60.5 30.5q18 19 57.5 44.5t48.5 32.5q35 24 125 66q50 22 109 -2q7 -2 12 -12q8 -23 -0.5 -50t-28.5 -34q-11 -5 -21.5 -11t-21.5 -15t-17.5 -14.5t-19 -17.5t-16.5 -16q-38 -36 -96 -76 q-77 -53 -150 -108q-5 -4 -22 -16t-25 -17t-22 -13.5t-26 -14t-25 -9.5q-28 -9 -50 10q-43 30 -43 70z" />
<glyph unicode="&#xea;" horiz-adv-x="1187" d="M117 416v67q-4 155 26 248q9 27 9 41q0 26 12 88q10 58 10 66q2 39 59 84q4 4 9 4h16q72 0 107 -43q2 -2 6 -10q4 -4 11 -12t10.5 -11.5t11.5 -6.5t20 -3q9 0 25 1t24 1q84 0 139 14q20 6 93 10h20q52 0 82 9q16 4 29 4q6 0 38 -9q40 -10 50 -10q14 0 26 6q20 4 31 4 q22 0 68 -20l10 -6q8 -4 11 -18.5t1 -20.5q0 -17 -12 -41q-2 -4 -15 -14q-14 -9 -20 -9q-115 -22 -121 -24q-99 -26 -166 -31q-102 -10 -235 -45q-12 -2 -45 -10q-24 -6 -47 -6q-32 0 -54 14q-2 2 -8 2q-19 0 -26 -14q-23 -57 -25 -90q-2 -19 11.5 -37t33.5 -19q28 -4 31 -4 h10q16 2 43 7.5t37 7.5l94 14q119 18 201 18q27 0 39 -2q26 0 45 -8q34 -15 41 -35t-15 -51q-48 -63 -127 -84q-3 -1 -9.5 -2t-10.5 -2q-2 0 -12.5 -2t-16.5 -4q-27 -8 -63 -8l-60 -6q-3 -1 -9 -2.5t-9 -2.5q-70 -16 -100 -16h-5q-10 0 -40 -10q-37 -12 -44 -43 q-6 -30 15 -58l4 -2q16 -16 20 -18l60 -37q15 -10 35 -10q10 0 30.5 -1t30.5 -1q105 0 174 31l98 41l11 4l12 2q32 0 45 -35q2 -10 -4 -25q-12 -48 -21 -80q-3 -7 -20 -20q-37 -32 -113 -62l-22 -10q-79 -39 -180 -39q-41 0 -88 9q-75 13 -130 45q-60 31 -102 88 q-72 94 -96 213q-4 16 -4 47zM238 1249q11 26 22 45q11 22 41 35q61 24 98 96q48 82 76 125q6 8 43 45q22 19 66 19q65 -9 98 -27q45 -25 102 -86q7 -8 15 -18t17 -22t15 -19q3 -4 17.5 -24.5t25.5 -28.5q29 -23 44 -82q8 -35 -27 -56q-15 -10 -23 -12q-32 -19 -65 0 q-11 7 -35.5 22t-37.5 23.5t-30 24.5t-26 32q-5 9 -35 39q-9 10 -23.5 10.5t-23.5 -8.5q-6 -7 -28 -29.5t-32 -33t-25 -29t-24 -35.5q-5 -9 -15 -26t-11 -19q-16 -27 -56 -43q-32 -12 -86 -12q-24 -3 -36 12q-15 15 -39 47q-12 19 -2 35z" />
<glyph unicode="&#xeb;" horiz-adv-x="1187" d="M117 416v67q-4 155 26 248q9 27 9 41q0 26 12 88q10 58 10 66q2 39 59 84q4 4 9 4h16q72 0 107 -43q2 -2 6 -10q4 -4 11 -12t10.5 -11.5t11.5 -6.5t20 -3q9 0 25 1t24 1q84 0 139 14q20 6 93 10h20q52 0 82 9q16 4 29 4q6 0 38 -9q40 -10 50 -10q14 0 26 6q20 4 31 4 q22 0 68 -20l10 -6q8 -4 11 -18.5t1 -20.5q0 -17 -12 -41q-2 -4 -15 -14q-14 -9 -20 -9q-115 -22 -121 -24q-99 -26 -166 -31q-102 -10 -235 -45q-12 -2 -45 -10q-24 -6 -47 -6q-32 0 -54 14q-2 2 -8 2q-19 0 -26 -14q-23 -57 -25 -90q-2 -19 11.5 -37t33.5 -19q28 -4 31 -4 h10q16 2 43 7.5t37 7.5l94 14q119 18 201 18q27 0 39 -2q26 0 45 -8q34 -15 41 -35t-15 -51q-48 -63 -127 -84q-3 -1 -9.5 -2t-10.5 -2q-2 0 -12.5 -2t-16.5 -4q-27 -8 -63 -8l-60 -6q-3 -1 -9 -2.5t-9 -2.5q-70 -16 -100 -16h-5q-10 0 -40 -10q-37 -12 -44 -43 q-6 -30 15 -58l4 -2q16 -16 20 -18l60 -37q15 -10 35 -10q10 0 30.5 -1t30.5 -1q105 0 174 31l98 41l11 4l12 2q32 0 45 -35q2 -10 -4 -25q-12 -48 -21 -80q-3 -7 -20 -20q-37 -32 -113 -62l-22 -10q-79 -39 -180 -39q-41 0 -88 9q-75 13 -130 45q-60 31 -102 88 q-72 94 -96 213q-4 16 -4 47zM236 1380q-3 26 24 39q7 4 22.5 11.5t22.5 11.5q29 19 72 7.5t63 -42.5q15 -26 27 -43q13 -23 4 -47q-20 -58 -39 -103q-14 -39 -59 -36q-6 2 -21 2q-2 1 -9.5 2t-10.5 2q-40 3 -68.5 38.5t-23.5 73.5q5 39 -4 84zM692 1397q1 2 4.5 7t5.5 9 q7 7 13 19q22 34 66 43t75 -13q36 -23 76 -35q26 -5 26 -38v-50q3 -34 -27 -67.5t-65 -36.5l-49 -6q-27 -3 -45 18q-74 79 -74 80q-28 28 -6 70z" />
<glyph unicode="&#xec;" horiz-adv-x="514" d="M-2 1401q0 28 6.5 40.5t22.5 18.5q32 12 51 6q54 -13 76 -20q27 -9 39 -21q8 -8 19 -15.5t18 -11t23 -11t21 -9.5q137 -59 209 -108q20 -16 64 -27q22 -6 31.5 -27t1.5 -45q-7 -20 -33 -38q-16 -8 -25 -5q-130 16 -233 70q-13 8 -27 14.5t-31 13t-27.5 10t-32 10.5 t-28.5 9q-9 4 -20 5.5t-25 3t-22 2.5q-25 8 -31 16q-43 57 -47 119zM102 956q-3 -38 13 -77q29 -66 20 -140q-3 -39 4 -63q4 -21 2 -35q-5 -25 -3.5 -80t-4.5 -80q-2 -4 -2 -10t1 -13.5t1 -11.5q1 -13 5.5 -38t5.5 -37.5t-5 -38.5v-8q5 -16 8 -32.5t4.5 -41t2.5 -33.5 q6 -66 43 -133q8 -16 16 -21q22 -20 61 -51q25 -17 60 -10q32 8 59 35q23 20 17 49q-7 38 -27 64q-28 32 -39 98q-13 101 -12 133q1 37 -4 143t0 142q3 41 -2 71q-6 39 -2 119q0 15 4 51q0 15 -4 43q-7 42 -41 54q-78 29 -146 0q-32 -13 -35 -48z" />
<glyph unicode="&#xed;" horiz-adv-x="514" d="M-49 1174q-1 49 25 88.5t65 50.5q30 7 81 33t60 30q18 19 58 45t49 33q35 24 125 66q49 21 108 -2q8 -3 13 -13q8 -23 -0.5 -50t-28.5 -34q-11 -5 -21 -10.5t-22 -15.5t-17 -13.5t-20 -18t-16 -15.5q-35 -33 -97 -76q-51 -35 -149 -109q-82 -57 -121 -69q-27 -9 -49 10 q-43 30 -43 70zM102 956q-3 -38 13 -77q29 -66 20 -140q-3 -39 4 -63q4 -21 2 -35q-5 -25 -3.5 -80t-4.5 -80q-2 -4 -2 -10t1 -13.5t1 -11.5q1 -13 5.5 -38t5.5 -37.5t-5 -38.5v-8q5 -16 8 -32.5t4.5 -41t2.5 -33.5q6 -66 43 -133q8 -16 16 -21q22 -20 61 -51q25 -17 60 -10 q32 8 59 35q23 20 17 49q-7 38 -27 64q-28 32 -39 98q-13 101 -12 133q1 37 -4 143t0 142q3 41 -2 71q-6 39 -2 119q0 15 4 51q0 15 -4 43q-7 42 -41 54q-78 29 -146 0q-32 -13 -35 -48z" />
<glyph unicode="&#xee;" horiz-adv-x="514" d="M-137 1145q11 26 22 45q10 20 43 35q62 23 105 96q33 56 78 125q6 7 14 15t17 16.5t14 13.5q24 18 69 18q72 -9 103 -26q47 -25 108 -86q10 -11 49 -60q2 -2 18 -23.5t27 -29.5q14 -11 23.5 -26t12.5 -24.5t9 -31.5q8 -34 -26 -55q-23 -11 -25 -12q-34 -18 -69 0 q-11 7 -36.5 22t-40 24t-32 24.5t-27.5 31.5q-9 16 -36 39q-9 10 -24.5 10.5t-25.5 -8.5q-6 -6 -24 -23.5t-26.5 -26t-21.5 -23.5t-22.5 -28t-17.5 -26q-4 -6 -14.5 -21.5t-14.5 -23.5q-16 -27 -57 -43q-35 -12 -92 -12q-25 -4 -37 12q-17 15 -41 47q-15 19 -2 35zM102 956 q-3 -38 13 -77q29 -66 20 -140q-3 -39 4 -63q4 -21 2 -35q-5 -25 -3.5 -80t-4.5 -80q-2 -4 -2 -10t1 -13.5t1 -11.5q1 -13 5.5 -38t5.5 -37.5t-5 -38.5v-8q5 -16 8 -32.5t4.5 -41t2.5 -33.5q6 -66 43 -133q8 -16 16 -21q22 -20 61 -51q25 -17 60 -10q32 8 59 35q23 20 17 49 q-7 38 -27 64q-28 32 -39 98q-13 101 -12 133q1 37 -4 143t0 142q3 41 -2 71q-6 39 -2 119q0 15 4 51q0 15 -4 43q-7 42 -41 54q-78 29 -146 0q-32 -13 -35 -48z" />
<glyph unicode="&#xef;" horiz-adv-x="514" d="M-147 1333q-3 26 24 39q7 4 22.5 11.5t22.5 11.5q29 19 72 7.5t63 -42.5q15 -26 27 -43q13 -23 4 -47q-20 -58 -39 -103q-15 -40 -59 -37q-9 3 -21 3q-2 1 -9.5 2t-10.5 2q-40 3 -68.5 38.5t-23.5 73.5q5 39 -4 84zM102 956q-3 -38 13 -77q29 -66 20 -140q-3 -39 4 -63 q4 -21 2 -35q-5 -25 -3.5 -80t-4.5 -80q-2 -4 -2 -10t1 -13.5t1 -11.5q1 -13 5.5 -38t5.5 -37.5t-5 -38.5v-8q5 -16 8 -32.5t4.5 -41t2.5 -33.5q6 -66 43 -133q8 -16 16 -21q22 -20 61 -51q25 -17 60 -10q32 8 59 35q23 20 17 49q-7 38 -27 64q-28 32 -39 98 q-13 101 -12 133q1 37 -4 143t0 142q3 41 -2 71q-6 39 -2 119q0 15 4 51q0 15 -4 43q-7 42 -41 54q-78 29 -146 0q-32 -13 -35 -48zM309 1350q1 2 4.5 7t5.5 9q8 8 13 18q22 34 66 43.5t75 -12.5q36 -23 76 -35q26 -5 26 -39v-49q3 -34 -27 -67.5t-65 -36.5l-49 -6 q-27 -3 -45 18q-74 79 -74 80q-28 28 -6 70z" />
<glyph unicode="&#xf2;" horiz-adv-x="1247" d="M102 428l7 76q0 18 6 33q75 188 161 280q91 101 224 166q47 24 94 10l59 -18q44 -17 95 -17q48 3 90 -26q13 -10 29.5 -18.5t38 -17t32.5 -13.5q63 -31 119 -90q35 -38 55 -99l18 -57q15 -53 14 -77.5t-24 -74.5q-25 -53 -49 -87.5t-61 -59.5q-10 -6 -37 -37 q-51 -62 -164 -127q-1 -1 -3 -1.5t-3 -1t-2 -1.5q-12 -5 -47.5 -24.5t-55.5 -26.5q-76 -28 -168 -47q-61 -16 -112 -6q-17 3 -47.5 6t-40.5 4q-138 26 -187 143q-44 110 -41 209zM287 338q6 -48 43 -72q34 -24 65 -24h64q38 0 67 6q107 26 189 69q106 57 196 160 q75 88 64 187q-3 32 -27 53q-53 43 -100 53q-91 22 -158 14q-92 -12 -94 -12q-36 -6 -57 -22q-24 -12 -43 -31q-35 -41 -84 -35q-15 0 -31 -16q-115 -148 -94 -330zM303 1421q0 28 6.5 41t22.5 19q32 12 51 6q41 -10 76 -21q29 -10 39 -20q8 -8 19 -15.5t19 -11t23 -10.5 t21 -10q131 -56 208 -109q18 -14 64 -26q22 -6 31.5 -27t1.5 -45q-8 -21 -33 -39q-15 -7 -25 -4q-130 16 -233 70q-35 21 -145 57q-12 5 -37.5 7t-30.5 3q-24 8 -31 17q-43 57 -47 118z" />
<glyph unicode="&#xf3;" horiz-adv-x="1247" d="M102 428l7 76q0 18 6 33q75 188 161 280q91 101 224 166q47 24 94 10l59 -18q44 -17 95 -17q48 3 90 -26q13 -10 29.5 -18.5t38 -17t32.5 -13.5q63 -31 119 -90q35 -38 55 -99l18 -57q15 -53 14 -77.5t-24 -74.5q-25 -53 -49 -87.5t-61 -59.5q-10 -6 -37 -37 q-51 -62 -164 -127q-1 -1 -3 -1.5t-3 -1t-2 -1.5q-12 -5 -47.5 -24.5t-55.5 -26.5q-76 -28 -168 -47q-61 -16 -112 -6q-17 3 -47.5 6t-40.5 4q-138 26 -187 143q-44 110 -41 209zM242 1229q-1 49 25 88.5t65 50.5q30 7 80.5 33.5t60.5 30.5q18 19 57.5 44.5t49.5 32.5 q35 24 125 66q49 21 108 -2q7 -2 12 -12q8 -23 0 -50t-28 -34q-11 -5 -21 -10.5t-22.5 -15.5t-17 -14t-19.5 -18.5t-17 -15.5q-38 -36 -96 -76q-66 -45 -149 -108q-5 -4 -19 -13.5t-20 -14t-18.5 -12t-21 -12t-20 -10t-22.5 -8.5q-27 -9 -49 10q-43 30 -43 70zM287 338 q6 -48 43 -72q34 -24 65 -24h64q38 0 67 6q107 26 189 69q106 57 196 160q75 88 64 187q-3 32 -27 53q-53 43 -100 53q-91 22 -158 14q-92 -12 -94 -12q-36 -6 -57 -22q-24 -12 -43 -31q-35 -41 -84 -35q-15 0 -31 -16q-115 -148 -94 -330z" />
<glyph unicode="&#xf4;" horiz-adv-x="1247" d="M102 428l7 76q0 18 6 33q75 188 161 280q91 101 224 166q47 24 94 10l59 -18q44 -17 95 -17q48 3 90 -26q13 -10 29.5 -18.5t38 -17t32.5 -13.5q63 -31 119 -90q35 -38 55 -99l18 -57q15 -53 14 -77.5t-24 -74.5q-25 -53 -49 -87.5t-61 -59.5q-10 -6 -37 -37 q-51 -62 -164 -127q-1 -1 -3 -1.5t-3 -1t-2 -1.5q-12 -5 -47.5 -24.5t-55.5 -26.5q-76 -28 -168 -47q-61 -16 -112 -6q-17 3 -47.5 6t-40.5 4q-138 26 -187 143q-44 110 -41 209zM184 1202q8 19 23 45q11 22 41 35q61 24 98 96q48 82 76 125q6 8 43 45q22 19 65 19 q66 -9 99 -27q45 -25 102 -86q7 -8 15 -18t17 -22t15 -19q4 -4 18.5 -25t24.5 -29q14 -11 23 -26t11.5 -24t8.5 -31q8 -35 -26 -56q-15 -10 -23 -12q-33 -20 -65 0q-11 7 -35.5 22t-37.5 23.5t-30 24.5t-26 32q-5 9 -35 39q-9 10 -23.5 10.5t-23.5 -8.5q-6 -7 -28 -29.5 t-32 -33t-24.5 -29t-24.5 -35.5q-5 -9 -14.5 -25t-12.5 -20q-17 -28 -55 -43q-32 -12 -86 -12q-25 -4 -37 12q-15 15 -39 47q-12 19 -2 35zM287 338q6 -48 43 -72q34 -24 65 -24h64q38 0 67 6q107 26 189 69q106 57 196 160q75 88 64 187q-3 32 -27 53q-53 43 -100 53 q-91 22 -158 14q-92 -12 -94 -12q-36 -6 -57 -22q-24 -12 -43 -31q-35 -41 -84 -35q-15 0 -31 -16q-115 -148 -94 -330z" />
<glyph unicode="&#xf6;" horiz-adv-x="1247" d="M102 428l7 76q0 18 6 33q75 188 161 280q91 101 224 166q47 24 94 10l59 -18q44 -17 95 -17q48 3 90 -26q13 -10 29.5 -18.5t38 -17t32.5 -13.5q63 -31 119 -90q35 -38 55 -99l18 -57q15 -53 14 -77.5t-24 -74.5q-25 -53 -49 -87.5t-61 -59.5q-10 -6 -37 -37 q-51 -62 -164 -127q-1 -1 -3 -1.5t-3 -1t-2 -1.5q-12 -5 -47.5 -24.5t-55.5 -26.5q-76 -28 -168 -47q-61 -16 -112 -6q-17 3 -47.5 6t-40.5 4q-138 26 -187 143q-44 110 -41 209zM154 1370q-3 26 24 39q7 4 22.5 11.5t22.5 11.5q29 19 72 7.5t63 -42.5q15 -26 27 -43 q13 -23 4 -47q-20 -58 -39 -103q-15 -40 -59 -37q-6 2 -21 2l-20 5q-40 3 -68.5 38.5t-23.5 73.5q5 39 -4 84zM287 338q6 -48 43 -72q34 -24 65 -24h64q38 0 67 6q107 26 189 69q106 57 196 160q75 88 64 187q-3 32 -27 53q-53 43 -100 53q-91 22 -158 14q-92 -12 -94 -12 q-36 -6 -57 -22q-24 -12 -43 -31q-35 -41 -84 -35q-15 0 -31 -16q-115 -148 -94 -330zM610 1386q1 2 5 7t6 10q6 6 12 18q22 34 66 43.5t75 -12.5q36 -23 76 -35q27 -5 27 -39v-49q3 -34 -27.5 -67.5t-65.5 -36.5l-49 -6q-27 -3 -45 18q-74 79 -74 80q-28 28 -6 69z" />
<glyph unicode="&#xf9;" horiz-adv-x="1040" d="M102 602q0 11 7 25q13 47 2 86q-10 45 18 102q12 27 38.5 37.5t49.5 5.5q27 -3 49 -16q15 -10 20.5 -14t14.5 -13.5t11 -18t2 -23t-5 -32.5q-44 -139 -26 -286q4 -39 20 -103q7 -26 29 -63q38 -68 108 -62q4 1 16.5 2.5t18.5 2.5t15.5 3t17.5 5t16 8q7 4 24 9t25 9 q25 12 35 25q74 84 86 160q18 113 8 192q-2 39 -2 115q0 48 21 94q15 37 53 55q20 8 33 8q80 -10 119 -67q14 -21 11 -46t-24 -40q-36 -29 -39 -74q0 -18 -1.5 -52.5t-1.5 -63t3 -52.5q2 -14 -2 -69q-11 -101 -47 -158q-18 -62 -59 -105t-104 -79q-88 -50 -201 -66 q-65 -6 -121 10q-44 15 -76 43q-21 21 -33 29q-62 47 -86 139q-28 81 -32 127q-7 59 -11 211zM166 1356q0 28 6.5 40.5t22.5 18.5q32 12 51 6q54 -13 76 -20q25 -9 38 -21q8 -8 19 -15.5t19 -11t23 -10.5t21 -10q137 -59 209 -108q20 -16 64 -27q22 -6 31.5 -27t1.5 -45 q-8 -21 -33 -39q-15 -7 -25 -4q-130 16 -233 70q-13 8 -27 14.5t-31 13t-27.5 10t-32 10.5t-28.5 9q-9 4 -20 5.5t-25 3t-22 2.5q-25 8 -31 16q-43 57 -47 119z" />
<glyph unicode="&#xfa;" horiz-adv-x="1040" d="M102 602q0 11 7 25q13 47 2 86q-10 45 18 102q12 27 38.5 37.5t49.5 5.5q27 -3 49 -16q15 -10 20.5 -14t14.5 -13.5t11 -18t2 -23t-5 -32.5q-44 -139 -26 -286q4 -39 20 -103q7 -26 29 -63q38 -68 108 -62q4 1 16.5 2.5t18.5 2.5t15.5 3t17.5 5t16 8q7 4 24 9t25 9 q25 12 35 25q74 84 86 160q18 113 8 192q-2 39 -2 115q0 48 21 94q15 37 53 55q20 8 33 8q80 -10 119 -67q14 -21 11 -46t-24 -40q-36 -29 -39 -74q0 -18 -1.5 -52.5t-1.5 -63t3 -52.5q2 -14 -2 -69q-11 -101 -47 -158q-18 -62 -59 -105t-104 -79q-88 -50 -201 -66 q-65 -6 -121 10q-44 15 -76 43q-21 21 -33 29q-62 47 -86 139q-28 81 -32 127q-7 59 -11 211zM285 1145q-1 49 25 88.5t65 50.5q30 7 80.5 33.5t60.5 30.5q18 19 57.5 44.5t49.5 32.5q35 24 125 66q49 21 108 -2q7 -2 12 -12q8 -23 0 -50t-28 -34q-11 -5 -21 -10.5 t-22.5 -15.5t-17 -14t-19.5 -18.5t-17 -15.5q-38 -36 -96 -76q-66 -45 -149 -108q-5 -4 -19 -13.5t-20 -14t-18.5 -12t-21 -12t-20 -10t-22.5 -8.5q-27 -9 -49 10q-43 30 -43 70z" />
<glyph unicode="&#xfb;" horiz-adv-x="1040" d="M102 602q0 11 7 25q13 47 2 86q-10 45 18 102q12 27 38.5 37.5t49.5 5.5q27 -3 49 -16q15 -10 20.5 -14t14.5 -13.5t11 -18t2 -23t-5 -32.5q-44 -139 -26 -286q4 -39 20 -103q7 -26 29 -63q38 -68 108 -62q4 1 16.5 2.5t18.5 2.5t15.5 3t17.5 5t16 8q7 4 24 9t25 9 q25 12 35 25q74 84 86 160q18 113 8 192q-2 39 -2 115q0 48 21 94q15 37 53 55q20 8 33 8q80 -10 119 -67q14 -21 11 -46t-24 -40q-36 -29 -39 -74q0 -18 -1.5 -52.5t-1.5 -63t3 -52.5q2 -14 -2 -69q-11 -101 -47 -158q-18 -62 -59 -105t-104 -79q-88 -50 -201 -66 q-65 -6 -121 10q-44 15 -76 43q-21 21 -33 29q-62 47 -86 139q-28 81 -32 127q-7 59 -11 211zM154 1133q11 26 22 45q10 20 41 34q60 24 98 97q48 82 76 125q6 8 43 45q21 18 66 18q65 -9 98 -27q45 -25 102 -86q8 -9 48 -59q3 -4 17.5 -24.5t25.5 -28.5q14 -11 23 -26 t11.5 -24.5t8.5 -31.5q8 -34 -27 -55q-17 -12 -23 -13q-32 -20 -65 0q-10 6 -35 21.5t-38 24.5t-30 24.5t-26 32.5q-5 9 -35 39q-9 10 -23.5 10.5t-23.5 -8.5q-7 -7 -28.5 -29.5t-31.5 -33t-25 -29t-24 -35.5q-5 -10 -15 -26.5t-11 -18.5q-16 -27 -56 -43q-35 -13 -86 -13 q-23 -3 -36 13q-15 15 -39 47q-12 19 -2 35z" />
<glyph unicode="&#xfc;" horiz-adv-x="1040" d="M102 602q0 11 7 25q13 47 2 86q-10 45 18 102q12 27 38.5 37.5t49.5 5.5q27 -3 49 -16q15 -10 20.5 -14t14.5 -13.5t11 -18t2 -23t-5 -32.5q-44 -139 -26 -286q4 -39 20 -103q7 -26 29 -63q38 -68 108 -62q4 1 16.5 2.5t18.5 2.5t15.5 3t17.5 5t16 8q7 4 24 9t25 9 q25 12 35 25q74 84 86 160q18 113 8 192q-2 39 -2 115q0 48 21 94q15 37 53 55q20 8 33 8q80 -10 119 -67q14 -21 11 -46t-24 -40q-36 -29 -39 -74q0 -18 -1.5 -52.5t-1.5 -63t3 -52.5q2 -14 -2 -69q-11 -101 -47 -158q-18 -62 -59 -105t-104 -79q-88 -50 -201 -66 q-65 -6 -121 10q-44 15 -76 43q-21 21 -33 29q-62 47 -86 139q-28 81 -32 127q-7 59 -11 211zM186 1323q-3 25 25 39q7 4 22.5 11t22.5 11q29 19 72 8t63 -42q15 -26 27 -43q13 -23 4 -47q-20 -58 -39 -103q-15 -40 -59 -37q-6 2 -21 2q-2 1 -9.5 2t-10.5 2q-40 3 -69 39 t-24 74q5 39 -4 84zM643 1339q1 1 4.5 6.5t5.5 10.5q8 8 13 18q22 34 66 43.5t75 -12.5q36 -23 76 -35q26 -5 26 -39v-49q3 -34 -27 -67.5t-65 -36.5l-49 -7q-26 -3 -45 19q-74 79 -74 80q-28 28 -6 69z" />
<glyph unicode="&#xfd;" horiz-adv-x="1280" d="M109 825q-15 39 4 80t59 58q47 17 74 -13q3 -3 25.5 -27t29.5 -33t17.5 -29.5t13.5 -39.5q0 -4 6 -16q8 -11 26.5 -36.5t29 -39t27.5 -32.5t34 -33q20 -17 41 0q25 22 53 43t67.5 48.5t55.5 39.5q127 95 141 104q60 40 131 68q111 46 115 47q18 5 43 -2l31 -17 q48 -28 45 -90q-6 -54 -54 -76q-16 -9 -57 -18q-114 -20 -205 -96l-55 -43q-44 -28 -86 -99q-35 -50 -35 -106q0 -12 -1 -25.5t-2.5 -29.5t-2.5 -25q-2 -20 2 -61q3 -37 27 -64q31 -33 71 -119q15 -29 2 -67q-10 -20 -12 -23q-15 -30 -45 -39q-43 -14 -94 -14q-40 3 -49 33 q-8 35 -35 69q-20 27 -23 58q-1 9 -6 27.5t-6 23.5q-8 28 -8 43q4 10 0 35t-6 34t-9.5 34t-9.5 34q-6 26 -28 41l-37 27q-93 66 -133 125q-5 9 -35 39q-37 34 -58 77q-17 32 -36 50q-20 23 -43 75zM375 1204q-1 49 25 88.5t65 50.5q30 7 80.5 33.5t60.5 30.5q18 19 58 45 t49 33q30 21 125 65q49 21 108 -2q7 -2 12 -12q8 -23 0 -50t-28 -34q-11 -5 -21.5 -11t-21.5 -15t-17.5 -14.5t-19 -17.5t-16.5 -16q-31 -29 -97 -75q-51 -35 -149 -109q-5 -4 -19 -13.5t-20 -14t-18.5 -12t-21 -12t-20 -10t-22.5 -8.5q-26 -9 -49 11q-43 30 -43 69z" />
<glyph unicode="&#xff;" horiz-adv-x="1280" d="M109 825q-15 39 4 80t59 58q47 17 74 -13q3 -3 25.5 -27t29.5 -33t17.5 -29.5t13.5 -39.5q0 -4 6 -16q8 -11 26.5 -36.5t29 -39t27.5 -32.5t34 -33q20 -17 41 0q25 22 53 43t67.5 48.5t55.5 39.5q127 95 141 104q60 40 131 68q111 46 115 47q18 5 43 -2l31 -17 q48 -28 45 -90q-6 -54 -54 -76q-16 -9 -57 -18q-114 -20 -205 -96l-55 -43q-44 -28 -86 -99q-35 -50 -35 -106q0 -12 -1 -25.5t-2.5 -29.5t-2.5 -25q-2 -20 2 -61q3 -37 27 -64q31 -33 71 -119q15 -29 2 -67q-10 -20 -12 -23q-15 -30 -45 -39q-43 -14 -94 -14q-40 3 -49 33 q-8 35 -35 69q-20 27 -23 58q-1 9 -6 27.5t-6 23.5q-8 28 -8 43q4 10 0 35t-6 34t-9.5 34t-9.5 34q-6 26 -28 41l-37 27q-93 66 -133 125q-5 9 -35 39q-37 34 -58 77q-17 32 -36 50q-20 23 -43 75zM283 1386q-3 26 24 39q7 4 22.5 11.5t22.5 11.5q29 19 72 7.5t63 -42.5 q15 -26 27 -43q13 -23 4 -47q-18 -53 -39 -102q-15 -40 -59 -37q-6 2 -21 2q-2 1 -9.5 2t-10.5 2q-40 3 -68.5 39t-23.5 74t-4 83zM739 1403q1 1 5 6t6 10q5 5 12 19q22 34 66 43t75 -13q33 -21 76 -34q27 -5 27 -39v-49q3 -34 -27.5 -68t-65.5 -37l-49 -6q-27 -3 -45 18 q-74 79 -74 80q-28 28 -6 70z" />
<glyph unicode="&#x152;" horiz-adv-x="1753" d="M109 293q2 8 2 26v15q2 63 22 172l6 37q18 89 58 194q17 41 12 72q-6 33 12 70q32 61 39 90q6 12 16 22l7 10l6 7q33 18 60.5 48t42.5 55.5t34 64.5q22 43 66 55q15 6 28 6q9 0 21 -4l16 -6l14 -6q45 -18 64 -78q5 -17 0 -33q-1 -4 -4 -11.5t-4 -11.5l-6 -14 q-5 -12 -0.5 -24.5t14.5 -18.5q11 -11 20 -14q73 -23 136 -101q12 -16 20 -24t23 -8q14 0 22 8q22 19 25 41q9 46 63 69q21 7 37 7q12 0 18 -2q7 0 11 -2q3 0 16.5 -3.5t20.5 -3.5h12q26 0 53 9l131 41q57 11 64 12q23 2 63 14q42 17 80 17q6 0 41 -5q24 -4 39 -4 q10 0 16 -2q54 -3 92 -47q17 -21 11 -43q-7 -27 -33 -37q-9 -4 -35 -8q-2 -1 -6 -2t-6 -2q-8 -1 -24.5 -4t-24.5 -4q-56 -10 -103 -21l-149 -43q-1 -1 -4 -2t-4 -2q-8 -4 -15 -4q-53 -7 -125 -53q-2 -1 -15.5 -9.5t-19.5 -13.5q-22 -11 -22 -32q0 -35 -29 -64 q-3 -3 -3.5 -5.5t0.5 -6t1 -4.5q0 -4 3 -8.5t5 -4.5q16 -4 23 -2q38 9 100 13l70 6q12 4 20 4q2 0 6.5 -1t6.5 -1q21 -6 49 -6q5 0 15.5 1t15.5 1h24q32 -3 52.5 -26.5t19.5 -57.5q0 -20 -19 -35q-21 -14 -39 -23q-8 -6 -24 -14q-36 -23 -84 -29l-53 -6q-42 -6 -43 -6 q-39 -6 -113 -26q-29 -10 -37 -11q-20 -6 -32 -23.5t-11 -39.5q0 -15 2 -21q0 -6 1 -17.5t1 -16.5q0 -70 78 -138q6 -6 21 -10h8q8 -2 26 -2h15q2 1 6 2t6 2q88 20 137 37q115 44 197 111q14 14 37 14q17 0 30 -8q37 -15 47 -45q7 -31 -12 -62q-61 -98 -162 -153 q-50 -30 -118 -54l-31 -12q-55 -22 -121 -22q-10 0 -14 2h-21q-8 0 -23 1t-22 1q-129 12 -196 116q-12 15 -33 54q-11 15 -19 28q-4 4 -10 4q-12 0 -14 -4l-2 -6q-21 -41 -82 -102q-19 -19 -27 -29q-20 -16 -30 -22q-20 -9 -31 -17q-53 -40 -170 -61q-48 -8 -64 -8 q-31 0 -69 10q-64 17 -123 76q-14 15 -25 32q-34 46 -61 123q-24 66 -10 113zM278 344l1 -18q4 -8 4 -37q4 -20 4 -31q3 -63 53 -104q26 -23 51 -23h4q96 0 148 47q12 12 18 15q50 36 88 86q35 48 53 108l9 27q11 30 16 49q4 26 8 35q18 88 15 120q0 88 -41 152 q-2 4 -12.5 24t-16.5 29l-2 4q-45 86 -125 109l-8 4q-4 2 -15 2q-9 0 -24 -6q-40 -15 -55 -45q-14 -21 -15 -23q-34 -57 -45 -84q-33 -77 -61 -166q-24 -81 -31 -126q0 -11 -4 -31q-8 -66 -16 -99q-1 0 -1 -18z" />
<glyph unicode="&#x153;" horiz-adv-x="1806" d="M113 625q-21 81 4 127q2 2 2 4q14 72 92 141q54 48 143 57h70q5 0 16.5 1t16.5 1h49q110 -3 178 -34q1 -1 3.5 -1t4.5 -1q15 -9 33 -15q92 -25 166 -74q4 -4 12 -4l8 2q11 12 9 19q0 4 -5 24l-2 9q-5 25 11 53q30 55 86 67q40 12 55 27q29 31 82 31q68 0 166 24 q43 10 106 17l43 6h15q27 0 57 -12q24 -9 33 -21q20 -23 53 -43q7 -4 8 -15t-4 -18q-19 -28 -35 -28q-35 0 -112 -25q-30 -10 -60 -16q-27 -6 -108 -29l-21 -6q-4 -1 -49 -16q-35 -15 -45 -52q-27 -102 -37 -147q-5 -16 2 -35q0 -8 6 -13t15 -5h2q2 0 6 -1t6 -1q8 0 20 4 q66 19 199 39h6q24 4 37 4q61 9 80 16q6 2 18 2h7q18 2 43 2q31 0 45 -12q15 -8 51 -51q7 -10 4 -21q0 -11 -10 -18q-81 -50 -86 -53q-7 -7 -21 -7q-29 -2 -92 -22l-31 -12l-55 -13q-77 -15 -219 -65q-15 -6 -22 -21.5t-3 -32.5q14 -70 88 -120q18 -11 35 -11q2 0 4.5 1 t3.5 1q48 6 76 17q17 6 70 33q62 30 90 39q14 4 31 30q18 30 59 33h4q40 0 64 -37q19 -40 0 -67q-39 -59 -63 -78q-9 -8 -19 -13q-7 -4 -19.5 -12t-13.5 -8q-35 -23 -39 -25q-18 -8 -49 -39l-10 -10q-60 -57 -189 -73q-6 -3 -10 -3q-19 0 -45 11q-120 39 -197 170l-12 22 q-14 28 -20 37q-14 21 -31 21q-14 0 -25 -11l-4 -4q-29 -25 -82 -78q-109 -103 -235 -157q-100 -42 -191 -64q-24 -8 -55 -8q-24 0 -51 6q-23 8 -39 10l-17 7q-96 23 -131 124q-49 145 -6 263q10 31 17 75q4 40 8 56q5 12 -4 26q-5 12 -15 29l-14 25q-9 22 -16 45zM303 264 q-3 -34 23 -74q20 -30 73 -30h11q4 1 22 3.5t29 4.5l18 6l21 6q24 3 39.5 6.5t53.5 23.5t91 56l39 27l2 2q15 22 49 45l25 20l4 5q24 21 35.5 32.5t24.5 33.5t16 46q0 5 8 17l8 12l27 61q13 30 0 60q-12 31 -29 51q-18 23 -49 47q-59 51 -119 66q-37 8 -139 26q-8 2 -24.5 5 t-24.5 5h-13q-29 0 -41 -26l-34 -66q-56 -107 -72 -162q-3 -15 -12 -30q-53 -113 -62 -279z" />
<glyph unicode="&#x178;" horiz-adv-x="1286" d="M102.5 986q-3.5 34 16.5 67q17 26 52.5 37.5t64.5 -0.5q46 -18 79 -54q125 -131 127 -133q35 -38 78 -72q27 -18 72 -63l39 -35q19 -14 43 -11.5t37 19.5q44 57 75 107q58 95 162 196q13 13 28.5 24t39.5 25.5t33 20.5q4 3 12 3.5t12 -1.5q30 -18 92 -26q6 -2 13 -11 t6 -16q0 -27 -8 -43q-20 -52 -62 -72q-29 -14 -57.5 -40t-42 -42t-43.5 -55q-41 -54 -76 -139q-33 -76 -8 -135q17 -35 -8 -74q-40 -70 -31 -152q4 -48 0 -139q0 -58 20 -94q9 -14 17 -41q15 -34 -8 -66q-27 -51 -97 -71q-20 -6 -41 8q-31 24 -47 51l-24 57q-12 24 -2 47 q0 4 1 11t1 10q-5 33 -7 69.5t-2.5 80t-1.5 69.5q0 30 -12 96q-10 64 -51 97q-27 24 -88 89t-100 95q-11 7 -25 25q-35 46 -109 102q-22 15 -32 27q-27 32 -74 63q-24 16 -35 27q-25 28 -28.5 62zM268 1462q-3 25 25 39q7 4 22.5 11.5t22.5 11.5q29 19 72 7.5t63 -42.5 q15 -26 27 -43q13 -23 4 -47q-20 -58 -39 -103q-14 -39 -59 -36q-6 2 -21 2q-2 1 -9.5 2t-10.5 2q-40 3 -69 38.5t-24 73.5q5 39 -4 84zM725 1479q1 1 4.5 6t5.5 10q8 8 13 18q22 34 66 43.5t75 -12.5q36 -23 76 -35q26 -5 26 -39v-49q3 -34 -27 -67.5t-65 -36.5l-49 -6 q-27 -3 -45 18q-74 79 -74 80q-28 28 -6 70z" />
<glyph unicode="&#x2c6;" horiz-adv-x="890" d="M106 1165q6 17 23 56q11 29 41 45q62 31 98 118q62 132 76 158q5 9 12.5 18t16.5 20t14 17q20 23 66 23q63 -9 98 -33q44 -31 102 -108q21 -31 47 -74q3 -5 17.5 -30t25.5 -36q4 -4 8 -9t7 -9t6 -10l4.5 -9t4 -11t3.5 -10t3 -11.5t2 -10.5t3 -11l2 -11q8 -43 -26 -70 q-9 -9 -23 -16q-33 -23 -65 0q-10 8 -35 27.5t-38 30.5t-30 30.5t-26 40.5q-4 8 -9.5 16t-14 18.5t-11.5 14.5q-9 12 -23.5 12.5t-23.5 -10.5q-7 -9 -28.5 -36.5t-31.5 -41t-24.5 -36.5t-24.5 -43q-5 -12 -15 -34t-11 -24q-16 -34 -56 -53q-36 -16 -86 -16q-24 -3 -37 16 q-11 15 -38 59q-12 23 -3 43z" />
<glyph unicode="&#x2000;" horiz-adv-x="858" />
<glyph unicode="&#x2001;" horiz-adv-x="1716" />
<glyph unicode="&#x2002;" horiz-adv-x="858" />
<glyph unicode="&#x2003;" horiz-adv-x="1716" />
<glyph unicode="&#x2004;" horiz-adv-x="572" />
<glyph unicode="&#x2005;" horiz-adv-x="429" />
<glyph unicode="&#x2006;" horiz-adv-x="286" />
<glyph unicode="&#x2007;" horiz-adv-x="286" />
<glyph unicode="&#x2008;" horiz-adv-x="214" />
<glyph unicode="&#x2009;" horiz-adv-x="343" />
<glyph unicode="&#x200a;" horiz-adv-x="95" />
<glyph unicode="&#x2010;" horiz-adv-x="1177" d="M106 575q0 11 15 21q53 44 112 41h70q22 -1 76.5 5.5t129 17.5t97.5 14q10 1 57 8t109 15.5t117 13.5q40 6 80 0q59 -6 94 -56q21 -30 6 -67l-14 -21q-20 -30 -49 -35q-16 -2 -44.5 -6.5t-51.5 -7.5t-44 -4l-166 -12l-73 -13q-61 -6 -121 -18q-97 -16 -148 -20 q-33 -2 -43 -4t-25.5 -10t-41.5 -17q-36 -10 -71 2t-60 43q-4 4 -8 16q-11 55 -3 94z" />
<glyph unicode="&#x2011;" horiz-adv-x="1177" d="M106 575q0 11 15 21q53 44 112 41h70q22 -1 76.5 5.5t129 17.5t97.5 14q10 1 57 8t109 15.5t117 13.5q40 6 80 0q59 -6 94 -56q21 -30 6 -67l-14 -21q-20 -30 -49 -35q-16 -2 -44.5 -6.5t-51.5 -7.5t-44 -4l-166 -12l-73 -13q-61 -6 -121 -18q-97 -16 -148 -20 q-33 -2 -43 -4t-25.5 -10t-41.5 -17q-36 -10 -71 2t-60 43q-4 4 -8 16q-11 55 -3 94z" />
<glyph unicode="&#x2012;" horiz-adv-x="1177" d="M106 575q0 11 15 21q53 44 112 41h70q22 -1 76.5 5.5t129 17.5t97.5 14q10 1 57 8t109 15.5t117 13.5q40 6 80 0q59 -6 94 -56q21 -30 6 -67l-14 -21q-20 -30 -49 -35q-16 -2 -44.5 -6.5t-51.5 -7.5t-44 -4l-166 -12l-73 -13q-61 -6 -121 -18q-97 -16 -148 -20 q-33 -2 -43 -4t-25.5 -10t-41.5 -17q-36 -10 -71 2t-60 43q-4 4 -8 16q-11 55 -3 94z" />
<glyph unicode="&#x2013;" horiz-adv-x="1632" d="M104 455q3 8 6.5 14.5t11 13.5t10 9.5t13 10.5t11.5 9q40 29 77 39q28 9 61.5 16t58 10.5t63.5 8.5t59 8q139 22 227 22q16 0 46.5 5t42.5 6q21 2 44.5 3t51.5 1.5t43 1.5h88q49 0 88 8q62 8 96 8q88 -6 182 23q47 12 80 -21q19 -15 49 -49q28 -36 11 -74 q-44 -95 -148 -110q-8 -2 -24 2q-17 7 -31 18q-32 19 -68 19q-17 0 -52 1t-52 1q-17 -1 -52 -4t-53 -4q-16 -2 -59.5 -6.5t-59 -6t-59 -4t-59.5 1.5q-38 -4 -143.5 -12.5t-161.5 -17.5q-9 -3 -19 -3q-116 -7 -198 -59q-2 -1 -41 -18q-49 -15 -109 16q-17 7 -20 27 q-4 16 -4 24q0 6 -6 27.5t-1 34.5z" />
<glyph unicode="&#x2014;" horiz-adv-x="1638" d="M106 481.5q-10 35.5 3.5 73.5t50.5 57q12 7 35 11q27 4 77 -7q58 -15 140 -12q79 2 270 23q19 3 54.5 6t65 7t54.5 11q28 0 79.5 3t94 3t80.5 -6q10 -2 33 -2q20 4 26 4q31 3 123 -8t119 -22q18 -5 80 -37q10 -6 27 -23q28 -36 12.5 -74.5t-49.5 -46.5q-79 -16 -121 0 q-182 21 -262 23h-41q-33 4 -45 4.5t-48 -2.5t-49 -4q-56 -2 -111.5 -7t-143 -16t-111.5 -14q-117 -13 -209 -16q-37 -2 -94 -17q-36 -12 -68 10q-12 10 -35 25q-27 18 -37 53.5z" />
<glyph unicode="&#x2018;" horiz-adv-x="593" d="M309 1133v4q1 14 2 44t2 44q2 41 29 104q7 18 24 51t19 37q20 43 82 117q11 14 31 27q7 3 44 23.5t58 29.5q18 12 41 2q12 -2 31 -10q18 -7 23.5 -25.5t-3.5 -38.5q-18 -41 -47 -55q-46 -23 -80 -94q-48 -108 -57 -138q-10 -35 -23 -122q-5 -27 -32 -58 q-22 -23 -50.5 -24.5t-50.5 18.5q-13 10 -33 35l-6 12q-4 8 -4 17z" />
<glyph unicode="&#x2019;" horiz-adv-x="593" d="M-101.5 959q-5.5 18 3.5 38q18 42 47 56q46 23 80 94q49 110 57 137q10 34 23 123q4 25 32 57q22 23 50.5 24.5t50.5 -18.5q12 -10 32 -34l7 -13q4 -8 4 -16v-4q-1 -14 -2 -44t-2 -44q-2 -42 -29 -105q-7 -18 -24 -51t-19 -37q-19 -41 -82 -116q-11 -14 -31 -27 q-7 -3 -44 -23.5t-58 -29.5q-18 -12 -41 -2q-12 2 -31 10q-18 7 -23.5 25z" />
<glyph unicode="&#x201a;" horiz-adv-x="593" d="M-101.5 -329q-5.5 18 3.5 38q18 41 47 55q45 23 80 95q49 110 57 137q10 34 23 123q4 25 32 57q22 23 50.5 24.5t50.5 -18.5q9 -8 32 -35l7 -12q4 -8 4 -16v-4q-1 -14 -2 -44t-2 -44q-2 -42 -29 -105q-7 -18 -24 -51t-19 -37q-20 -43 -82 -117q-9 -11 -31 -26 q-7 -3 -44 -23.5t-58 -29.5q-19 -13 -41 -3q-7 1 -31 11q-18 7 -23.5 25z" />
<glyph unicode="&#x201c;" horiz-adv-x="983" d="M309 1096v4q1 14 2 44t2 44q2 41 29 104q7 18 24 51t19 37q20 43 82 117q11 14 31 27q7 3 44 23.5t58 29.5q18 12 41 2q12 -2 31 -10q18 -7 23.5 -25.5t-3.5 -38.5q-18 -41 -47 -55q-46 -23 -80 -94q-49 -110 -57 -137q-10 -34 -23 -123q-5 -27 -32 -58 q-22 -23 -50.5 -24.5t-50.5 18.5q-13 10 -33 35l-6 12q-4 8 -4 17zM698 1126v4q1 14 2 44.5t2 44.5q2 41 29 104q7 18 24 51t19 37q20 43 82 117q9 11 31 26q11 6 46.5 25.5t55.5 28.5q18 12 41 2q7 -1 31 -11q18 -7 23.5 -25t-3.5 -38q-18 -41 -47 -55q-45 -23 -80 -95 q-49 -110 -57 -137q-10 -34 -23 -123q-4 -25 -32 -57q-22 -23 -50.5 -24.5t-50.5 18.5q-9 8 -32 35l-7 12q-4 8 -4 16z" />
<glyph unicode="&#x201d;" horiz-adv-x="1013" d="M-101.5 1022.5q-5.5 18.5 3.5 38.5q18 41 47 55q46 23 80 94q48 108 57 138q10 35 23 122q5 27 32 58q22 23 50.5 24.5t50.5 -18.5q9 -8 32 -35l7 -12q4 -8 4 -17v-4q-1 -14 -2 -44t-2 -44q-2 -41 -29 -104q-7 -18 -24 -51t-19 -37q-20 -43 -82 -117q-11 -14 -31 -27 q-7 -3 -44 -23.5t-58 -29.5q-18 -12 -41 -2q-12 2 -31 10q-18 7 -23.5 25.5zM318.5 967.5q-5.5 18.5 3.5 38.5q18 41 47 55q46 23 80 94q49 110 57 137t22 123q4 25 33 58q22 23 50.5 24.5t50.5 -18.5q9 -8 32 -35l6 -12q5 -10 5 -17v-4q-1 -14 -2.5 -44t-2.5 -44 q-2 -44 -28 -104q-5 -14 -12.5 -29t-16.5 -32.5t-14 -27.5q-19 -41 -82 -116q-11 -14 -31 -27q-7 -3 -44 -23.5t-58 -29.5q-18 -12 -41 -2q-12 2 -31 10q-18 7 -23.5 25.5z" />
<glyph unicode="&#x201e;" horiz-adv-x="1011" d="M-101.5 -329q-5.5 18 3.5 38q18 41 47 55q45 23 80 95q49 110 57 137q10 34 23 123q4 25 32 57q22 23 50.5 24.5t50.5 -18.5q9 -8 32 -35l7 -12q4 -8 4 -16v-4q-1 -14 -2 -44t-2 -44q-2 -42 -29 -105q-7 -18 -24 -51t-19 -37q-20 -43 -82 -117q-9 -11 -31 -26 q-7 -3 -44 -23.5t-58 -29.5q-19 -13 -41 -3q-7 1 -31 11q-18 7 -23.5 25zM315.5 -329q-5.5 18 3.5 38q18 40 48 55q44 22 79 95q5 10 19.5 41.5t23.5 53t15 42.5q8 27 22 123q4 24 33 57q22 23 50 24.5t50 -18.5q13 -10 33 -35l6 -12q4 -8 4 -16v-4q-1 -14 -2 -44t-2 -44 q-2 -45 -28 -105q-7 -18 -24 -51t-19 -37q-20 -43 -82 -117q-9 -11 -31 -26q-7 -3 -44 -23.5t-58 -29.5q-19 -13 -41 -3q-7 1 -31 11q-19 7 -24.5 25z" />
<glyph unicode="&#x2022;" horiz-adv-x="745" d="M109.5 626q14.5 36 93.5 91q16 11 32.5 27.5t35.5 38t30 32.5q27 9 29 10q5 -2 14.5 -4t13.5 -4q10 -3 29.5 -14.5t26.5 -14.5q10 -5 46.5 -16t53.5 -22q28 -25 102 -117q40 -46 21 -101q-19 -54 -47 -116q-29 -68 -101 -88q-15 -5 -79 -21t-95 -33q-36 -16 -75.5 -1 t-63.5 49q-28 50 -39 84q-17 50 -22 90q-1 9 -4 26q-16 68 -1.5 104z" />
<glyph unicode="&#x202f;" horiz-adv-x="343" />
<glyph unicode="&#x205f;" horiz-adv-x="429" />
<glyph unicode="&#x25fc;" horiz-adv-x="1003" d="M0 0v1004h1004v-1004h-1004z" />
</font>
</defs>
</svg>
